<?xml version="1.0" encoding="utf-8"?>
<!-- Generator: Adobe Illustrator 26.5.2, SVG Export Plug-In . SVG Version: 6.00 Build 0)  -->
<svg version="1.1" id="Layer_1" xmlns="http://www.w3.org/2000/svg" xmlns:xlink="http://www.w3.org/1999/xlink" x="0px" y="0px"
	 viewBox="0 0 72 72" style="enable-background:new 0 0 72 72;" xml:space="preserve">
<style type="text/css">
	.st0{fill:#702E3E;}
</style>
<g>
	<circle class="st0" cx="35.51" cy="37.49" r="3.85"/>
	<path class="st0" d="M38.76,48.59c2.83,2.41,7.27,0.65,9.65-0.29l0.24-0.1c1.43-0.56,2.71-0.85,3.68-1
		c-0.35-0.91-0.75-2.17-0.97-3.69l-0.04-0.26c-0.38-2.54-1.08-7.26-4.58-8.5c-1.53-0.54-3.2-0.31-4.53,0.56
		c-0.03,0.22-0.07,0.47-0.13,0.75c-0.19,0.95-0.19,1.92,0,2.87c0.07,0.33,0.11,0.63,0.14,0.87c0.09,0.58,0.24,1.06,0.37,1.4
		c0.1,0.25-0.06,0.54-0.33,0.58c-0.36,0.05-0.85,0.16-1.4,0.37c-0.22,0.09-0.5,0.2-0.83,0.31c-0.91,0.31-1.76,0.8-2.48,1.43
		c-0.22,0.19-0.42,0.35-0.59,0.49C36.9,45.97,37.53,47.54,38.76,48.59z"/>
	<path class="st0" d="M30.28,32.77c0.2-0.08,0.42-0.17,0.68-0.25c0.91-0.31,1.76-0.8,2.48-1.43c0.26-0.23,0.51-0.42,0.7-0.57
		c0.46-0.37,0.8-0.74,1.02-1.02c0.17-0.21,0.5-0.21,0.67,0c0.22,0.28,0.56,0.66,1.02,1.02c0.19,0.15,0.43,0.34,0.69,0.57
		c0.72,0.64,1.57,1.12,2.48,1.43c0.26,0.09,0.49,0.18,0.69,0.26c1.42-0.73,2.47-2.05,2.76-3.65c0.67-3.65-3.07-6.62-5.08-8.22
		l-0.2-0.16c-1.2-0.95-2.09-1.92-2.7-2.69c-0.61,0.76-1.51,1.73-2.7,2.69l-0.2,0.16c-2.01,1.59-5.75,4.56-5.08,8.22
		C27.81,30.71,28.86,32.05,30.28,32.77z"/>
	<path class="st0" d="M40.22,19.33c2.32,1.86,6.46,5.41,5.58,10.21c-0.09,0.51-0.25,1-0.44,1.47c2.76-1.48,6.07-1.81,9.15-0.68
		c2.44,0.89,4.21,2.52,5.5,4.44c0.75-2.32,1.1-4.66,1.35-6.35L61.42,28c0.43-2.86,1.23-5.12,1.84-6.53
		c-1.53-0.18-3.89-0.62-6.58-1.67l-0.39-0.15c-3.91-1.54-11.18-4.42-16-0.39C40.27,19.28,40.24,19.3,40.22,19.33z"/>
	<path class="st0" d="M25.19,29.49c-0.89-5.02,3.72-8.68,5.93-10.44l0.2-0.16c2.12-1.69,3.14-3.44,3.15-3.46
		c0.21-0.37,0.6-0.59,1.02-0.59c0,0,0,0,0,0c0.42,0,0.81,0.23,1.02,0.6c0.01,0.01,0.63,1.08,1.9,2.35c0.12-0.11,0.24-0.23,0.36-0.33
		c2-1.67,4.28-2.38,6.59-2.55c-1.64-1.81-3.49-3.28-4.82-4.34l-0.32-0.26c-2.26-1.8-3.81-3.62-4.74-4.86
		c-0.92,1.24-2.48,3.06-4.74,4.86l-0.32,0.26c-3.29,2.61-9.42,7.48-8.34,13.66C22.47,26.35,23.6,28.18,25.19,29.49z"/>
	<path class="st0" d="M24.25,34.76c-3.5,1.24-4.2,5.97-4.58,8.5l-0.04,0.26c-0.23,1.51-0.62,2.77-0.97,3.68
		c0.97,0.15,2.25,0.44,3.68,1l0.24,0.1c2.38,0.94,6.83,2.7,9.65,0.29c1.24-1.05,1.87-2.63,1.78-4.22c-0.17-0.13-0.36-0.28-0.57-0.47
		c-0.72-0.64-1.57-1.12-2.48-1.43c-0.33-0.11-0.61-0.23-0.84-0.31c-0.55-0.22-1.04-0.32-1.4-0.37c-0.27-0.04-0.44-0.32-0.33-0.58
		c0.13-0.33,0.29-0.81,0.37-1.4c0.04-0.24,0.08-0.55,0.15-0.89c0.19-0.95,0.19-1.92,0-2.87c-0.05-0.27-0.09-0.51-0.12-0.72
		C27.47,34.46,25.79,34.21,24.25,34.76z"/>
	<path class="st0" d="M33.72,50.42c-1.54,1.29-3.33,1.74-5.09,1.74c-2.69,0-5.32-1.04-6.91-1.67l-0.24-0.09
		c-2.51-0.99-4.52-1-4.57-1h0c0,0,0,0,0,0c-0.42,0-0.81-0.23-1.02-0.59c-0.21-0.37-0.21-0.82,0.01-1.18
		c0.01-0.01,0.61-1.07,1.07-2.8c-0.16-0.05-0.32-0.09-0.47-0.15c-2.44-0.89-4.21-2.52-5.5-4.44c-0.75,2.32-1.1,4.66-1.35,6.35
		L9.58,47c-0.43,2.86-1.23,5.12-1.84,6.53c1.53,0.18,3.89,0.61,6.58,1.67l0.39,0.15c3.91,1.54,11.18,4.42,16,0.39
		C32.37,54.36,33.38,52.45,33.72,50.42z"/>
	<path class="st0" d="M61.36,46.59c-0.62-4.16-1.77-11.89-7.66-14.05c-2.02-0.74-4.17-0.67-6.09,0.04
		c4.76,1.75,5.63,7.55,6.05,10.34l0.04,0.26c0,0,0,0,0,0c0.4,2.68,1.41,4.44,1.42,4.46c0.21,0.37,0.21,0.82,0,1.19
		c-0.21,0.36-0.6,0.59-1.02,0.59c0,0-0.01,0-0.01,0c-0.03,0-1.25,0.01-2.98,0.47c0.04,0.17,0.08,0.33,0.11,0.5
		c0.45,2.56-0.08,4.9-1.09,6.98c2.39-0.51,4.59-1.38,6.17-2.01l0.38-0.15c2.69-1.06,5.05-1.49,6.58-1.67
		c-0.61-1.42-1.41-3.68-1.84-6.53L61.36,46.59z"/>
	<path class="st0" d="M9.64,28.41c0.62,4.16,1.77,11.89,7.66,14.05c0.04,0.01,0.07,0.02,0.11,0.03c0.44-2.93,1.45-8.32,6.05-9.96
		c0.48-0.17,0.96-0.28,1.45-0.35c-2.65-1.66-4.58-4.34-5.14-7.57c-0.45-2.56,0.08-4.9,1.09-6.98c-2.38,0.51-4.58,1.38-6.17,2.01
		l-0.39,0.15c-2.69,1.06-5.05,1.49-6.58,1.67c0.61,1.42,1.41,3.68,1.84,6.53L9.64,28.41z"/>
	<path class="st0" d="M48.87,50.65c-1.61,0.63-4.02,1.51-6.5,1.51c-1.78,0-3.58-0.45-5.14-1.78c-0.39-0.33-0.73-0.7-1.04-1.1
		c-0.1,3.14-1.46,6.16-3.98,8.27c-2,1.67-4.28,2.39-6.59,2.55c1.64,1.81,3.49,3.28,4.83,4.34l0.32,0.25
		c2.26,1.8,3.81,3.62,4.74,4.86c0.92-1.24,2.48-3.06,4.73-4.86l0.32-0.26c3.29-2.61,9.42-7.48,8.34-13.66
		C48.89,50.73,48.88,50.69,48.87,50.65z"/>
</g>
</svg>
