<?xml version="1.0" encoding="utf-8"?>
<!-- Generator: Adobe Illustrator 26.5.2, SVG Export Plug-In . SVG Version: 6.00 Build 0)  -->
<svg version="1.1" id="Layer_1" xmlns="http://www.w3.org/2000/svg" xmlns:xlink="http://www.w3.org/1999/xlink" x="0px" y="0px"
	 viewBox="0 0 72 72" style="enable-background:new 0 0 72 72;" xml:space="preserve">
<style type="text/css">
	.st0{fill:#D8EFEB;}
	.st1{fill:#AE841F;}
</style>
<g>
	<circle class="st0" cx="35.5" cy="39.09" r="2.72"/>
	<path class="st1" d="M42.27,23.87c0,6.13-3.03,11.1-6.77,11.1s-6.77-4.97-6.77-11.1c0-7.85,4.06-14,5.89-16.38
		c0.44-0.58,1.31-0.58,1.76,0C38.21,9.86,42.27,16.02,42.27,23.87z"/>
	<path class="st1" d="M23.11,27.95c5.83,1.9,9.62,6.31,8.47,9.87c-1.16,3.56-6.82,4.9-12.65,3.01C11.46,38.4,6.86,32.64,5.17,30.16
		c-0.41-0.6-0.14-1.43,0.54-1.67C8.54,27.48,15.65,25.52,23.11,27.95z"/>
	<path class="st1" d="M21.07,47.43c3.6-4.96,8.98-7.2,12-5s2.56,8-1.05,12.96c-4.61,6.35-11.52,8.94-14.4,9.79
		c-0.7,0.2-1.4-0.31-1.42-1.03C16.13,61.15,16.46,53.78,21.07,47.43z"/>
	<path class="st1" d="M38.97,55.39c-3.6-4.96-4.07-10.77-1.05-12.96c3.03-2.2,8.4,0.04,12,5c4.61,6.35,4.95,13.72,4.86,16.72
		c-0.02,0.73-0.72,1.24-1.42,1.03C50.49,64.33,43.59,61.74,38.97,55.39z"/>
	<path class="st1" d="M52.07,40.83c-5.83,1.9-11.5,0.55-12.65-3.01s2.64-7.98,8.47-9.87c7.47-2.43,14.57-0.46,17.4,0.54
		c0.68,0.24,0.95,1.07,0.54,1.67C64.14,32.64,59.54,38.4,52.07,40.83z"/>
</g>
</svg>
