<?xml version="1.0" encoding="utf-8"?>
<!-- Generator: Adobe Illustrator 26.5.2, SVG Export Plug-In . SVG Version: 6.00 Build 0)  -->
<svg version="1.1" id="Layer_1" xmlns="http://www.w3.org/2000/svg" xmlns:xlink="http://www.w3.org/1999/xlink" x="0px" y="0px"
	 viewBox="0 0 72 72" style="enable-background:new 0 0 72 72;" xml:space="preserve">
<style type="text/css">
	.st0{fill:#AE841F;}
</style>
<g>
	<path class="st0" d="M53.3,42.93c0-8.76-4.2-16.31-10.23-19.7c-1.08-0.61-1.97-1.51-2.62-2.57l-1.23-1.98
		c-0.71-1.15-1.97-1.85-3.32-1.85h0c-1.35,0-2.61,0.7-3.32,1.85l-1.23,1.98c-0.65,1.06-1.54,1.96-2.62,2.57
		c-6.03,3.4-10.23,10.94-10.23,19.7c0,8.76,4.2,16.31,10.23,19.7c1.08,0.61,1.97,1.51,2.62,2.57l1.23,1.98
		c0.71,1.15,1.97,1.85,3.32,1.85h0c1.35,0,2.61-0.7,3.32-1.85l1.23-1.98c0.65-1.06,1.54-1.96,2.62-2.57
		C49.1,59.23,53.3,51.69,53.3,42.93z"/>
	<path class="st0" d="M45.83,12.44c-3.34,3.65-9.43,3.5-9.43,3.5s-0.69-6.06,2.65-9.7c3.34-3.65,9.43-3.5,9.43-3.5
		S49.17,8.8,45.83,12.44z"/>
	<path class="st0" d="M30.66,14.75c-1.6-1.46-1.53-4.13-1.53-4.13s2.66-0.3,4.25,1.16s1.53,4.13,1.53,4.13S32.26,16.21,30.66,14.75z
		"/>
</g>
</svg>
