<?xml version="1.0" encoding="utf-8"?>
<!-- Generator: Adobe Illustrator 26.5.2, SVG Export Plug-In . SVG Version: 6.00 Build 0)  -->
<svg version="1.1" id="Layer_1" xmlns="http://www.w3.org/2000/svg" xmlns:xlink="http://www.w3.org/1999/xlink" x="0px" y="0px"
	 viewBox="0 0 283.27 154.33" style="enable-background:new 0 0 283.27 154.33;" xml:space="preserve">
<style type="text/css">
	.st0{fill:#003B4A;}
</style>
<path class="st0" d="M125.83,120.13c-0.5-0.5-1.5-1.4-2.6-0.7c-1.4,0.9-2.3-0.5-1.7-1.2c0.6-0.7,1.4-0.6,2.4-1.2s1.1-1.7,1-2.3
	s0.8-1.2,1.6-1.5c0.8-0.3,2.4-1.1,2.3-3c0,0-17.2,8.2-16.6,15.2c0,0,0,0.1,0.1,0.1c4.5-1.9,11.2-4.7,13.6-5.1
	C125.93,120.43,125.93,120.23,125.83,120.13z"/>
<path class="st0" d="M126.43,121.03c0-0.2-0.2-0.4-0.4-0.3c-3.1,0.9-11.6,4.2-13.2,4.9v0.1c5.2-0.4,11.4-2.8,12.7-3.7
	C126.03,121.73,126.33,121.43,126.43,121.03z"/>
<path class="st0" d="M154.13,92.83c-3.2-1.5-6.6-0.1-8.6,1.3c-0.5,0.3-0.8,0.8-1,1.3c-1.4,3.5-3.8,5.3-4.9,5.8
	c-1.2,0.6-3.2,2.1-4.8,4.2c-2.7,3.4-5.8,4.7-5.8,4.7s0,0.7-0.1,1.2c-0.2,1.2-2,2-2.8,2.4s-1,0.7-0.9,1.2c0,0.1,0,0.2,0,0.3
	c0.1,0.8-0.3,1.5-0.9,1.9s-1.3,0.7-1.9,0.9c-0.8,0.2-0.9,0.8-0.5,1.1s1.1-0.1,1.7-0.4s1.4,0,1.7,0.2c0.3,0.2,0.7,0.6,1,0.9
	c0.3,0.3,1,0.1,1.3,0c1.5-0.4,4.1-1,4.4-1c0.4-0.1,2,0,3.2-0.4c1-0.3,3.2,0.2,4.1,0.3c0.2,0,0.6-0.1,1.1-0.1
	c1.3,0.2,2.9,0.4,3.1,0.4c0.3,0.1,1.7,0.2,2.4,0.4c0.8,0.2,1,0.4,0.9,0.6c-0.9,1.1-1.7,1.1-2.4,1c-0.5-0.1-1.7-0.4-1.6-0.9
	c0-0.2,0.2-0.4,0.4-0.5c0.1-0.1,0.1-0.2,0-0.2c-0.7-0.1-2-0.3-2.4-0.3c-0.6-0.1-1,0.2-1.4,0.1c-0.4-0.1-1.5-0.3-2.3-0.4
	c-0.8-0.1-1.6,0-1.9,0.1c-0.4,0-1.1,0.3-1.9,0.3s-2.4,0.1-4,0.6c-1.6,0.4-2.7,0.7-2.7,0.7c0.3,0.3,0.2,0.7,0,1.1
	c-0.1,0.1,0.1,0.3,0.2,0.3c1.2-0.4,4.5-1.3,7.5-0.6c2.5,0.6,7.3,0.4,8.4,0.4c1.2,0,5.7,0.5,6.5,0.7c2.3,0.4,3.8-1.3,5.1-1.7
	c0.1,0,0.2-0.2,0.2-0.3s-0.1-0.1-0.3-0.1c-0.6,0-0.9-0.2-0.9-0.5s0.4-0.5,0.9-0.4c0.6,0.2,1.4-0.1,1.2-0.7c0-0.1-0.2-0.2-0.4-0.2
	c-0.3,0-0.9,0.1-1.4,0.2c-0.7,0.1-1.4,0.7-2.1,0.9c-0.7,0.2-1.7,0.1-2.2-0.1s-1.8-0.7-3.5-0.5c0,0,2.2-0.8,3.2-0.8
	c0.6,0,1.3,0.2,1.8,0.4c0.7,0.3,1.5-0.2,1.8-0.9c0.3-0.6,0.3-0.9,0.1-1.7c0.8,1.2,0.3,1.6,0,2.3c-0.1,0.2,0.1,0.3,0.3,0.3
	c0.4-0.2,1-0.4,1.5-0.4c0.2,0,0.4-0.3,0.3-0.5c-0.4-1.2,0-2.1,0.3-3.1c-2.1-0.7-1.8-2.1-1.8-2.1c-0.6,0.2-1,0.8-1.3,1.4
	c-0.2,0.5-0.4,1-0.5,1.5c-0.3,1.8-1.6,1.7-2.1,1.8c-0.1,0-0.3,0-0.6-0.1c-1-0.4-1.8-1.3-2-2.4c-0.4-2.2-2.1-3.1-3.1-3.5
	c-0.2-0.1-0.3,0.2-0.1,0.2c4.1,2.9,1.1,6.4-1.3,5.8c1.3,1,3.7,0.4,4.3-0.4c-0.2,1.9-2.8,1.5-3.1,1.5c-0.7-0.1-2-0.2-2-0.2l-7.2-0.6
	c-0.3,0-0.4-0.3-0.3-0.5c0.5-1,1.5-3.2,1.8-3.6c0.4-0.5,1.2-0.5,1.4-0.1c1.5,3,3.9,3,3.9,3c-4.5-2.4-2.3-7.5-0.7-8.6
	c3.5-2.6,9-1.2,10.6-0.1c1.5,1,2.8,3.5,2.9,5.2c0,0.1,0.1,0.2,0.2,0.1l0,0c0.3-0.1,0.6-0.3,0.9-0.5c0.3-0.2,0.5-0.5,0.8-0.8l0.2-0.2
	l0.2-0.2c0.1-0.2,0.3-0.3,0.5-0.4c0.3-0.3,0.7-0.4,1.1-0.5c0.4-0.1,0.8-0.2,1.2-0.2c0.1,0,0.1,0,0.1,0.1s0,0.1-0.1,0.1l0,0
	c-0.7,0.1-1.5,0.4-2,0.9c-0.1,0.1-0.2,0.2-0.3,0.4l-0.1,0.1l-0.1,0.1l-0.1,0.3c-0.2,0.3-0.5,0.7-0.7,1c-0.3,0.3-0.6,0.5-0.9,0.8
	c1.1,0.4,2.6-0.4,3-1.1c0.5-0.8,0.6-0.8,1.7-1.3c1.1-0.5,1.5-0.9,2.2-2s1.2-1.4,1.2-1.4s0.3-0.3,0.6-1.1
	C164.73,99.63,157.03,94.03,154.13,92.83z M133.53,115.23c-0.5,0.6-1.5,1.4-2.8,1.8c-0.9,0.3-2,0.2-2.8-0.3c-0.5-0.3-1-0.9-1.5-1.7
	c-0.1-0.2,0-0.4,0.1-0.4c0.3-0.1,1.1-0.2,1.6-0.8c1-1,1.7-2.2,3-2.5c1.1-0.3,3.2,0.3,3,2.4
	C134.23,114.23,133.93,114.83,133.53,115.23z M143.23,103.13c-0.3,0.1-0.5,0.1-0.7,0.2c-0.2,0.1-0.4,0.3-0.6,0.5
	c-0.4,0.4-0.7,0.8-1,1.2s-0.7,0.9-1.2,1.2c-0.1,0.1-0.2,0.2-0.3,0.2l-0.2,0.1l-0.2,0.1c-0.2,0.1-0.4,0.3-0.5,0.5s-0.2,0.4-0.3,0.6
	c0,0.2,0,0.5,0,0.7c0,0.1,0,0.2,0.1,0.4c0,0.1,0,0.3,0,0.4c0,0.3-0.1,0.6-0.2,0.8c-0.1,0.3-0.2,0.5-0.4,0.7s-0.4,0.4-0.6,0.5
	c0.4-0.4,0.7-0.8,0.8-1.3c0.1-0.2,0.1-0.5,0.1-0.8c0-0.1,0-0.2,0-0.4c0-0.1-0.1-0.2-0.1-0.4c-0.1-0.3-0.1-0.6,0-0.9
	c0-0.3,0.2-0.6,0.4-0.9c0.2-0.2,0.4-0.4,0.7-0.6l0.2-0.1l0.2-0.1c0.1-0.1,0.2-0.1,0.3-0.2c0.4-0.3,0.8-0.6,1.2-1l0.5-0.6
	c0.2-0.2,0.4-0.4,0.6-0.6c0.2-0.2,0.5-0.4,0.7-0.5c0.3-0.1,0.5-0.2,0.8-0.2c0.5,0,1.1,0,1.6,0.2
	C144.33,103.03,143.73,103.03,143.23,103.13z"/>
<path class="st0" d="M134.83,105.03c1-1.9,3.6-3.7,4.3-4.1c2.9-1.1,5-5.7,5-5.7c-1.6,0.3-3,1.7-3.7,2.8c-0.7,1-1.8,1.9-3.6,3.7
	C135.03,103.43,134.93,104.13,134.83,105.03z"/>
<path class="st0" d="M162.03,109.83c-0.4,0.5-1,1.3-1.9,1.8c-0.5,0.2-1.1,0.5-1.3,0.8c1.1,0,1.2,0.2,1.5,0.5s2.3-0.4,2.5-2
	c0.1-1.2,0.2-1.9,0.5-2.7C163.33,108.13,162.63,108.73,162.03,109.83z"/>
<path class="st0" d="M73.83,101.63l14.8,14.7l0.6-1.2c-0.7-0.7-3.1-3.1-3.1-3.1c1-2.1,2-4.2,3-6.4l4.4,0.4l2.3-4.8l-20.9-1.6
	L73.83,101.63z M78.63,104.53l9,0.8l-2.6,5.5C82.73,108.73,80.73,106.53,78.63,104.53C78.63,104.43,78.53,104.63,78.63,104.53z"/>
<path class="st0" d="M100.13,70.33l-1.3,1.1l8.4,10.3c1.8,2.2,2,4.3,0.2,5.8c-2,1.6-3.8,0.8-5.6-1.4l-8.4-10.3l-3.6,2.9l8,9.9
	c2.8,3.4,6.2,3.8,9.6,1.1c3.7-3,3.5-6.1,0.8-9.5L100.13,70.33z"/>
<path class="st0" d="M131.33,78.53c4.6-0.9,7.9-4.7,6.6-11.2l-0.4-1.9c-2.7,0.5-5.1,1-7.7,1.6l-2.3,0.4l0.4,1.8l5.3-1.1
	c1,4.8,1,8.4-2.1,9c-2.8,0.6-4.9-3-5.8-7.6c-1-4.9-0.6-8.4,2.6-9c2.5-0.5,4.1,1.9,4.2,2c0.4-0.7,1-1.6,1.6-2.5
	c-1.2-0.7-3.2-1.5-6.1-0.9c-5,1-8.8,5.1-7.5,11.5C121.33,76.53,125.83,79.63,131.33,78.53z"/>
<path class="st0" d="M167.13,62.33l-3.7,12.7c-0.8,2.7-2.4,4.1-4.6,3.4c-2.5-0.7-2.9-2.7-2.1-5.4l3.7-12.7l-4.4-1.3l-3.6,12.2
	c-1.2,4.2,0.3,7.2,4.5,8.5c4.5,1.3,7-0.5,8.2-4.8l3.6-12.2L167.13,62.33z"/>
<path class="st0" d="M193.63,86.93c3-3.2-0.1-7.8-3.5-10.8l0,0l-3.4-3.1l-13.2,14.3l3.4,3.1l5.6-6.1c0.2,0.2,0.5,0.4,0.7,0.6
	l-2.2,9.3l3.7,3.4l2.2-10.1C189.33,88.73,191.73,88.93,193.63,86.93z M183.33,83.43l5.9-6.4c2.7,2.5,2.9,4.9,1,7
	C188.53,85.93,186.13,85.93,183.33,83.43z"/>
<polygon class="st0" points="204.13,109.43 209.33,101.83 207.53,97.23 201.23,106.63 191.73,110.33 193.43,114.63 203.23,110.73 
	213.63,112.83 212.93,111.13 "/>
<path class="st0" d="M81.93,140.93L81.93,140.93L81.93,140.93c0.6-0.3,0.9-0.9,1-1.5c0.1-0.4,0-0.8-0.2-1.2c-0.3-0.6-0.7-1-1.3-1.1
	c-0.3-0.1-0.7-0.2-1.1-0.2c-0.3,0-0.6,0-0.9,0c-0.4,0-0.7,0-1.1,0s-1.3,0-1.6,0l0,0h-0.4v0.6l0,0v0.1c0,0.2,0,0.5,0,0.7
	c0,0.6,0,1.2,0,1.8c0,0.3,0,0.5,0,0.8v0.2c0,0.2,0,0.5,0,0.7c0,0.1,0,0.2,0,0.3s0,0.2,0,0.3c0,0.7,0,1.3,0,2v0.2l0,0v0.5h0.3l0,0
	c0.1,0,0.1,0,0.3,0l0,0c0.5,0,1.4,0,1.9,0h0.5c0.2,0,0.4,0,0.6,0c0.4,0,0.8,0,1.3,0c0.5-0.1,0.9-0.2,1.3-0.5
	c0.3-0.2,0.5-0.5,0.6-0.9c0.2-0.6,0.2-1.2,0-1.8C82.73,141.33,81.93,140.93,81.93,140.93z M78.03,138.73L78.03,138.73L78.03,138.73
	c0.1,0,0.1,0,0.2,0l0,0c0.3,0,0.7,0,1,0h0.6h0.1c0.1,0,0.2,0,0.2,0c0.1,0,0.3,0,0.4,0.1c0.2,0,0.3,0.1,0.4,0.3
	c0.1,0.3,0.1,0.6-0.1,0.9c-0.2,0.2-0.4,0.4-0.7,0.4l0,0c-0.2,0-0.5,0-0.7,0s-0.4,0-0.6,0l0,0c-0.3,0-0.6,0-0.8,0c0,0,0,0-0.1,0
	L78.03,138.73L78.03,138.73z M81.33,143.13c-0.2,0.3-0.4,0.5-0.8,0.5l0,0c-0.5,0-1,0-1.5,0c-0.4,0-0.7,0-1.1,0c0,0,0,0-0.1,0
	c0-0.4,0-0.9,0-1.2c0-0.2,0-0.4,0-0.6l0,0h0.2c0.5,0,0.9,0,1.4,0h0.1c0.3,0,0.5,0,0.8,0c0.4,0,0.6,0.3,0.8,0.6
	C81.53,142.53,81.53,142.83,81.33,143.13z"/>
<path class="st0" d="M95.33,143.63h-0.2c0,0,0,0-0.1,0l0,0c-0.1,0-0.1,0-0.2,0s-2.3,0-2.4,0c-0.5,0-1,0-1.7,0h-0.1c0,0,0,0,0-0.1
	v-0.1v-0.1c0-0.4,0-1.1,0-1.5v-0.1l0,0c0.5,0,1,0,1.6,0h1c0.1,0,0.2,0,0.3,0l0,0h0.5v-0.2c0-0.1,0-0.1,0-0.2l0,0v-0.1l0,0l0,0
	c0-0.2,0-1,0-1h-0.5c-0.2,0-0.4,0-0.6,0c-0.1,0-0.3,0-0.4,0s-0.3,0-0.4,0h-0.1c-0.2,0-0.5,0-0.7,0c-0.1,0-0.1,0-0.2,0
	c-0.2,0-0.4,0-0.5,0c0-0.1,0-1.5,0-1.5h0.1c0.1,0,0.2,0,0.3,0c0.4,0,0.8,0,1.2,0h0.8c0.4,0,0.7,0,1.1,0c0.2,0,0.3,0,0.5,0l0,0h0.6
	v-0.9c0-0.1,0-0.6,0-0.7v-0.1c0,0-0.2,0-0.3,0c0,0-0.2,0-0.4,0c-0.9,0-2.8,0-3.7,0c-0.2,0-0.5,0-0.7,0c-0.3,0-0.6,0-1,0l0,0
	c0,0-0.1,0-0.2,0h-0.2v0.6c0,0.3,0,0.6,0,0.9c0,0.4,0,0.7,0,1.1c0,0.4,0,0.7,0,1c0,0.4,0,0.8,0,1.2s0,0.8,0,1.2c0,0.2,0,0.4,0,0.6
	c0,0.1,0,0.2,0,0.3l0,0v1.1h0.4c0,0,0,0,0.1,0s0.1,0,0.2,0c0.3,0,0.6,0,0.9,0c0.2,0,0.5,0,0.7,0s0.4,0,0.6,0c0.3,0,0.5,0,0.8,0
	c0.4,0,0.8,0,1.2,0c0.3,0,0.5,0,0.8,0c0.1,0,0.1,0,0.2,0s0.2,0,0.4,0h0.1c0,0,0.1-1,0.1-1.1s0-0.1,0-0.1L95.33,143.63L95.33,143.63z
	"/>
<path class="st0" d="M106.73,137.03L106.73,137.03c-0.1,0.2-0.1,0.2-0.1,0.3v0.1c-0.1,0.3-0.2,0.5-0.3,0.8c-0.1,0.3-0.2,0.6-0.3,0.9
	c-0.1,0.2-0.2,0.4-0.2,0.6c-0.1,0.2-0.1,0.6-0.2,0.9v0.1c-0.1,0.4-0.3,0.9-0.4,1.2c-0.1,0.2-0.2,0.4-0.2,0.7v0.1
	c0-0.1,0-0.1-0.1-0.1c0-0.1-0.1-0.2-0.1-0.2c0-0.1-0.1-0.2-0.2-0.4s-0.2-0.5-0.2-0.7c-0.2-0.5-0.5-1.2-0.8-1.9
	c-0.2-0.5-0.4-1-0.6-1.5l-0.2-0.5c0-0.1,0-0.1-0.1-0.2c0-0.1-0.1-0.1-0.1-0.2l0,0v-0.1h-2l0.1,0.2c0.1,0.2,0.2,0.4,0.3,0.6
	c0.1,0.1,0.1,0.3,0.2,0.4c0.1,0.2,0.2,0.4,0.3,0.6c0.1,0.2,0.2,0.5,0.3,0.7c0.1,0.3,0.3,0.6,0.4,0.9c0.1,0.2,0.1,0.4,0.2,0.5
	c0.1,0.3,0.3,0.7,0.4,1c0.2,0.4,0.4,0.9,0.6,1.3c0.1,0.3,0.2,0.6,0.4,0.8l0.1,0.3c0,0.1,0.1,0.2,0.1,0.3c0,0,0,0,0,0.1l0,0l0,0
	l0.1,0.3h1.7l0.2-0.4l0,0l0.1-0.3c0.1-0.1,0.1-0.3,0.2-0.5l0,0c0.1-0.2,0.2-0.4,0.3-0.7c0.1-0.3,0.2-0.6,0.3-0.9
	c0.1-0.2,0.2-0.5,0.3-0.7c0-0.1,0.1-0.2,0.1-0.3s0.1-0.2,0.1-0.3c0.1-0.2,0.1-0.3,0.2-0.5c0.1-0.4,0.3-0.7,0.4-1.1
	c0-0.1,0-0.1,0.1-0.2v-0.1c0-0.1,0.1-0.2,0.1-0.3c0.1-0.3,0.2-0.6,0.3-0.9c0.1-0.2,0.1-0.3,0.2-0.5c0-0.1,0.1-0.2,0.1-0.3
	s0-0.1,0-0.2v-0.1L106.73,137.03L106.73,137.03z"/>
<path class="st0" d="M120.33,143.63h-0.2c0,0,0,0-0.1,0l0,0c-0.1,0-0.1,0-0.2,0s-2.3,0-2.4,0c-0.5,0-1,0-1.7,0h-0.1c0,0,0,0,0-0.1
	v-0.1v-0.1c0-0.4,0-1.1,0-1.5v-0.1l0,0c0.5,0,1,0,1.6,0h1c0.1,0,0.2,0,0.3,0l0,0h0.5v-0.2c0-0.1,0-0.1,0-0.2l0,0v-0.1l0,0l0,0
	c0-0.2,0-1,0-1h-0.5c-0.2,0-0.4,0-0.6,0c-0.1,0-0.3,0-0.4,0s-0.3,0-0.4,0h-0.1c-0.2,0-0.5,0-0.7,0c-0.1,0-0.1,0-0.2,0
	c-0.2,0-0.4,0-0.5,0c0-0.1,0-1.5,0-1.5h0.1c0.1,0,0.2,0,0.3,0c0.4,0,0.8,0,1.2,0h0.8c0.4,0,0.7,0,1.1,0c0.2,0,0.3,0,0.5,0l0,0h0.6
	v-0.9c0-0.1,0-0.6,0-0.7v-0.1c0,0-0.2,0-0.3,0c0,0-0.2,0-0.4,0c-0.9,0-2.8,0-3.7,0c-0.2,0-0.5,0-0.7,0c-0.3,0-0.6,0-1,0l0,0
	c0,0-0.1,0-0.2,0l0,0v0.6c0,0.3,0,0.6,0,0.9c0,0.4,0,0.7,0,1.1c0,0.4,0,0.7,0,1c0,0.4,0,0.8,0,1.2s0,0.8,0,1.2c0,0.2,0,0.4,0,0.6
	c0,0.1,0,0.2,0,0.3l0,0v1.1h0.4c0,0,0,0,0.1,0s0.1,0,0.2,0c0.3,0,0.6,0,0.9,0c0.2,0,0.5,0,0.7,0s0.4,0,0.6,0c0.3,0,0.5,0,0.8,0
	c0.4,0,0.8,0,1.2,0c0.3,0,0.5,0,0.8,0c0.1,0,0.1,0,0.2,0s0.2,0,0.4,0h0.1c0,0,0.1-1,0.1-1.1s0-0.1,0-0.1L120.33,143.63
	L120.33,143.63z"/>
<path class="st0" d="M131.73,142.73c0.5-0.2,0.9-0.5,1.2-0.9c0.3-0.4,0.5-0.7,0.5-1.1c0.1-0.6,0.1-1.2-0.1-1.8s-0.6-1.1-1.2-1.4
	c-0.5-0.3-1-0.4-1.6-0.5h-3c-0.5,0-0.8,0-1,0l0,0c-0.1,0-0.1,0-0.2,0h-0.1h-0.1v0.1c0,0.2,0,0.4,0,0.7c0,0.2,0,0.5,0,0.7v0.1l0,0
	c0,0.1,0,0.2,0,0.2c0,0.2,0,0.3,0,0.5s0,0.5,0,0.7c0,0.4,0,0.8,0,1.2c0,0.1,0,0.2,0,0.3c0,0.2,0,0.3,0,0.5s0,0.4,0,0.5
	c0,0.2,0,0.5,0,0.7c0,0.4,0,0.7,0,1.1l0,0v0.6h1.6l0,0l0,0l0,0v-0.1l0,0v-0.1c0-0.5,0-0.9,0-1.3c0-0.1,0-0.2,0-0.3s0-0.2,0-0.3l0,0
	c0.1,0,0.2,0,0.3,0c0.2,0,0.5,0,0.6,0s0.1,0,0.3,0.2c0.3,0.3,0.5,0.5,0.7,0.8c0.1,0.1,0.2,0.2,0.2,0.2c0.1,0.1,0.3,0.3,0.4,0.4
	c0.2,0.2,0.5,0.4,0.7,0.7l0,0l0,0h2.4l-0.2-0.2c0,0,0-0.1-0.1-0.1l0,0l-0.1-0.1c-0.3-0.3-0.7-0.6-1-0.9l-0.1-0.1
	c-0.1-0.1-0.3-0.2-0.4-0.4c0-0.1-0.1-0.1-0.2-0.1c0,0,0,0-0.1-0.1c0,0-0.2-0.1-0.3-0.2C131.23,142.83,131.53,142.83,131.73,142.73
	L131.73,142.73z M130.93,141.33L130.93,141.33h-0.1c-0.1,0-0.1,0-0.2,0c-0.2,0-0.4,0-0.6,0.1c-0.5,0-1,0-1.5,0c-0.1,0-0.3,0-0.4,0
	s-0.3,0-0.4,0c0-0.1,0-0.2,0-0.3c0-0.3,0-0.6,0-0.9c0-0.2,0-0.5,0-0.7s0-0.5,0-0.8l0,0h0.2c0.7,0,1.4,0,2.1,0c0.2,0,0.4,0,0.5,0.1
	c0.4,0.1,0.6,0.2,0.8,0.5c0.3,0.4,0.3,0.8,0.1,1.3C131.43,140.93,131.23,141.23,130.93,141.33z"/>
<path class="st0" d="M146.33,144.13c0-0.1-0.1-0.2-0.1-0.3s-0.1-0.2-0.1-0.3s-0.1-0.2-0.2-0.4c-0.1-0.3-0.3-0.6-0.4-0.9
	c-0.1-0.3-0.2-0.6-0.3-0.9c-0.1-0.3-0.2-0.6-0.4-0.9c-0.2-0.4-0.3-0.8-0.5-1.2s-0.3-0.7-0.5-1.1c-0.1-0.2-0.2-0.5-0.3-0.7v-0.1
	c0-0.1-0.1-0.2-0.1-0.2v-0.1h-0.3h-0.1c-0.3,0-0.5,0-0.8,0h-0.1c0,0,0,0-0.1,0h-0.1l-0.1,0.2c0,0.1-0.1,0.2-0.1,0.3
	c-0.1,0.1-0.1,0.3-0.2,0.4c-0.1,0.3-0.2,0.6-0.4,0.9c-0.1,0.3-0.3,0.6-0.4,0.9c-0.1,0.2-0.2,0.3-0.2,0.5l0,0c0,0.1-0.1,0.2-0.1,0.4
	c-0.1,0.3-0.3,0.6-0.4,0.9c-0.1,0.2-0.2,0.5-0.3,0.8c0,0.1-0.2,0.4-0.3,0.7c-0.4,1-0.6,1.5-0.7,1.7l-0.1,0.4h0.3l0,0l0,0
	c0.5,0,0.9,0,1.1,0l0,0h0.1l0,0h0.3l0.2-0.5c0-0.1,0.1-0.2,0.1-0.3c0.1-0.1,0.1-0.3,0.2-0.5s0.1-0.3,0.2-0.5c0-0.1,0-0.1,0.1-0.1
	c0.2,0,0.3,0,0.5,0s0.3,0,0.5,0c0.1,0,0.3,0,0.4,0c0.1,0,0.3,0,0.5,0c0.4,0,0.8,0,1.1,0c0.1,0,0.1,0,0.1,0.1s0.1,0.2,0.1,0.3
	c0.2,0.5,0.4,1,0.5,1.3v0.1v0.1h0.4c0.1,0,0.3,0,0.5,0c0.1,0,0.3,0,0.4,0h0.6l-0.2-0.4C146.53,144.53,146.43,144.33,146.33,144.13z
	 M143.63,141.83h-0.4c-0.4,0-1,0-1.4,0c-0.1,0-0.1,0-0.2,0c0,0,0-0.1,0.1-0.2c0.1-0.3,0.9-2.5,1-2.7c0,0.1,0.5,1.6,0.6,1.8
	c0,0.1,0.1,0.2,0.1,0.3c0.1,0.2,0.2,0.4,0.2,0.6C143.63,141.73,143.63,141.73,143.63,141.83L143.63,141.83z"/>
<path class="st0" d="M159.63,143.63c0-0.1,0-0.2,0-0.2c0-0.2,0-0.5,0-0.7c0-0.1,0-0.1,0-0.2c0-0.1,0-0.1,0-0.1c0-0.2,0-0.3,0-0.5
	c0-0.1,0-0.2,0-0.3s0-0.2,0-0.4v-0.1c0-0.1,0-0.2,0-0.3v-0.1h-0.1c-0.2,0-0.5,0-0.7,0c-0.1,0-0.2,0-0.3,0c-0.3,0-0.7,0-1,0
	c-0.1,0-0.3,0-0.4,0c-0.2,0-0.4,0-0.6,0c-0.2,0-0.5,0-0.7,0c-0.1,0-0.2,0-0.3,0h-0.1v0.1v0.1v0.1c0,0.3,0,0.5,0,0.9
	c0,0.1,0,0.1,0,0.2c0,0,0,0,0,0.1v0.1h0.1c0.1,0,0.2,0,0.3,0c0.2,0,0.4,0,0.6,0c0.1,0,0.3,0,0.4,0c0.2,0,0.3,0,0.5,0
	c0.1,0,0.3,0,0.4,0c0.1,0,0.3,0,0.5,0c0,0.1-0.1,0.6-0.2,0.8c-0.3,0.3-0.6,0.5-1,0.7s-0.9,0.2-1.4,0.1c-0.8,0-1.4-0.5-1.9-1.1
	c-0.4-0.5-0.5-1.1-0.5-1.6v-0.1c0-0.1,0-0.2,0-0.4l0,0c0-0.3,0-0.4,0.1-0.6c0.1-0.3,0.2-0.5,0.4-0.7l0,0c0-0.1,0.1-0.1,0.1-0.2
	c0.3-0.4,0.8-0.6,1.3-0.7c0.4-0.1,0.8-0.1,1.2-0.1c0.6,0.1,1.2,0.3,1.5,0.7l0.1,0.1l0,0l0,0l0.3,0.3l0.4-0.4l0,0
	c0.1-0.1,0.2-0.2,0.3-0.3l0.1-0.1c0.1-0.1,0.2-0.2,0.3-0.3l0.1-0.1l-0.1-0.1l-0.1-0.1c-0.1-0.1-0.1-0.1-0.2-0.2
	c-0.1-0.1-0.2-0.3-0.4-0.4c-0.3-0.2-0.6-0.4-1-0.6c-0.5-0.2-0.9-0.3-1.3-0.3c-0.5,0-1,0-1.4,0.1c-0.6,0.1-1.1,0.3-1.7,0.7
	c-0.4,0.2-0.7,0.6-1,1c-0.5,0.6-0.8,1.4-0.8,2.2c0,0.3,0,0.5,0,0.7c0.1,0.6,0.2,1.1,0.5,1.6c0.2,0.3,0.3,0.6,0.5,0.8
	c0.4,0.4,0.8,0.7,1.2,0.9c0.6,0.3,1.3,0.5,2,0.5c0,0,0,0,0.1,0c0.3,0,0.5,0,0.8-0.1c0.4-0.1,1-0.2,1.6-0.8l0,0l0,0
	c0,0.1,0.2,0.6,0.2,0.6h0.1l0,0h0.1c0.3,0,0.2,0,0.6,0h0.5L159.63,143.63C159.63,143.93,159.63,143.83,159.63,143.63z"/>
<path class="st0" d="M171.83,143.63h-0.2c0,0,0,0-0.1,0l0,0c-0.1,0-0.1,0-0.2,0c-0.1,0-2.3,0-2.4,0c-0.5,0-1,0-1.7,0h-0.1
	c0,0,0,0,0-0.1v-0.1v-0.1c0-0.4,0-1.1,0-1.5v-0.1l0,0c0.5,0,1,0,1.6,0h1c0.1,0,0.2,0,0.3,0l0,0h0.5v-0.2c0-0.1,0-0.1,0-0.2l0,0v-0.1
	l0,0l0,0c0-0.2,0-1,0-1h-0.5c-0.2,0-0.4,0-0.6,0c-0.2,0-0.3,0-0.4,0c-0.1,0-0.3,0-0.4,0h-0.1c-0.2,0-0.5,0-0.7,0c-0.1,0-0.1,0-0.2,0
	c-0.2,0-0.4,0-0.5,0c0-0.1,0-1.5,0-1.5h0.1c0.1,0,0.2,0,0.3,0c0.4,0,0.8,0,1.2,0h0.8c0.4,0,0.7,0,1.1,0c0.2,0,0.3,0,0.5,0l0,0h0.6
	v-0.9c0-0.1,0-0.6,0-0.7v-0.1c0,0-0.2,0-0.3,0c0,0-0.2,0-0.4,0c-0.8,0-2.8,0-3.7,0c-0.2,0-0.5,0-0.7,0c-0.3,0-0.6,0-1,0l0,0
	c0,0-0.1,0-0.2,0h-0.2v0.6c0,0.3,0,0.6,0,0.9c0,0.4,0,0.7,0,1.1c0,0.4,0,0.7,0,1c0,0.4,0,0.8,0,1.2s0,0.8,0,1.2c0,0.2,0,0.4,0,0.6
	c0,0.1,0,0.2,0,0.3l0,0v1.1h0.4c0,0,0,0,0.1,0s0.2,0,0.2,0c0.3,0,0.6,0,0.9,0c0.2,0,0.5,0,0.7,0s0.4,0,0.6,0c0.3,0,0.5,0,0.8,0
	c0.4,0,0.8,0,1.2,0c0.3,0,0.5,0,0.8,0c0.1,0,0.2,0,0.2,0c0.1,0,0.2,0,0.3,0h0.1c0,0,0.1-1,0.1-1.1s0-0.1,0-0.1L171.83,143.63
	L171.83,143.63z"/>
<path class="st0" d="M192.93,137.43c-0.9-0.4-1.7-0.6-2.6-0.5c-0.3,0-0.6,0.1-0.8,0.1c-0.4,0.1-0.8,0.2-1.2,0.4s-0.7,0.5-1,0.8
	c-0.4,0.4-0.6,0.8-0.8,1.2c-0.2,0.6-0.4,1.1-0.3,1.6c0,0.2,0,0.4,0,0.5v0.1c0,0.4,0.2,0.9,0.4,1.3c0.6,1.1,1.5,1.8,2.6,2.1
	c0.5,0.1,0.9,0.2,1.3,0.2c0.1,0,0.2,0,0.3,0c0.4,0,0.7,0,1.1-0.1c0.7-0.2,1.4-0.5,2-1l0,0c0.1-0.1,0.2-0.2,0.3-0.4v-0.1v-0.1
	c-0.2-0.2-0.4-0.4-0.6-0.6c-0.1-0.1-0.2-0.2-0.3-0.3l-0.1-0.1l-0.1-0.1l-0.2,0.1l0,0l-0.1,0.1c-0.1,0.1-0.1,0.1-0.2,0.2
	c-0.5,0.4-1.1,0.6-1.8,0.6c-0.4,0-0.8-0.1-1.2-0.2c-0.6-0.2-0.9-0.6-1.2-1.1c-0.2-0.4-0.4-0.8-0.4-1.3c0-0.4,0.1-0.8,0.3-1.2
	c0.1-0.2,0.2-0.4,0.4-0.6c0.5-0.5,1.2-0.7,2-0.7c0.2,0,0.5,0,0.7,0.1c0.6,0.1,1.1,0.4,1.5,0.8c0,0,0,0.1,0.1,0.1l0.1,0.1
	c0,0,0,0,0.1,0.1l0.1,0.1l0.2-0.2l0,0l0.1-0.1l0.1-0.1l0,0c0.2-0.2,0.5-0.4,0.7-0.6l0.1-0.1l0,0l0.1-0.1l-0.1-0.1
	C194.13,138.13,193.63,137.63,192.93,137.43z"/>
<path class="st0" d="M208.43,140.23c0-0.1,0-0.2,0-0.2c-0.1-0.2-0.2-0.4-0.2-0.6c-0.4-0.9-1-1.5-1.9-1.9c-0.1-0.1-0.2-0.1-0.3-0.1
	h-0.1c-0.5-0.2-1.1-0.3-1.5-0.3c-0.2,0-0.4,0-0.7,0c-0.2,0-0.5,0.1-0.8,0.1c-0.6,0.1-1.1,0.3-1.5,0.6c-0.3,0.2-0.5,0.4-0.7,0.6
	c-0.5,0.5-0.8,1.1-1,1.7c0,0.2-0.1,0.3-0.1,0.5c0,0.1,0,0.1,0,0.2c-0.1,0.4,0,0.9,0,1.3c0.1,0.6,0.4,1.2,0.9,1.8
	c0.3,0.4,0.7,0.7,1.2,1c0.2,0.1,0.5,0.2,0.7,0.3c0.6,0.2,1.1,0.3,1.7,0.3c0.3,0,0.7,0,1.1-0.1c0.6-0.1,1.1-0.4,1.5-0.6
	c0.2-0.1,0.4-0.2,0.5-0.4c0.3-0.2,0.5-0.5,0.8-0.9c0.2-0.4,0.4-0.7,0.5-1.1c0.1-0.4,0.2-0.8,0.2-1.2c0-0.2,0-0.5-0.1-0.7
	C208.43,140.23,208.43,140.23,208.43,140.23z M206.73,141.53c-0.1,0.7-0.5,1.3-1.1,1.7c-0.4,0.3-1,0.5-1.4,0.5l0,0
	c-0.6,0-1-0.1-1.4-0.2c-0.6-0.3-1.1-0.8-1.3-1.4c-0.2-0.4-0.2-0.7-0.2-1.1c0-0.5,0.2-1,0.5-1.4c0.2-0.2,0.4-0.5,0.7-0.7
	c0,0,0,0,0.1-0.1c0.5-0.2,1-0.3,1.4-0.3c0,0,0,0,0.1,0c0.3,0,0.6,0.1,0.8,0.2c0.1,0,0.2,0.1,0.2,0.1c0.1,0,0.1,0.1,0.2,0.1
	c0.6,0.3,1,0.7,1.3,1.4C206.73,140.73,206.83,141.03,206.73,141.53z"/>
<rect x="213.73" y="143.23" class="st0" width="2.1" height="1.9"/>
</svg>
