<?xml version="1.0" encoding="utf-8"?>
<!-- Generator: Adobe Illustrator 26.5.0, SVG Export Plug-In . SVG Version: 6.00 Build 0)  -->
<svg version="1.1" id="Layer_1" xmlns="http://www.w3.org/2000/svg" xmlns:xlink="http://www.w3.org/1999/xlink" x="0px" y="0px"
	 viewBox="0 0 1033.4 337" style="enable-background:new 0 0 1033.4 337;" xml:space="preserve">
<style type="text/css">
	.st0{fill:#003B4A;}
	.st1{fill:#C1B6CD;}
</style>
<g>
	<path class="st0" d="M506.6,212c-0.2-0.2-0.5-0.4-0.8-0.5c-0.2,0-0.4-0.1-0.5-0.1c-0.7,0-1.4,0-2.1,0H503l0,0c0,0.3,0,0.5,0,0.8
		c0,0.2,0,0.5,0,0.7c0,0.3,0,0.6,0,0.9c0,0.1,0,0.2,0,0.3c0.1,0,0.3,0,0.4,0s0.3,0,0.4,0c0.4,0,0.9,0,1.5,0c0.2,0,0.4,0,0.6-0.1
		c0.1,0,0.1,0,0.2,0h0.1l0,0c0.3-0.1,0.6-0.4,0.7-0.7C506.9,212.8,506.9,212.4,506.6,212z"/>
	<path class="st0" d="M517.5,175.8c-0.3,0.1-0.5,0.3-0.7,0.5s-0.4,0.4-0.6,0.6l-0.5,0.6c-0.3,0.4-0.7,0.7-1.2,1
		c-0.1,0.1-0.2,0.1-0.3,0.2l-0.2,0.1l-0.2,0.1c-0.2,0.1-0.5,0.3-0.7,0.6c-0.2,0.2-0.3,0.5-0.4,0.9c-0.1,0.3,0,0.6,0,0.9
		c0,0.1,0.1,0.3,0.1,0.4c0,0.1,0,0.2,0,0.4s0,0.5-0.1,0.8c-0.1,0.5-0.4,1-0.8,1.3c0.2-0.1,0.5-0.3,0.6-0.5c0.2-0.2,0.3-0.5,0.4-0.7
		c0.1-0.3,0.2-0.6,0.2-0.8c0-0.1,0-0.3,0-0.4c0-0.2,0-0.3-0.1-0.4c0-0.2,0-0.5,0-0.7s0.1-0.4,0.3-0.6c0.1-0.2,0.3-0.3,0.5-0.5
		l0.2-0.1l0.2-0.1c0.1-0.1,0.2-0.1,0.4-0.2c0.5-0.3,0.9-0.7,1.2-1.2c0.3-0.4,0.6-0.9,1-1.2c0.2-0.2,0.4-0.3,0.6-0.5
		c0.2-0.1,0.5-0.2,0.7-0.2c0.5-0.1,1.1-0.1,1.6,0c-0.5-0.2-1.1-0.2-1.6-0.2C518,175.7,517.8,175.7,517.5,175.8z"/>
	<path class="st0" d="M565.3,156.7c1.9-2.1,1.7-4.4-1-7l-5.9,6.4C561.2,158.6,563.6,158.6,565.3,156.7z"/>
	<path class="st0" d="M506.4,183.9c-1.2,0.3-2,1.5-3,2.5c-0.6,0.6-1.4,0.7-1.6,0.8s-0.2,0.3-0.1,0.4c0.4,0.9,0.9,1.4,1.5,1.7
		c0.8,0.5,1.9,0.6,2.8,0.3c1.3-0.4,2.2-1.2,2.8-1.8c0.4-0.5,0.7-1,0.8-1.6C509.6,184.2,507.5,183.6,506.4,183.9z"/>
	<path class="st0" d="M518.4,213.8c0-0.1-0.1-0.2-0.1-0.3c-0.1-0.2-0.5-1.7-0.6-1.8c-0.1,0.1-0.9,2.4-1,2.7c0,0.1,0,0.1-0.1,0.2
		c0,0,0.1,0,0.2,0c0.4,0,1,0,1.4,0h0.4c0,0,0,0,0.1,0c0-0.1,0-0.1-0.1-0.1C518.6,214.2,518.5,214,518.4,213.8z"/>
	<path class="st0" d="M453.7,177.2c2.1,2,4.1,4.2,6.4,6.3l2.6-5.5L453.7,177.2C453.6,177.3,453.7,177.1,453.7,177.2z"/>
	<path class="st0" d="M455.6,214.4c-0.3,0-0.5,0-0.8,0h-0.1c-0.5,0-0.9,0-1.4,0h-0.2l0,0c0,0.2,0,0.4,0,0.6c0,0.4,0,0.8,0,1.2
		c0,0,0,0,0.1,0c0.4,0,0.7,0,1.1,0c0.5,0,1,0,1.5,0l0,0c0.3,0,0.6-0.2,0.8-0.5c0.1-0.3,0.1-0.6,0-0.8
		C456.2,214.7,456,214.4,455.6,214.4z"/>
	<path class="st0" d="M453.2,212.9c0.3,0,0.6,0,0.8,0l0,0c0.2,0,0.4,0,0.6,0s0.5,0,0.7,0l0,0c0.3,0,0.5-0.1,0.7-0.4
		c0.2-0.2,0.2-0.6,0.1-0.9c-0.1-0.2-0.2-0.3-0.4-0.3c-0.1,0-0.3,0-0.4-0.1c-0.1,0-0.2,0-0.2,0H455h-0.6c-0.3,0-0.7,0-1,0l0,0
		c-0.1,0-0.1,0-0.2,0l0,0l0,0l0,0V212.9C453.1,212.9,453.1,212.9,453.2,212.9z"/>
	<path class="st0" d="M580.4,211.6c-0.1,0-0.1-0.1-0.2-0.1c-0.1,0-0.2-0.1-0.2-0.1c-0.2-0.1-0.5-0.1-0.8-0.2c0,0,0,0-0.1,0
		c-0.5,0-0.9,0.1-1.4,0.3c0,0-0.1,0-0.1,0.1c-0.3,0.2-0.5,0.4-0.7,0.7c-0.3,0.4-0.5,0.9-0.5,1.4c0,0.4,0.1,0.7,0.2,1.1
		c0.3,0.6,0.7,1.1,1.3,1.4c0.4,0.2,0.8,0.2,1.4,0.2l0,0c0.5,0,1-0.2,1.4-0.5c0.7-0.4,1-1,1.1-1.7c0.1-0.5,0-0.8-0.1-1.2
		C581.4,212.3,581,211.8,580.4,211.6z"/>
	<path class="st1" d="M500.9,192.8c-0.5-0.5-1.5-1.4-2.6-0.7c-1.4,0.9-2.3-0.5-1.7-1.2c0.6-0.7,1.4-0.6,2.4-1.2s1.1-1.7,1-2.3
		s0.8-1.2,1.6-1.5c0.8-0.3,2.4-1.1,2.3-3c0,0-17.2,8.2-16.6,15.2c0,0,0,0.1,0.1,0.1c4.5-1.9,11.2-4.7,13.6-5.1
		C501,193.1,501,192.9,500.9,192.8z"/>
	<path class="st1" d="M501.5,193.7c0-0.2-0.2-0.4-0.4-0.3c-3.1,0.9-11.6,4.2-13.2,4.9v0.1c5.2-0.4,11.4-2.8,12.7-3.7
		C501.1,194.4,501.4,194.1,501.5,193.7z"/>
	<path class="st1" d="M529.2,165.5c-3.2-1.5-6.6-0.1-8.6,1.3c-0.5,0.3-0.8,0.8-1,1.3c-1.4,3.5-3.8,5.3-4.9,5.8
		c-1.2,0.6-3.2,2.1-4.8,4.2c-2.7,3.4-5.8,4.7-5.8,4.7s0,0.7-0.1,1.2c-0.2,1.2-2,2-2.8,2.4s-1,0.7-0.9,1.2c0,0.1,0,0.2,0,0.3
		c0.1,0.8-0.3,1.5-0.9,1.9s-1.3,0.7-1.9,0.9c-0.8,0.2-0.9,0.8-0.5,1.1s1.1-0.1,1.7-0.4s1.4,0,1.7,0.2c0.3,0.2,0.7,0.6,1,0.9
		c0.3,0.3,1,0.1,1.3,0c1.5-0.4,4.1-1,4.4-1c0.4-0.1,2,0,3.2-0.4c1-0.3,3.2,0.2,4.1,0.3c0.2,0,0.6-0.1,1.1-0.1
		c1.3,0.2,2.9,0.4,3.1,0.4c0.3,0.1,1.7,0.2,2.4,0.4c0.8,0.2,1,0.4,0.9,0.6c-0.9,1.1-1.7,1.1-2.4,1c-0.5-0.1-1.7-0.4-1.6-0.9
		c0-0.2,0.2-0.4,0.4-0.5c0.1-0.1,0.1-0.2,0-0.2c-0.7-0.1-2-0.3-2.4-0.3c-0.6-0.1-1,0.2-1.4,0.1c-0.4-0.1-1.5-0.3-2.3-0.4
		c-0.8-0.1-1.6,0-1.9,0.1c-0.4,0-1.1,0.3-1.9,0.3s-2.4,0.1-4,0.6c-1.6,0.4-2.7,0.7-2.7,0.7c0.3,0.3,0.2,0.7,0,1.1
		c-0.1,0.1,0.1,0.3,0.2,0.3c1.2-0.4,4.5-1.3,7.5-0.6c2.5,0.6,7.3,0.4,8.4,0.4c1.2,0,5.7,0.5,6.5,0.7c2.3,0.4,3.8-1.3,5.1-1.7
		c0.1,0,0.2-0.2,0.2-0.3s-0.1-0.1-0.3-0.1c-0.6,0-0.9-0.2-0.9-0.5s0.4-0.5,0.9-0.4c0.6,0.2,1.4-0.1,1.2-0.7c0-0.1-0.2-0.2-0.4-0.2
		c-0.3,0-0.9,0.1-1.4,0.2c-0.7,0.1-1.4,0.7-2.1,0.9c-0.7,0.2-1.7,0.1-2.2-0.1s-1.8-0.7-3.5-0.5c0,0,2.2-0.8,3.2-0.8
		c0.6,0,1.3,0.2,1.8,0.4c0.7,0.3,1.5-0.2,1.8-0.9c0.3-0.6,0.3-0.9,0.1-1.7c0.8,1.2,0.3,1.6,0,2.3c-0.1,0.2,0.1,0.3,0.3,0.3
		c0.4-0.2,1-0.4,1.5-0.4c0.2,0,0.4-0.3,0.3-0.5c-0.4-1.2,0-2.1,0.3-3.1c-2.1-0.7-1.8-2.1-1.8-2.1c-0.6,0.2-1,0.8-1.3,1.4
		c-0.2,0.5-0.4,1-0.5,1.5c-0.3,1.8-1.6,1.7-2.1,1.8c-0.1,0-0.3,0-0.6-0.1c-1-0.4-1.8-1.3-2-2.4c-0.4-2.2-2.1-3.1-3.1-3.5
		c-0.2-0.1-0.3,0.2-0.1,0.2c4.1,2.9,1.1,6.4-1.3,5.8c1.3,1,3.7,0.4,4.3-0.4c-0.2,1.9-2.8,1.5-3.1,1.5c-0.7-0.1-2-0.2-2-0.2l-7.2-0.6
		c-0.3,0-0.4-0.3-0.3-0.5c0.5-1,1.5-3.2,1.8-3.6c0.4-0.5,1.2-0.5,1.4-0.1c1.5,3,3.9,3,3.9,3c-4.5-2.4-2.3-7.5-0.7-8.6
		c3.5-2.6,9-1.2,10.6-0.1c1.5,1,2.8,3.5,2.9,5.2c0,0.1,0.1,0.2,0.2,0.1l0,0c0.3-0.1,0.6-0.3,0.9-0.5c0.3-0.2,0.5-0.5,0.8-0.8
		l0.2-0.2l0.2-0.2c0.1-0.2,0.3-0.3,0.5-0.4c0.3-0.3,0.7-0.4,1.1-0.5c0.4-0.1,0.8-0.2,1.2-0.2c0.1,0,0.1,0,0.1,0.1s0,0.1-0.1,0.1l0,0
		c-0.7,0.1-1.5,0.4-2,0.9c-0.1,0.1-0.2,0.2-0.3,0.4l-0.1,0.1l-0.1,0.1l-0.1,0.3c-0.2,0.3-0.5,0.7-0.7,1c-0.3,0.3-0.6,0.5-0.9,0.8
		c1.1,0.4,2.6-0.4,3-1.1c0.5-0.8,0.6-0.8,1.7-1.3c1.1-0.5,1.5-0.9,2.2-2s1.2-1.4,1.2-1.4s0.3-0.3,0.6-1.1
		C539.8,172.3,532.1,166.7,529.2,165.5z M508.6,187.9c-0.5,0.6-1.5,1.4-2.8,1.8c-0.9,0.3-2,0.2-2.8-0.3c-0.5-0.3-1-0.9-1.5-1.7
		c-0.1-0.2,0-0.4,0.1-0.4c0.3-0.1,1.1-0.2,1.6-0.8c1-1,1.7-2.2,3-2.5c1.1-0.3,3.2,0.3,3,2.4C509.3,186.9,509,187.5,508.6,187.9z
		 M518.3,175.8c-0.3,0.1-0.5,0.1-0.7,0.2c-0.2,0.1-0.4,0.3-0.6,0.5c-0.4,0.4-0.7,0.8-1,1.2s-0.7,0.9-1.2,1.2
		c-0.1,0.1-0.2,0.2-0.3,0.2l-0.2,0.1l-0.2,0.1c-0.2,0.1-0.4,0.3-0.5,0.5s-0.2,0.4-0.3,0.6c0,0.2,0,0.5,0,0.7c0,0.1,0,0.2,0.1,0.4
		c0,0.1,0,0.3,0,0.4c0,0.3-0.1,0.6-0.2,0.8c-0.1,0.3-0.2,0.5-0.4,0.7s-0.4,0.4-0.6,0.5c0.4-0.4,0.7-0.8,0.8-1.3
		c0.1-0.2,0.1-0.5,0.1-0.8c0-0.1,0-0.2,0-0.4c0-0.1-0.1-0.2-0.1-0.4c-0.1-0.3-0.1-0.6,0-0.9c0-0.3,0.2-0.6,0.4-0.9
		c0.2-0.2,0.4-0.4,0.7-0.6l0.2-0.1l0.2-0.1c0.1-0.1,0.2-0.1,0.3-0.2c0.4-0.3,0.8-0.6,1.2-1l0.5-0.6c0.2-0.2,0.4-0.4,0.6-0.6
		c0.2-0.2,0.5-0.4,0.7-0.5c0.3-0.1,0.5-0.2,0.8-0.2c0.5,0,1.1,0,1.6,0.2C519.4,175.7,518.8,175.7,518.3,175.8z"/>
	<path class="st1" d="M509.9,177.7c1-1.9,3.6-3.7,4.3-4.1c2.9-1.1,5-5.7,5-5.7c-1.6,0.3-3,1.7-3.7,2.8c-0.7,1-1.8,1.9-3.6,3.7
		C510.1,176.1,510,176.8,509.9,177.7z"/>
	<path class="st1" d="M537.1,182.5c-0.4,0.5-1,1.3-1.9,1.8c-0.5,0.2-1.1,0.5-1.3,0.8c1.1,0,1.2,0.2,1.5,0.5s2.3-0.4,2.5-2
		c0.1-1.2,0.2-1.9,0.5-2.7C538.4,180.8,537.7,181.4,537.1,182.5z"/>
	<path class="st1" d="M448.9,174.3l14.8,14.7l0.6-1.2c-0.7-0.7-3.1-3.1-3.1-3.1c1-2.1,2-4.2,3-6.4l4.4,0.4l2.3-4.8l-20.9-1.6
		L448.9,174.3z M453.7,177.2l9,0.8l-2.6,5.5C457.8,181.4,455.8,179.2,453.7,177.2C453.7,177.1,453.6,177.3,453.7,177.2z"/>
	<path class="st1" d="M475.2,143l-1.3,1.1l8.4,10.3c1.8,2.2,2,4.3,0.2,5.8c-2,1.6-3.8,0.8-5.6-1.4l-8.4-10.3l-3.6,2.9l8,9.9
		c2.8,3.4,6.2,3.8,9.6,1.1c3.7-3,3.5-6.1,0.8-9.5L475.2,143z"/>
	<path class="st1" d="M506.4,151.2c4.6-0.9,7.9-4.7,6.6-11.2l-0.4-1.9c-2.7,0.5-5.1,1-7.7,1.6l-2.3,0.4l0.4,1.8l5.3-1.1
		c1,4.8,1,8.4-2.1,9c-2.8,0.6-4.9-3-5.8-7.6c-1-4.9-0.6-8.4,2.6-9c2.5-0.5,4.1,1.9,4.2,2c0.4-0.7,1-1.6,1.6-2.5
		c-1.2-0.7-3.2-1.5-6.1-0.9c-5,1-8.8,5.1-7.5,11.5C496.4,149.2,500.9,152.3,506.4,151.2z"/>
	<path class="st1" d="M542.2,135l-3.7,12.7c-0.8,2.7-2.4,4.1-4.6,3.4c-2.5-0.7-2.9-2.7-2.1-5.4l3.7-12.7l-4.4-1.3l-3.6,12.2
		c-1.2,4.2,0.3,7.2,4.5,8.5c4.5,1.3,7-0.5,8.2-4.8l3.6-12.2L542.2,135z"/>
	<path class="st1" d="M568.7,159.6c3-3.2-0.1-7.8-3.5-10.8l0,0l-3.4-3.1L548.6,160l3.4,3.1l5.6-6.1c0.2,0.2,0.5,0.4,0.7,0.6
		l-2.2,9.3l3.7,3.4l2.2-10.1C564.4,161.4,566.8,161.6,568.7,159.6z M558.4,156.1l5.9-6.4c2.7,2.5,2.9,4.9,1,7
		C563.6,158.6,561.2,158.6,558.4,156.1z"/>
	<polygon class="st1" points="579.2,182.1 584.4,174.5 582.6,169.9 576.3,179.3 566.8,183 568.5,187.3 578.3,183.4 588.7,185.5 
		588,183.8 	"/>
	<path class="st1" d="M457,213.6L457,213.6L457,213.6c0.6-0.3,0.9-0.9,1-1.5c0.1-0.4,0-0.8-0.2-1.2c-0.3-0.6-0.7-1-1.3-1.1
		c-0.3-0.1-0.7-0.2-1.1-0.2c-0.3,0-0.6,0-0.9,0c-0.4,0-0.7,0-1.1,0s-1.3,0-1.6,0l0,0h-0.4v0.6l0,0v0.1c0,0.2,0,0.5,0,0.7
		c0,0.6,0,1.2,0,1.8c0,0.3,0,0.5,0,0.8v0.2c0,0.2,0,0.5,0,0.7c0,0.1,0,0.2,0,0.3s0,0.2,0,0.3c0,0.7,0,1.3,0,2v0.2l0,0v0.5h0.3l0,0
		c0.1,0,0.1,0,0.3,0l0,0c0.5,0,1.4,0,1.9,0h0.5c0.2,0,0.4,0,0.6,0c0.4,0,0.8,0,1.3,0c0.5-0.1,0.9-0.2,1.3-0.5
		c0.3-0.2,0.5-0.5,0.6-0.9c0.2-0.6,0.2-1.2,0-1.8C457.8,214,457,213.6,457,213.6z M453.1,211.4L453.1,211.4L453.1,211.4
		c0.1,0,0.1,0,0.2,0l0,0c0.3,0,0.7,0,1,0h0.6h0.1c0.1,0,0.2,0,0.2,0c0.1,0,0.3,0,0.4,0.1c0.2,0,0.3,0.1,0.4,0.3
		c0.1,0.3,0.1,0.6-0.1,0.9c-0.2,0.2-0.4,0.4-0.7,0.4l0,0c-0.2,0-0.5,0-0.7,0s-0.4,0-0.6,0l0,0c-0.3,0-0.6,0-0.8,0c0,0,0,0-0.1,0
		L453.1,211.4L453.1,211.4z M456.4,215.8c-0.2,0.3-0.4,0.5-0.8,0.5l0,0c-0.5,0-1,0-1.5,0c-0.4,0-0.7,0-1.1,0c0,0,0,0-0.1,0
		c0-0.4,0-0.9,0-1.2c0-0.2,0-0.4,0-0.6l0,0h0.2c0.5,0,0.9,0,1.4,0h0.1c0.3,0,0.5,0,0.8,0c0.4,0,0.6,0.3,0.8,0.6
		C456.6,215.2,456.6,215.5,456.4,215.8z"/>
	<path class="st1" d="M470.4,216.3h-0.2c0,0,0,0-0.1,0l0,0c-0.1,0-0.1,0-0.2,0s-2.3,0-2.4,0c-0.5,0-1,0-1.7,0h-0.1c0,0,0,0,0-0.1
		v-0.1V216c0-0.4,0-1.1,0-1.5v-0.1l0,0c0.5,0,1,0,1.6,0h1c0.1,0,0.2,0,0.3,0l0,0h0.5v-0.2c0-0.1,0-0.1,0-0.2l0,0v-0.1l0,0l0,0
		c0-0.2,0-1,0-1h-0.5c-0.2,0-0.4,0-0.6,0c-0.1,0-0.3,0-0.4,0s-0.3,0-0.4,0h-0.1c-0.2,0-0.5,0-0.7,0c-0.1,0-0.1,0-0.2,0
		c-0.2,0-0.4,0-0.5,0c0-0.1,0-1.5,0-1.5h0.1c0.1,0,0.2,0,0.3,0c0.4,0,0.8,0,1.2,0h0.8c0.4,0,0.7,0,1.1,0c0.2,0,0.3,0,0.5,0l0,0h0.6
		v-0.9c0-0.1,0-0.6,0-0.7v-0.1c0,0-0.2,0-0.3,0c0,0-0.2,0-0.4,0c-0.9,0-2.8,0-3.7,0c-0.2,0-0.5,0-0.7,0c-0.3,0-0.6,0-1,0l0,0
		c0,0-0.1,0-0.2,0h-0.2v0.6c0,0.3,0,0.6,0,0.9c0,0.4,0,0.7,0,1.1c0,0.4,0,0.7,0,1c0,0.4,0,0.8,0,1.2s0,0.8,0,1.2c0,0.2,0,0.4,0,0.6
		c0,0.1,0,0.2,0,0.3l0,0v1.1h0.4c0,0,0,0,0.1,0s0.1,0,0.2,0c0.3,0,0.6,0,0.9,0c0.2,0,0.5,0,0.7,0s0.4,0,0.6,0c0.3,0,0.5,0,0.8,0
		c0.4,0,0.8,0,1.2,0c0.3,0,0.5,0,0.8,0c0.1,0,0.1,0,0.2,0s0.2,0,0.4,0h0.1c0,0,0.1-1,0.1-1.1s0-0.1,0-0.1L470.4,216.3L470.4,216.3z"
		/>
	<path class="st1" d="M481.8,209.7L481.8,209.7c-0.1,0.2-0.1,0.2-0.1,0.3v0.1c-0.1,0.3-0.2,0.5-0.3,0.8c-0.1,0.3-0.2,0.6-0.3,0.9
		c-0.1,0.2-0.2,0.4-0.2,0.6c-0.1,0.2-0.1,0.6-0.2,0.9v0.1c-0.1,0.4-0.3,0.9-0.4,1.2c-0.1,0.2-0.2,0.4-0.2,0.7v0.1
		c0-0.1,0-0.1-0.1-0.1c0-0.1-0.1-0.2-0.1-0.2c0-0.1-0.1-0.2-0.2-0.4s-0.2-0.5-0.2-0.7c-0.2-0.5-0.5-1.2-0.8-1.9
		c-0.2-0.5-0.4-1-0.6-1.5l-0.2-0.5c0-0.1,0-0.1-0.1-0.2c0-0.1-0.1-0.1-0.1-0.2l0,0v-0.1h-2l0.1,0.2c0.1,0.2,0.2,0.4,0.3,0.6
		c0.1,0.1,0.1,0.3,0.2,0.4c0.1,0.2,0.2,0.4,0.3,0.6c0.1,0.2,0.2,0.5,0.3,0.7c0.1,0.3,0.3,0.6,0.4,0.9c0.1,0.2,0.1,0.4,0.2,0.5
		c0.1,0.3,0.3,0.7,0.4,1c0.2,0.4,0.4,0.9,0.6,1.3c0.1,0.3,0.2,0.6,0.4,0.8l0.1,0.3c0,0.1,0.1,0.2,0.1,0.3c0,0,0,0,0,0.1l0,0l0,0
		l0.1,0.3h1.7l0.2-0.4l0,0l0.1-0.3c0.1-0.1,0.1-0.3,0.2-0.5l0,0c0.1-0.2,0.2-0.4,0.3-0.7c0.1-0.3,0.2-0.6,0.3-0.9
		c0.1-0.2,0.2-0.5,0.3-0.7c0-0.1,0.1-0.2,0.1-0.3s0.1-0.2,0.1-0.3c0.1-0.2,0.1-0.3,0.2-0.5c0.1-0.4,0.3-0.7,0.4-1.1
		c0-0.1,0-0.1,0.1-0.2v-0.1c0-0.1,0.1-0.2,0.1-0.3c0.1-0.3,0.2-0.6,0.3-0.9c0.1-0.2,0.1-0.3,0.2-0.5c0-0.1,0.1-0.2,0.1-0.3
		s0-0.1,0-0.2v-0.1L481.8,209.7L481.8,209.7z"/>
	<path class="st1" d="M495.4,216.3h-0.2c0,0,0,0-0.1,0l0,0c-0.1,0-0.1,0-0.2,0s-2.3,0-2.4,0c-0.5,0-1,0-1.7,0h-0.1c0,0,0,0,0-0.1
		v-0.1V216c0-0.4,0-1.1,0-1.5v-0.1l0,0c0.5,0,1,0,1.6,0h1c0.1,0,0.2,0,0.3,0l0,0h0.5v-0.2c0-0.1,0-0.1,0-0.2l0,0v-0.1l0,0l0,0
		c0-0.2,0-1,0-1h-0.5c-0.2,0-0.4,0-0.6,0c-0.1,0-0.3,0-0.4,0s-0.3,0-0.4,0h-0.1c-0.2,0-0.5,0-0.7,0c-0.1,0-0.1,0-0.2,0
		c-0.2,0-0.4,0-0.5,0c0-0.1,0-1.5,0-1.5h0.1c0.1,0,0.2,0,0.3,0c0.4,0,0.8,0,1.2,0h0.8c0.4,0,0.7,0,1.1,0c0.2,0,0.3,0,0.5,0l0,0h0.6
		v-0.9c0-0.1,0-0.6,0-0.7v-0.1c0,0-0.2,0-0.3,0c0,0-0.2,0-0.4,0c-0.9,0-2.8,0-3.7,0c-0.2,0-0.5,0-0.7,0c-0.3,0-0.6,0-1,0l0,0
		c0,0-0.1,0-0.2,0h0v0.6c0,0.3,0,0.6,0,0.9c0,0.4,0,0.7,0,1.1c0,0.4,0,0.7,0,1c0,0.4,0,0.8,0,1.2s0,0.8,0,1.2c0,0.2,0,0.4,0,0.6
		c0,0.1,0,0.2,0,0.3l0,0v1.1h0.4c0,0,0,0,0.1,0s0.1,0,0.2,0c0.3,0,0.6,0,0.9,0c0.2,0,0.5,0,0.7,0s0.4,0,0.6,0c0.3,0,0.5,0,0.8,0
		c0.4,0,0.8,0,1.2,0c0.3,0,0.5,0,0.8,0c0.1,0,0.1,0,0.2,0s0.2,0,0.4,0h0.1c0,0,0.1-1,0.1-1.1s0-0.1,0-0.1L495.4,216.3L495.4,216.3z"
		/>
	<path class="st1" d="M506.8,215.4c0.5-0.2,0.9-0.5,1.2-0.9c0.3-0.4,0.5-0.7,0.5-1.1c0.1-0.6,0.1-1.2-0.1-1.8s-0.6-1.1-1.2-1.4
		c-0.5-0.3-1-0.4-1.6-0.5h-3c-0.5,0-0.8,0-1,0l0,0c-0.1,0-0.1,0-0.2,0h-0.1h-0.1v0.1c0,0.2,0,0.4,0,0.7c0,0.2,0,0.5,0,0.7v0.1l0,0
		c0,0.1,0,0.2,0,0.2c0,0.2,0,0.3,0,0.5s0,0.5,0,0.7c0,0.4,0,0.8,0,1.2c0,0.1,0,0.2,0,0.3c0,0.2,0,0.3,0,0.5s0,0.4,0,0.5
		c0,0.2,0,0.5,0,0.7c0,0.4,0,0.7,0,1.1l0,0v0.6h1.6l0,0l0,0l0,0v-0.1l0,0v-0.1c0-0.5,0-0.9,0-1.3c0-0.1,0-0.2,0-0.3s0-0.2,0-0.3l0,0
		c0.1,0,0.2,0,0.3,0c0.2,0,0.5,0,0.6,0s0.1,0,0.3,0.2c0.3,0.3,0.5,0.5,0.7,0.8c0.1,0.1,0.2,0.2,0.2,0.2c0.1,0.1,0.3,0.3,0.4,0.4
		c0.2,0.2,0.5,0.4,0.7,0.7l0,0l0,0h2.4l-0.2-0.2c0,0,0-0.1-0.1-0.1l0,0l-0.1-0.1c-0.3-0.3-0.7-0.6-1-0.9l-0.1-0.1
		c-0.1-0.1-0.3-0.2-0.4-0.4c0-0.1-0.1-0.1-0.2-0.1c0,0,0,0-0.1-0.1c0,0-0.2-0.1-0.3-0.2C506.3,215.5,506.6,215.5,506.8,215.4
		L506.8,215.4z M506,214L506,214h-0.1c-0.1,0-0.1,0-0.2,0c-0.2,0-0.4,0-0.6,0.1c-0.5,0-1,0-1.5,0c-0.1,0-0.3,0-0.4,0s-0.3,0-0.4,0
		c0-0.1,0-0.2,0-0.3c0-0.3,0-0.6,0-0.9c0-0.2,0-0.5,0-0.7s0-0.5,0-0.8l0,0h0.2c0.7,0,1.4,0,2.1,0c0.2,0,0.4,0,0.5,0.1
		c0.4,0.1,0.6,0.2,0.8,0.5c0.3,0.4,0.3,0.8,0.1,1.3C506.5,213.6,506.3,213.9,506,214z"/>
	<path class="st1" d="M521.4,216.8c0-0.1-0.1-0.2-0.1-0.3s-0.1-0.2-0.1-0.3s-0.1-0.2-0.2-0.4c-0.1-0.3-0.3-0.6-0.4-0.9
		c-0.1-0.3-0.2-0.6-0.3-0.9c-0.1-0.3-0.2-0.6-0.4-0.9c-0.2-0.4-0.3-0.8-0.5-1.2s-0.3-0.7-0.5-1.1c-0.1-0.2-0.2-0.5-0.3-0.7V210
		c0-0.1-0.1-0.2-0.1-0.2v-0.1h-0.3h-0.1c-0.3,0-0.5,0-0.8,0h-0.1c0,0,0,0-0.1,0H517l-0.1,0.2c0,0.1-0.1,0.2-0.1,0.3
		c-0.1,0.1-0.1,0.3-0.2,0.4c-0.1,0.3-0.2,0.6-0.4,0.9c-0.1,0.3-0.3,0.6-0.4,0.9c-0.1,0.2-0.2,0.3-0.2,0.5l0,0c0,0.1-0.1,0.2-0.1,0.4
		c-0.1,0.3-0.3,0.6-0.4,0.9c-0.1,0.2-0.2,0.5-0.3,0.8c0,0.1-0.2,0.4-0.3,0.7c-0.4,1-0.6,1.5-0.7,1.7l-0.1,0.4h0.3l0,0l0,0
		c0.5,0,0.9,0,1.1,0l0,0h0.1l0,0h0.3l0.2-0.5c0-0.1,0.1-0.2,0.1-0.3c0.1-0.1,0.1-0.3,0.2-0.5s0.1-0.3,0.2-0.5c0-0.1,0-0.1,0.1-0.1
		c0.2,0,0.3,0,0.5,0s0.3,0,0.5,0c0.1,0,0.3,0,0.4,0c0.1,0,0.3,0,0.5,0c0.4,0,0.8,0,1.1,0c0.1,0,0.1,0,0.1,0.1s0.1,0.2,0.1,0.3
		c0.2,0.5,0.4,1,0.5,1.3v0.1v0.1h0.4c0.1,0,0.3,0,0.5,0c0.1,0,0.3,0,0.4,0h0.6l-0.2-0.4C521.6,217.2,521.5,217,521.4,216.8z
		 M518.7,214.5h-0.4c-0.4,0-1,0-1.4,0c-0.1,0-0.1,0-0.2,0c0,0,0-0.1,0.1-0.2c0.1-0.3,0.9-2.5,1-2.7c0,0.1,0.5,1.6,0.6,1.8
		c0,0.1,0.1,0.2,0.1,0.3c0.1,0.2,0.2,0.4,0.2,0.6C518.7,214.4,518.7,214.4,518.7,214.5L518.7,214.5z"/>
	<path class="st1" d="M534.7,216.3c0-0.1,0-0.2,0-0.2c0-0.2,0-0.5,0-0.7c0-0.1,0-0.1,0-0.2c0-0.1,0-0.1,0-0.1c0-0.2,0-0.3,0-0.5
		c0-0.1,0-0.2,0-0.3s0-0.2,0-0.4v-0.1c0-0.1,0-0.2,0-0.3v-0.1h-0.1c-0.2,0-0.5,0-0.7,0c-0.1,0-0.2,0-0.3,0c-0.3,0-0.7,0-1,0
		c-0.1,0-0.3,0-0.4,0c-0.2,0-0.4,0-0.6,0c-0.2,0-0.5,0-0.7,0c-0.1,0-0.2,0-0.3,0h-0.1v0.1v0.1v0.1c0,0.3,0,0.5,0,0.9
		c0,0.1,0,0.1,0,0.2c0,0,0,0,0,0.1v0.1h0.1c0.1,0,0.2,0,0.3,0c0.2,0,0.4,0,0.6,0c0.1,0,0.3,0,0.4,0c0.2,0,0.3,0,0.5,0
		c0.1,0,0.3,0,0.4,0c0.1,0,0.3,0,0.5,0c0,0.1-0.1,0.6-0.2,0.8c-0.3,0.3-0.6,0.5-1,0.7s-0.9,0.2-1.4,0.1c-0.8,0-1.4-0.5-1.9-1.1
		c-0.4-0.5-0.5-1.1-0.5-1.6v-0.1c0-0.1,0-0.2,0-0.4l0,0c0-0.3,0-0.4,0.1-0.6c0.1-0.3,0.2-0.5,0.4-0.7l0,0c0-0.1,0.1-0.1,0.1-0.2
		c0.3-0.4,0.8-0.6,1.3-0.7c0.4-0.1,0.8-0.1,1.2-0.1c0.6,0.1,1.2,0.3,1.5,0.7l0.1,0.1l0,0l0,0l0.3,0.3l0.4-0.4l0,0
		c0.1-0.1,0.2-0.2,0.3-0.3l0.1-0.1c0.1-0.1,0.2-0.2,0.3-0.3l0.1-0.1l-0.1-0.1l-0.1-0.1c-0.1-0.1-0.1-0.1-0.2-0.2
		c-0.1-0.1-0.2-0.3-0.4-0.4c-0.3-0.2-0.6-0.4-1-0.6c-0.5-0.2-0.9-0.3-1.3-0.3c-0.5,0-1,0-1.4,0.1c-0.6,0.1-1.1,0.3-1.7,0.7
		c-0.4,0.2-0.7,0.6-1,1c-0.5,0.6-0.8,1.4-0.8,2.2c0,0.3,0,0.5,0,0.7c0.1,0.6,0.2,1.1,0.5,1.6c0.2,0.3,0.3,0.6,0.5,0.8
		c0.4,0.4,0.8,0.7,1.2,0.9c0.6,0.3,1.3,0.5,2,0.5c0,0,0,0,0.1,0c0.3,0,0.5,0,0.8-0.1c0.4-0.1,1-0.2,1.6-0.8l0,0l0,0
		c0,0.1,0.2,0.6,0.2,0.6h0.1l0,0h0.1c0.3,0,0.2,0,0.6,0h0.5L534.7,216.3C534.7,216.6,534.7,216.5,534.7,216.3z"/>
	<path class="st1" d="M546.9,216.3h-0.2c0,0,0,0-0.1,0l0,0c-0.1,0-0.1,0-0.2,0c-0.1,0-2.3,0-2.4,0c-0.5,0-1,0-1.7,0h-0.1
		c0,0,0,0,0-0.1v-0.1V216c0-0.4,0-1.1,0-1.5v-0.1l0,0c0.5,0,1,0,1.6,0h1c0.1,0,0.2,0,0.3,0l0,0h0.5v-0.2c0-0.1,0-0.1,0-0.2l0,0v-0.1
		l0,0l0,0c0-0.2,0-1,0-1h-0.5c-0.2,0-0.4,0-0.6,0c-0.2,0-0.3,0-0.4,0c-0.1,0-0.3,0-0.4,0h-0.1c-0.2,0-0.5,0-0.7,0
		c-0.1,0-0.1,0-0.2,0c-0.2,0-0.4,0-0.5,0c0-0.1,0-1.5,0-1.5h0.1c0.1,0,0.2,0,0.3,0c0.4,0,0.8,0,1.2,0h0.8c0.4,0,0.7,0,1.1,0
		c0.2,0,0.3,0,0.5,0l0,0h0.6v-0.9c0-0.1,0-0.6,0-0.7v-0.1c0,0-0.2,0-0.3,0c0,0-0.2,0-0.4,0c-0.8,0-2.8,0-3.7,0c-0.2,0-0.5,0-0.7,0
		c-0.3,0-0.6,0-1,0l0,0c0,0-0.1,0-0.2,0h-0.2v0.6c0,0.3,0,0.6,0,0.9c0,0.4,0,0.7,0,1.1c0,0.4,0,0.7,0,1c0,0.4,0,0.8,0,1.2
		s0,0.8,0,1.2c0,0.2,0,0.4,0,0.6c0,0.1,0,0.2,0,0.3l0,0v1.1h0.4c0,0,0,0,0.1,0s0.2,0,0.2,0c0.3,0,0.6,0,0.9,0c0.2,0,0.5,0,0.7,0
		s0.4,0,0.6,0c0.3,0,0.5,0,0.8,0c0.4,0,0.8,0,1.2,0c0.3,0,0.5,0,0.8,0c0.1,0,0.2,0,0.2,0c0.1,0,0.2,0,0.3,0h0.1c0,0,0.1-1,0.1-1.1
		s0-0.1,0-0.1L546.9,216.3L546.9,216.3z"/>
	<path class="st1" d="M568,210.1c-0.9-0.4-1.7-0.6-2.6-0.5c-0.3,0-0.6,0.1-0.8,0.1c-0.4,0.1-0.8,0.2-1.2,0.4s-0.7,0.5-1,0.8
		c-0.4,0.4-0.6,0.8-0.8,1.2c-0.2,0.6-0.4,1.1-0.3,1.6c0,0.2,0,0.4,0,0.5v0.1c0,0.4,0.2,0.9,0.4,1.3c0.6,1.1,1.5,1.8,2.6,2.1
		c0.5,0.1,0.9,0.2,1.3,0.2c0.1,0,0.2,0,0.3,0c0.4,0,0.7,0,1.1-0.1c0.7-0.2,1.4-0.5,2-1l0,0c0.1-0.1,0.2-0.2,0.3-0.4v-0.1v-0.1
		c-0.2-0.2-0.4-0.4-0.6-0.6c-0.1-0.1-0.2-0.2-0.3-0.3l-0.1-0.1l-0.1-0.1l-0.2,0.1l0,0l-0.1,0.1c-0.1,0.1-0.1,0.1-0.2,0.2
		c-0.5,0.4-1.1,0.6-1.8,0.6c-0.4,0-0.8-0.1-1.2-0.2c-0.6-0.2-0.9-0.6-1.2-1.1c-0.2-0.4-0.4-0.8-0.4-1.3c0-0.4,0.1-0.8,0.3-1.2
		c0.1-0.2,0.2-0.4,0.4-0.6c0.5-0.5,1.2-0.7,2-0.7c0.2,0,0.5,0,0.7,0.1c0.6,0.1,1.1,0.4,1.5,0.8c0,0,0,0.1,0.1,0.1l0.1,0.1
		c0,0,0,0,0.1,0.1l0.1,0.1l0.2-0.2l0,0l0.1-0.1l0.1-0.1l0,0c0.2-0.2,0.5-0.4,0.7-0.6l0.1-0.1l0,0l0.1-0.1l-0.1-0.1
		C569.2,210.8,568.7,210.3,568,210.1z"/>
	<path class="st1" d="M583.5,212.9c0-0.1,0-0.2,0-0.2c-0.1-0.2-0.2-0.4-0.2-0.6c-0.4-0.9-1-1.5-1.9-1.9c-0.1-0.1-0.2-0.1-0.3-0.1
		H581c-0.5-0.2-1.1-0.3-1.5-0.3c-0.2,0-0.4,0-0.7,0c-0.2,0-0.5,0.1-0.8,0.1c-0.6,0.1-1.1,0.3-1.5,0.6c-0.3,0.2-0.5,0.4-0.7,0.6
		c-0.5,0.5-0.8,1.1-1,1.7c0,0.2-0.1,0.3-0.1,0.5c0,0.1,0,0.1,0,0.2c-0.1,0.4,0,0.9,0,1.3c0.1,0.6,0.4,1.2,0.9,1.8
		c0.3,0.4,0.7,0.7,1.2,1c0.2,0.1,0.5,0.2,0.7,0.3c0.6,0.2,1.1,0.3,1.7,0.3c0.3,0,0.7,0,1.1-0.1c0.6-0.1,1.1-0.4,1.5-0.6
		c0.2-0.1,0.4-0.2,0.5-0.4c0.3-0.2,0.5-0.5,0.8-0.9c0.2-0.4,0.4-0.7,0.5-1.1c0.1-0.4,0.2-0.8,0.2-1.2c0-0.2,0-0.5-0.1-0.7
		C583.5,212.9,583.5,212.9,583.5,212.9z M581.8,214.2c-0.1,0.7-0.5,1.3-1.1,1.7c-0.4,0.3-1,0.5-1.4,0.5l0,0c-0.6,0-1-0.1-1.4-0.2
		c-0.6-0.3-1.1-0.8-1.3-1.4c-0.2-0.4-0.2-0.7-0.2-1.1c0-0.5,0.2-1,0.5-1.4c0.2-0.2,0.4-0.5,0.7-0.7c0,0,0,0,0.1-0.1
		c0.5-0.2,1-0.3,1.4-0.3c0,0,0,0,0.1,0c0.3,0,0.6,0.1,0.8,0.2c0.1,0,0.2,0.1,0.2,0.1c0.1,0,0.1,0.1,0.2,0.1c0.6,0.3,1,0.7,1.3,1.4
		C581.8,213.4,581.9,213.7,581.8,214.2z"/>
	<rect x="588.8" y="215.9" class="st1" width="2.1" height="1.9"/>
	<path class="st0" d="M694.1,205.2c-6.4-1.6-12-5.7-16.1-11.4c-0.2-0.4-0.8-0.4-1,0c-3.7,5.1-8.7,9-14.3,10.9
		c-1,0.3-2.1,0.5-3.2,0.5h-34.7c-0.1,0-0.2,0-0.4,0c-1.9-0.1-3.8-1-5.2-2.2c-1.1-0.9-2.3-2.1-3.3-3.4c-0.2-0.2-0.3-0.4-0.5-0.7v0.1
		c-2.6-3.4-4.8-7.7-5.5-12.5c-5.1-40.3-35.7-72.7-75.1-80.3c-1.6-0.3-3.2-0.7-4.7-1.2c-4-1.5-7.5-3.8-10-6.3c-1.8-1.9-2.8-4.4-2.8-7
		V-19.7c0-0.9,0.1-1.8,0.4-2.6c1.8-5.8,5.7-10.9,11-14.6c0.3-0.2,0.3-0.8,0-1c-5.7-4-9.7-9.7-11.4-16.1c-0.1-0.6-0.9-0.6-1.1,0
		c-1.6,6.4-5.7,12-11.4,16.1c-0.4,0.2-0.4,0.8,0,1c5.2,3.7,9.1,8.8,11,14.6c0.3,0.8,0.4,1.7,0.4,2.6V91.5c0,2.6-1,5.2-2.8,7
		c-2.5,2.5-5.9,4.8-10,6.3c-1.5,0.6-3.1,0.9-4.7,1.2c-39.4,7.7-70,40-75.1,80.3c-0.8,4.9-2.9,9.2-5.6,12.7c-1.2,1.5-2.4,2.8-3.7,3.9
		c-1.5,1.3-3.5,1.9-5.5,1.9h-38.2c-1.1,0-2.2-0.1-3.2-0.5c-5.7-1.9-10.7-5.7-14.3-10.9c-0.2-0.4-0.8-0.4-1,0
		c-4,5.6-9.7,9.7-16.1,11.4c-0.6,0.1-0.6,0.9,0,1.1c6.4,1.6,12,5.7,16.1,11.4c0.2,0.4,0.8,0.4,1,0c3.7-5.1,8.7-9,14.3-10.9
		c1-0.3,2.1-0.5,3.2-0.5h38.1c2.3,0,4.5,0.9,6.1,2.4c1.1,1.1,2.2,2.4,3.3,3.9c0.2,0.3,0.4,0.6,0.6,0.9c2.9,4.5,4.2,9.9,4.2,15.2v7.5
		c0,3,2.5,5.5,5.5,5.5h65.5c5.7,0,11.4,1.5,16,4.8c3,2.1,5.3,4.6,6.6,7.1c0.1,0.2,0.3,0.2,0.4,0c2.4-4.7,8.7-9.7,16.6-11.5
		c1.1-0.3,2.2-0.3,3.3-0.3c9.1,0,52.7,0,68.2,0c3,0,5.5-2.5,5.5-5.5v-7.5c0-5.4,1.4-10.7,4.2-15.2c0.9-1.3,1.8-2.5,2.8-3.6
		c0.5-0.5,1-0.9,1.5-1.4c1.1-0.9,2.4-1.5,3.8-1.8c0.6-0.1,1.3-0.2,2-0.2l0,0h34.6c1.1,0,2.2,0.1,3.2,0.5c5.7,1.9,10.7,5.7,14.3,10.9
		c0.2,0.4,0.8,0.4,1,0c4-5.6,9.7-9.7,16.1-11.4C694.7,206.1,694.7,205.3,694.1,205.2z M515.5,170.7c0.7-1,2.1-2.4,3.7-2.8
		c0,0-2.1,4.6-5,5.7c-0.7,0.3-3.3,2.2-4.3,4.1c0.1-0.9,0.3-1.6,2-3.4C513.7,172.6,514.8,171.7,515.5,170.7z M502.7,131.8
		c2.9-0.6,4.9,0.2,6.1,0.9c-0.5,0.9-1.1,1.8-1.6,2.5c-0.2-0.2-1.7-2.5-4.2-2c-3.2,0.6-3.6,4.1-2.6,9c0.9,4.5,3,8.1,5.8,7.6
		c3-0.6,3-4.2,2.1-9l-5.3,1.1l-0.4-1.8l2.3-0.4c2.6-0.6,5-1,7.7-1.6l0.4,1.9c1.3,6.5-1.9,10.3-6.6,11.2c-5.5,1.1-10-2-11.2-8
		C493.9,136.9,497.7,132.8,502.7,131.8z M458.1,216.4c-0.1,0.4-0.4,0.7-0.6,0.9c-0.4,0.3-0.8,0.5-1.3,0.5c-0.4,0-0.9,0-1.3,0
		c-0.2,0-0.4,0-0.6,0h-0.5c-0.5,0-1.4,0-1.9,0l0,0c-0.1,0-0.2,0-0.3,0l0,0h-0.3v-0.5l0,0v-0.2c0-0.6,0-1.3,0-2c0-0.1,0-0.2,0-0.3
		s0-0.2,0-0.3c0-0.2,0-0.5,0-0.7v-0.2c0-0.3,0-0.5,0-0.8c0-0.6,0-1.2,0-1.8c0-0.2,0-0.5,0-0.7v-0.1l0,0v-0.6h0.4l0,0
		c0.3,0,1.3,0,1.6,0c0.4,0,0.7,0,1.1,0c0.3,0,0.6,0,0.9,0c0.4,0,0.8,0.1,1.1,0.2c0.5,0.2,1,0.6,1.3,1.1c0.2,0.4,0.3,0.8,0.2,1.2
		c-0.1,0.6-0.4,1.1-1,1.4l0,0l0,0c0,0,0.9,0.4,1.1,1C458.3,215.1,458.3,215.8,458.1,216.4z M470.3,217.9h-0.1c-0.1,0-0.2,0-0.4,0
		c-0.1,0-0.1,0-0.2,0c-0.3,0-0.5,0-0.8,0c-0.4,0-0.8,0-1.2,0c-0.3,0-0.5,0-0.8,0c-0.2,0-0.4,0-0.6,0s-0.5,0-0.7,0
		c-0.3,0-0.6,0-0.9,0c-0.1,0-0.1,0-0.2,0c0,0,0,0-0.1,0h-0.4v-1.1l0,0c0-0.1,0-0.2,0-0.3c0-0.2,0-0.4,0-0.6c0-0.4,0-0.8,0-1.2
		s0-0.8,0-1.2s0-0.7,0-1c0-0.4,0-0.7,0-1.1c0-0.3,0-0.6,0-0.9v-0.6h0.2c0.1,0,0.1,0,0.2,0l0,0c0.3,0,0.6,0,1,0c0.2,0,0.5,0,0.7,0
		c0.8,0,2.8,0,3.7,0c0.2,0,0.4,0,0.4,0h0.3v0.1c0,0,0,0.5,0,0.7v0.9h-0.6l0,0c-0.2,0-0.3,0-0.5,0c-0.4,0-0.7,0-1.1,0h-0.8
		c-0.4,0-0.8,0-1.2,0c-0.1,0-0.2,0-0.3,0h-0.1c0,0,0,1.4,0,1.5c0.2,0,0.4,0,0.5,0s0.1,0,0.2,0c0.2,0,0.5,0,0.7,0h0.1
		c0.1,0,0.3,0,0.4,0s0.3,0,0.4,0c0.2,0,0.4,0,0.6,0h0.5c0,0,0,0.8,0,1l0,0l0,0v0.1l0,0c0,0.1,0,0.1,0,0.2v0.2h-0.5l0,0
		c-0.1,0-0.2,0-0.3,0h-1c-0.5,0-1,0-1.6,0l0,0v0.1c0,0.4,0,1.1,0,1.5v0.1v0.1v0.1c0,0,0,0,0.1,0c0.6,0,1.1,0,1.7,0
		c0.1,0,2.2,0,2.4,0c0.1,0,0.2,0,0.2,0l0,0h0.1h0.2v0.3v0.1C470.4,216.8,470.3,217.9,470.3,217.9z M468.5,178.7l-4.4-0.4
		c-1,2.1-2,4.2-3,6.4c0,0,2.4,2.4,3.1,3.1l-0.6,1.2l-14.8-14.7l1-2.1l20.9,1.6L468.5,178.7z M483.7,210c0,0.1-0.1,0.2-0.1,0.3
		c-0.1,0.1-0.1,0.3-0.2,0.5c-0.1,0.3-0.2,0.6-0.3,0.9c0,0.1-0.1,0.2-0.1,0.3v0.1c0,0.1,0,0.1-0.1,0.2c-0.2,0.3-0.3,0.7-0.4,1.1
		c-0.1,0.1-0.1,0.3-0.2,0.5c0,0.1-0.1,0.2-0.1,0.3s-0.1,0.2-0.1,0.3c-0.1,0.2-0.2,0.5-0.3,0.7c-0.1,0.3-0.2,0.6-0.3,0.9
		c-0.1,0.2-0.2,0.4-0.3,0.7l0,0c-0.1,0.2-0.1,0.3-0.2,0.5l-0.1,0.3l0,0l-0.2,0.4H479l-0.1-0.3l0,0l0,0c0,0,0,0,0-0.1
		s-0.1-0.2-0.1-0.3l-0.1-0.3c-0.1-0.3-0.2-0.6-0.4-0.8c-0.2-0.4-0.4-0.9-0.6-1.3c-0.1-0.3-0.3-0.7-0.4-1c-0.1-0.2-0.2-0.4-0.2-0.5
		c-0.1-0.3-0.3-0.6-0.4-0.9c-0.1-0.2-0.2-0.5-0.3-0.7c-0.1-0.2-0.2-0.4-0.3-0.6c-0.1-0.1-0.1-0.3-0.2-0.4c-0.1-0.2-0.2-0.4-0.3-0.6
		l-0.1-0.2h2v0.1l0,0c0,0.1,0,0.1,0.1,0.2c0,0.1,0,0.1,0.1,0.2l0.2,0.5c0.2,0.5,0.4,1,0.6,1.5c0.3,0.7,0.6,1.4,0.8,1.9
		c0.1,0.2,0.2,0.5,0.2,0.7c0,0.1,0.1,0.2,0.2,0.4c0,0.1,0.1,0.2,0.1,0.2c0,0.1,0,0.1,0.1,0.1v-0.1c0.1-0.2,0.2-0.4,0.2-0.7
		c0.1-0.4,0.2-0.9,0.4-1.2v-0.1c0.1-0.2,0.1-0.6,0.2-0.9c0.1-0.2,0.2-0.4,0.2-0.6c0.1-0.3,0.2-0.6,0.3-0.9c0.1-0.3,0.2-0.5,0.3-0.8
		v-0.1c0-0.1,0-0.2,0.1-0.2v-0.1h1.9v0.1C483.7,209.9,483.7,209.9,483.7,210z M482.4,162.4c-3.4,2.8-6.8,2.3-9.6-1.1l-8-9.9l3.6-2.9
		l8.4,10.3c1.8,2.2,3.6,3,5.6,1.4c1.8-1.5,1.6-3.6-0.2-5.8l-8.4-10.3l1.3-1.1l8,9.9C485.9,156.3,486.1,159.4,482.4,162.4z
		 M487.1,198.1c-0.5-6.9,16.6-15.2,16.6-15.2c0.2,1.8-1.5,2.6-2.3,3s-1.7,0.9-1.6,1.5s0,1.7-1,2.3s-1.7,0.5-2.4,1.2
		c-0.6,0.7,0.3,2.1,1.7,1.2c1.1-0.7,2.1,0.1,2.6,0.7c0.1,0.1,0,0.3-0.1,0.3C498.4,193.5,491.8,196.2,487.1,198.1
		C487.2,198.2,487.1,198.1,487.1,198.1z M495.4,217.9h-0.1c-0.1,0-0.2,0-0.4,0c-0.1,0-0.1,0-0.2,0c-0.3,0-0.5,0-0.8,0
		c-0.4,0-0.8,0-1.2,0c-0.3,0-0.5,0-0.8,0c-0.2,0-0.4,0-0.6,0s-0.5,0-0.7,0c-0.3,0-0.6,0-0.9,0c-0.1,0-0.1,0-0.2,0c0,0,0,0-0.1,0H489
		v-1.1l0,0c0-0.1,0-0.2,0-0.3c0-0.2,0-0.4,0-0.6c0-0.4,0-0.8,0-1.2s0-0.8,0-1.2s0-0.7,0-1c0-0.4,0-0.7,0-1.1c0-0.3,0-0.6,0-0.9v-0.6
		h0.2c0.1,0,0.1,0,0.2,0l0,0c0.3,0,0.6,0,1,0c0.2,0,0.5,0,0.7,0c0.8,0,2.8,0,3.7,0c0.2,0,0.4,0,0.4,0h0.3v0.1c0,0,0,0.5,0,0.7v0.9
		h-0.6l0,0c-0.2,0-0.3,0-0.5,0c-0.4,0-0.7,0-1.1,0h-0.8c-0.4,0-0.8,0-1.2,0c-0.1,0-0.2,0-0.3,0h-0.1c0,0,0,1.4,0,1.5
		c0.2,0,0.4,0,0.5,0s0.1,0,0.2,0c0.2,0,0.5,0,0.7,0h0.1c0.1,0,0.3,0,0.4,0s0.3,0,0.4,0c0.2,0,0.4,0,0.6,0h0.5c0,0,0,0.8,0,1l0,0l0,0
		v0.1l0,0c0,0.1,0,0.1,0,0.2v0.2h-0.5l0,0c-0.1,0-0.2,0-0.3,0h-1c-0.5,0-1,0-1.6,0l0,0v0.1c0,0.4,0,1.1,0,1.5v0.1v0.1v0.1
		c0,0,0,0,0.1,0c0.6,0,1.1,0,1.7,0c0.1,0,2.2,0,2.4,0c0.1,0,0.2,0,0.2,0l0,0h0.1h0.2v0.3v0.1C495.5,216.8,495.4,217.9,495.4,217.9z
		 M487.9,198.4C487.8,198.4,487.8,198.3,487.9,198.4c1.7-0.8,10.1-4.1,13.2-5c0.2-0.1,0.4,0.1,0.4,0.3c0,0.3-0.4,0.7-0.9,1
		C499.3,195.6,493,198,487.9,198.4z M506.4,215.8L506.4,215.8c0.1,0.1,0.2,0.1,0.2,0.2c0.1,0.1,0.2,0.2,0.4,0.4l0.1,0.1
		c0.4,0.3,0.7,0.6,1,0.9l0.1,0.1l0,0c0,0,0,0,0.1,0.1l0.2,0.2h-2.4l0,0l0,0c-0.2-0.2-0.5-0.5-0.7-0.7c-0.1-0.1-0.3-0.3-0.4-0.4
		c-0.1-0.1-0.2-0.2-0.2-0.2c-0.3-0.2-0.5-0.5-0.7-0.8c-0.1-0.1-0.2-0.1-0.3-0.2c-0.1,0-0.4,0-0.6,0c-0.1,0-0.2,0-0.3,0l0,0
		c0,0.1,0,0.2,0,0.3s0,0.2,0,0.3c0,0.4,0,0.8,0,1.3c0,0.1,0,0.1,0,0.1l0,0v0.1l0,0l0,0l0,0H501V217l0,0c0-0.4,0-0.7,0-1.1
		c0-0.2,0-0.5,0-0.7c0-0.1,0-0.3,0-0.5s0-0.3,0-0.5c0-0.1,0-0.2,0-0.3c0-0.4,0-0.8,0-1.2c0-0.2,0-0.5,0-0.7s0-0.3,0-0.5
		c0-0.1,0-0.2,0-0.2l0,0v-0.1c0-0.2,0-0.5,0-0.7s0-0.4,0-0.7v-0.1h0.1h0.1c0.1,0,0.1,0,0.2,0l0,0c0.2,0,0.6,0,1,0h3
		c0.5,0,1.1,0.2,1.6,0.5c0.6,0.4,1,0.8,1.2,1.4c0.2,0.6,0.2,1.1,0.1,1.8c-0.1,0.4-0.3,0.7-0.5,1.1c-0.3,0.4-0.7,0.7-1.2,0.9l0,0
		c-0.2,0.1-0.5,0.2-0.7,0.2C506.2,215.7,506.3,215.8,506.4,215.8z M521.2,217.9c-0.1,0-0.2,0-0.4,0s-0.4,0-0.5,0H520v-0.1
		c0,0,0,0,0-0.1c-0.1-0.3-0.3-0.8-0.5-1.3c0-0.1-0.1-0.2-0.1-0.3s0-0.1-0.1-0.1c-0.4,0-0.7,0-1.1,0c-0.1,0-0.3,0-0.5,0
		c-0.1,0-0.3,0-0.4,0c-0.2,0-0.3,0-0.5,0s-0.3,0-0.5,0c-0.1,0-0.1,0-0.1,0.1c-0.1,0.1-0.1,0.3-0.2,0.5c-0.1,0.2-0.1,0.3-0.2,0.5
		c0,0.1-0.1,0.2-0.1,0.3l-0.2,0.5h-0.3l0,0h-0.1l0,0c-0.2,0-0.6,0-1.1,0l0,0l0,0h-0.3l0.1-0.4c0.1-0.2,0.3-0.7,0.7-1.7
		c0.1-0.3,0.2-0.6,0.3-0.7c0.1-0.2,0.2-0.5,0.3-0.8s0.3-0.6,0.4-0.9c0-0.1,0.1-0.2,0.1-0.4l0,0c0.1-0.2,0.2-0.3,0.2-0.5
		c0.1-0.3,0.3-0.6,0.4-0.9c0.1-0.3,0.2-0.6,0.4-0.9c0.1-0.1,0.1-0.3,0.2-0.4c0-0.1,0.1-0.2,0.1-0.3l0.1-0.2h0.1c0,0,0,0,0.1,0h0.1
		c0.3,0,0.5,0,0.8,0h0.1h0.3v0.1c0,0.1,0.1,0.1,0.1,0.2v0.1c0.1,0.2,0.2,0.5,0.3,0.7c0.1,0.4,0.3,0.7,0.5,1.1
		c0.2,0.4,0.3,0.8,0.5,1.2c0.1,0.3,0.2,0.6,0.4,0.9c0.1,0.3,0.2,0.6,0.3,0.9c0.1,0.3,0.2,0.6,0.4,0.9c0,0.1,0.1,0.2,0.2,0.4
		c0,0.1,0.1,0.2,0.1,0.3s0.1,0.2,0.1,0.3c0.1,0.2,0.2,0.4,0.3,0.6l0.2,0.4L521.2,217.9L521.2,217.9z M534.3,217.9
		c-0.4,0-0.3,0-0.6,0h-0.1l0,0h-0.1l-0.2-0.6l0,0l0,0c-0.7,0.6-1.3,0.7-1.6,0.8s-0.5,0.1-0.8,0.1c0,0,0,0-0.1,0
		c-0.7,0-1.4-0.2-2-0.5c-0.4-0.2-0.8-0.5-1.2-0.9c-0.2-0.2-0.4-0.5-0.5-0.8c-0.3-0.5-0.4-1-0.5-1.6c0-0.2,0-0.4,0-0.7
		c0.1-0.9,0.3-1.6,0.8-2.2c0.3-0.4,0.7-0.7,1-1c0.6-0.4,1.1-0.6,1.7-0.7c0.5-0.1,1-0.1,1.4-0.1s0.8,0.1,1.3,0.3
		c0.4,0.1,0.7,0.4,1,0.6c0.2,0.1,0.3,0.2,0.4,0.4c0,0.1,0.1,0.1,0.2,0.2l0.1,0.1l0.1,0.1l-0.1,0.1c-0.1,0.1-0.2,0.2-0.3,0.3
		l-0.1,0.1c-0.1,0.1-0.2,0.2-0.3,0.3l0,0l-0.4,0.4L533,212l0,0l0,0l-0.1-0.1c-0.4-0.4-0.9-0.6-1.5-0.7c-0.3,0-0.8,0-1.2,0.1
		c-0.5,0.1-1,0.4-1.3,0.7c0,0.1-0.1,0.1-0.1,0.2l0,0c-0.2,0.2-0.2,0.4-0.4,0.7c-0.1,0.2-0.1,0.4-0.1,0.6l0,0c0,0.1,0,0.2,0,0.4v0.1
		c0,0.5,0.1,1.1,0.5,1.6c0.5,0.6,1.1,1.1,1.9,1.1c0.5,0,1,0,1.4-0.1s0.7-0.4,1-0.7c0.2-0.2,0.2-0.6,0.2-0.8c-0.1,0-0.3,0-0.5,0
		c-0.1,0-0.3,0-0.4,0c-0.2,0-0.3,0-0.5,0c-0.1,0-0.3,0-0.4,0c-0.2,0-0.4,0-0.6,0c-0.1,0-0.2,0-0.3,0h-0.1V215c0,0,0,0,0-0.1
		s0-0.1,0-0.2c0-0.3,0-0.6,0-0.9c0-0.1,0-0.1,0-0.1s0,0,0-0.1v-0.1h0.1c0.1,0,0.2,0,0.3,0c0.2,0,0.5,0,0.7,0s0.4,0,0.6,0
		c0.1,0,0.3,0,0.4,0c0.3,0,0.7,0,1,0c0.1,0,0.2,0,0.3,0c0.2,0,0.5,0,0.7,0h0.1v0.1c0,0.1,0,0.2,0,0.3v0.1c0,0.1,0,0.2,0,0.4
		c0,0.1,0,0.2,0,0.3c0,0.2,0,0.3,0,0.5v0.1c0,0,0,0.1,0,0.2c0,0.2,0,0.5,0,0.7c0,0.1,0,0.2,0,0.2c0,0.1,0,0.3,0,0.4v1.1H534.3
		L534.3,217.9z M537.9,183.5c-0.2,1.6-2.2,2.3-2.5,2s-0.4-0.5-1.5-0.5c0.2-0.2,0.8-0.5,1.3-0.8c0.9-0.5,1.6-1.2,1.9-1.8
		c0.6-1,1.3-1.7,1.3-1.7C538,181.6,537.9,182.3,537.9,183.5z M538.7,179.3c-0.3,0.8-0.6,1.1-0.6,1.1s-0.5,0.3-1.2,1.4
		s-1.1,1.6-2.2,2c-1.1,0.5-1.2,0.5-1.7,1.3c-0.4,0.6-1.9,1.5-3,1.1c0.3-0.2,0.6-0.5,0.9-0.8c0.3-0.3,0.5-0.6,0.7-1l0.2-0.3l0.1-0.1
		l0.1-0.1c0.1-0.1,0.2-0.3,0.3-0.4c0.5-0.5,1.2-0.8,2-0.9l0,0l0.1-0.1c0-0.1,0-0.1-0.1-0.1c-0.4,0-0.8,0.1-1.2,0.2
		c-0.4,0.1-0.8,0.3-1.1,0.5c-0.2,0.1-0.3,0.3-0.5,0.4l-0.2,0.2l-0.2,0.2c-0.2,0.3-0.5,0.6-0.8,0.8s-0.6,0.4-0.9,0.5l0,0
		c-0.1,0-0.2,0-0.2-0.1c-0.1-1.7-1.5-4.2-2.9-5.2c-1.6-1.1-7-2.5-10.6,0.1c-1.6,1.1-3.8,6.2,0.7,8.6c0,0-2.4,0-3.9-3
		c-0.2-0.4-1.1-0.4-1.4,0.1c-0.3,0.4-1.3,2.6-1.8,3.6c-0.1,0.2,0,0.5,0.3,0.5l7.2,0.6c0,0,1.4,0.1,2,0.2c0.3,0,2.9,0.4,3.1-1.5
		c-0.6,0.8-3,1.4-4.3,0.4c2.4,0.6,5.4-2.9,1.3-5.8c-0.1-0.1,0-0.3,0.1-0.2c1,0.3,2.7,1.3,3.1,3.5c0.2,1.1,1,2,2,2.4
		c0.2,0.1,0.4,0.1,0.6,0.1c0.5,0,1.8,0.1,2.1-1.8c0.1-0.5,0.2-1.1,0.5-1.5c0.3-0.6,0.7-1.1,1.3-1.4c0,0-0.3,1.4,1.8,2.1
		c-0.3,0.9-0.7,1.9-0.3,3.1c0.1,0.2-0.1,0.5-0.3,0.5c-0.5,0.1-1.1,0.2-1.5,0.4c-0.2,0.1-0.4-0.1-0.3-0.3c0.3-0.8,0.9-1.1,0-2.3
		c0.2,0.8,0.1,1.1-0.1,1.7c-0.3,0.7-1.1,1.2-1.8,0.9c-0.5-0.2-1.2-0.4-1.8-0.4c-1-0.1-3.2,0.8-3.2,0.8c1.7-0.2,2.9,0.3,3.5,0.5
		s1.5,0.3,2.2,0.1s1.4-0.8,2.1-0.9c0.5-0.1,1.1-0.1,1.4-0.2c0.1,0,0.3,0.1,0.3,0.2c0.3,0.7-0.6,0.9-1.2,0.7c-0.5-0.2-0.9,0-0.9,0.4
		s0.3,0.5,0.9,0.5c0.2,0,0.2,0.1,0.3,0.1c0,0.1,0,0.3-0.2,0.3c-1.3,0.4-2.8,2.1-5.1,1.7c-0.9-0.1-5.4-0.6-6.5-0.7
		c-1.2,0-5.9,0.2-8.4-0.4c-3.1-0.7-6.3,0.2-7.5,0.6c-0.2,0.1-0.3-0.1-0.2-0.3c0.2-0.3,0.3-0.8,0-1.1c0,0,1.1-0.3,2.7-0.7
		s3.1-0.5,4-0.6s1.6-0.3,1.9-0.3c0.4,0,1.1-0.2,1.9-0.1c0.8,0.1,1.9,0.3,2.3,0.4c0.4,0.1,0.8-0.2,1.4-0.1c0.4,0.1,1.8,0.2,2.4,0.3
		c0.1,0,0.1,0.1,0,0.2c-0.2,0.1-0.4,0.3-0.4,0.5c-0.1,0.5,1.1,0.8,1.6,0.9c0.7,0.1,1.5,0.1,2.4-1c0.1-0.2-0.2-0.5-0.9-0.6
		s-2.1-0.4-2.4-0.4c-0.2-0.1-1.8-0.3-3.2-0.4c-0.5-0.1-0.9,0.1-1.1,0.1c-0.9-0.1-3.1-0.6-4.1-0.3c-1.3,0.4-2.9,0.4-3.2,0.4
		c-0.3,0.1-2.9,0.7-4.4,1c-0.3,0.1-1,0.4-1.3,0c-0.2-0.3-0.7-0.6-1-0.9c-0.3-0.2-1-0.6-1.7-0.2c-0.6,0.3-1.4,0.7-1.7,0.4
		c-0.4-0.3-0.3-0.9,0.5-1.1c0.5-0.2,1.3-0.5,1.9-0.9s1-1.1,0.9-1.9c0-0.1,0-0.2,0-0.3c-0.1-0.5,0.1-0.8,0.9-1.2s2.6-1.2,2.8-2.4
		c0.1-0.5,0.1-1.2,0.1-1.2s3.1-1.3,5.8-4.7c1.6-2.2,3.6-3.7,4.8-4.2s3.6-2.4,4.9-5.8c0.2-0.5,0.6-1,1-1.3c2-1.4,5.4-2.8,8.6-1.3
		C532.1,166.7,539.8,172.3,538.7,179.3z M532,152.4c-4.2-1.2-5.8-4.3-4.5-8.5l3.6-12.2l4.4,1.3l-3.7,12.7c-0.8,2.7-0.4,4.6,2.1,5.4
		c2.2,0.7,3.9-0.7,4.6-3.4l3.7-12.7l1.6,0.5l-3.6,12.2C539,151.9,536.5,153.8,532,152.4z M546.8,217.9L546.8,217.9
		c-0.2,0-0.3,0-0.5,0c-0.1,0-0.1,0-0.2,0c-0.3,0-0.5,0-0.8,0c-0.4,0-0.8,0-1.2,0c-0.3,0-0.5,0-0.8,0c-0.2,0-0.4,0-0.6,0
		c-0.2,0-0.5,0-0.7,0c-0.3,0-0.6,0-0.9,0c-0.1,0-0.1,0-0.2,0c0,0,0,0-0.1,0h-0.4v-1.1l0,0c0-0.1,0-0.2,0-0.3c0-0.2,0-0.4,0-0.6
		c0-0.4,0-0.8,0-1.2s0-0.8,0-1.2s0-0.7,0-1c0-0.4,0-0.7,0-1.1c0-0.3,0-0.6,0-0.9v-0.6h0.2c0.1,0,0.1,0,0.2,0l0,0c0.3,0,0.6,0,1,0
		c0.2,0,0.5,0,0.7,0c0.8,0,2.8,0,3.7,0c0.2,0,0.4,0,0.4,0h0.3v0.1c0,0,0,0.5,0,0.7v0.9h-0.6l0,0c-0.2,0-0.3,0-0.5,0
		c-0.4,0-0.7,0-1.1,0h-0.8c-0.4,0-0.8,0-1.2,0c-0.1,0-0.2,0-0.3,0h-0.1c0,0,0,1.4,0,1.5c0.2,0,0.4,0,0.5,0s0.1,0,0.2,0
		c0.2,0,0.5,0,0.7,0h0.1c0.1,0,0.3,0,0.4,0c0.2,0,0.3,0,0.4,0c0.2,0,0.4,0,0.6,0h0.5c0,0,0,0.8,0,1l0,0l0,0v0.1l0,0
		c0,0.1,0,0.1,0,0.2v0.2h-0.5l0,0c-0.1,0-0.2,0-0.3,0h-1c-0.5,0-1,0-1.6,0l0,0v0.1c0,0.4,0,1.1,0,1.5v0.1v0.1v0.1c0,0,0,0,0.1,0
		c0.6,0,1.1,0,1.7,0c0.1,0,2.2,0,2.3,0s0.2,0,0.2,0l0,0h0.1h0.2v0.3v0.1C546.9,216.8,546.8,217.9,546.8,217.9z M556.2,166.9l2.2-9.3
		c-0.2-0.2-0.5-0.4-0.7-0.6l-5.7,6l-3.4-3.1l13.2-14.3l3.4,3.1l0,0c3.3,3.1,6.4,7.6,3.5,10.8c-1.9,2.1-4.3,1.9-6.6,0.6l-2.2,10.1
		L556.2,166.9z M569.6,211.5C569.5,211.5,569.5,211.5,569.6,211.5c0,0.1-0.1,0.1-0.1,0.1c-0.2,0.2-0.5,0.4-0.7,0.6l0,0l-0.1,0.1
		l-0.1,0.1l0,0l-0.2,0.2l-0.1-0.1c0,0,0,0-0.1-0.1l-0.1-0.1c0,0,0-0.1-0.1-0.1c-0.4-0.4-0.9-0.7-1.5-0.8c-0.2,0-0.5-0.1-0.7-0.1
		c-0.8,0-1.4,0.2-2,0.7c-0.2,0.2-0.3,0.4-0.4,0.6c-0.2,0.4-0.3,0.8-0.3,1.2c0,0.5,0.1,0.9,0.4,1.3c0.3,0.5,0.7,0.9,1.2,1.1
		c0.4,0.2,0.8,0.2,1.2,0.2c0.7,0,1.3-0.2,1.8-0.6c0.1-0.1,0.1-0.1,0.2-0.2l0.1-0.1l0,0l0.2-0.1l0.1,0.1c0,0,0.1,0,0.1,0.1
		c0.1,0.1,0.2,0.2,0.3,0.3c0.2,0.2,0.4,0.4,0.6,0.6v0.1v0.1c-0.1,0.2-0.2,0.3-0.3,0.4l0,0c-0.6,0.5-1.3,0.9-2,1
		c-0.4,0.1-0.7,0.1-1.1,0.1c-0.1,0-0.2,0-0.3,0c-0.4,0-0.8-0.1-1.3-0.2c-1.1-0.3-2-1-2.6-2.1c-0.2-0.4-0.4-0.9-0.4-1.3v-0.1
		c0-0.2,0-0.4,0-0.5c0-0.5,0.1-1,0.3-1.6c0.2-0.4,0.5-0.9,0.8-1.2s0.7-0.6,1-0.8c0.4-0.2,0.8-0.4,1.2-0.4c0.3-0.1,0.5-0.1,0.8-0.1
		c0.8-0.1,1.7,0.1,2.6,0.5C568.6,210.7,569.1,211.1,569.6,211.5L569.6,211.5L569.6,211.5z M583.4,214.9c-0.1,0.4-0.3,0.7-0.5,1.1
		c-0.2,0.4-0.5,0.7-0.8,0.9c-0.1,0.1-0.3,0.3-0.5,0.4c-0.4,0.2-0.9,0.5-1.5,0.6c-0.4,0.1-0.7,0.1-1.1,0.1c-0.6,0-1.2-0.1-1.7-0.3
		c-0.3-0.1-0.5-0.2-0.7-0.3c-0.5-0.2-0.9-0.6-1.2-1c-0.5-0.6-0.8-1.2-0.9-1.8c-0.1-0.4-0.1-0.8,0-1.3c0-0.1,0-0.1,0-0.2
		c0-0.2,0-0.3,0.1-0.5c0.2-0.6,0.5-1.2,1-1.7c0.2-0.2,0.4-0.4,0.7-0.6c0.4-0.3,0.9-0.5,1.5-0.6c0.3-0.1,0.5-0.1,0.8-0.1
		c0.2,0,0.4,0,0.7,0c0.5,0,1,0.1,1.5,0.3h0.1c0.1,0.1,0.2,0.1,0.4,0.1c0.8,0.4,1.5,1.1,1.9,1.9c0.1,0.2,0.2,0.4,0.2,0.6
		c0,0.1,0,0.2,0,0.2v0.1c0,0.2,0.1,0.5,0.1,0.7C583.6,214.2,583.5,214.6,583.4,214.9z M578.3,183.4l-9.8,3.8l-1.7-4.3l9.5-3.7
		l6.3-9.3l1.8,4.6l-5.2,7.6l8.8,1.7l0.7,1.7L578.3,183.4z M590.9,217.9h-2.1V216h2.1V217.9z"/>
</g>
</svg>
