<?xml version="1.0" encoding="utf-8"?>
<!-- Generator: Adobe Illustrator 26.5.2, SVG Export Plug-In . SVG Version: 6.00 Build 0)  -->
<svg version="1.1" id="Layer_1" xmlns="http://www.w3.org/2000/svg" xmlns:xlink="http://www.w3.org/1999/xlink" x="0px" y="0px"
	 viewBox="0 0 757 337" style="enable-background:new 0 0 757 337;" xml:space="preserve">
<style type="text/css">
	.st0{fill:#003B4A;}
	.st1{fill:#C1B6CD;}
</style>
<g>
	<path class="st0" d="M318.59,300.97l-0.84,1.28c-0.33-0.01-1.68,0.06-3.41-1.08c-2.24-1.47-3.53-4.46-1.64-7.36
		c2.07-3.17,5.56-2.83,7.41-1.61c1.45,0.95,1.99,2.07,2.07,2.22l-0.58,1.42c-0.12-0.26-0.4-1.3-1.52-2.04
		c-1.52-0.99-3.38-0.43-4.74,1.65c-1.45,2.22-0.85,3.98,0.67,4.97C317.02,301.08,318.34,301,318.59,300.97z"/>
	<path class="st0" d="M333.18,305.36c-1.45,2.92-4.46,3.75-7.41,2.28c-2.95-1.46-4.12-4.35-2.68-7.28c1.45-2.92,4.46-3.75,7.41-2.28
		C333.45,299.55,334.62,302.44,333.18,305.36z M330.61,302.92c1.17-2.36,0.65-3.55-0.48-4.11c-1.14-0.56-2.51-0.02-3.56,2.11
		l-0.91,1.84c-1.17,2.36-0.67,3.58,0.47,4.14c1.14,0.56,2.41,0.22,3.58-2.14L330.61,302.92z"/>
	<path class="st0" d="M350.25,305.89l-3.24,9.81l-2.7-0.89l2.32-7.04l-5.69,4.61l-1.94-7.13l-2.32,7.04l-1.18-0.39l3.24-9.81
		l2.88,0.95l1.43,5.57l4.45-3.63L350.25,305.89z"/>
	<path class="st0" d="M352.06,316.81l2.16-10.1l2.78,0.59l-2.16,10.1L352.06,316.81z"/>
	<path class="st0" d="M369.56,309.14l-1.24,10.26l-2.12-0.26l-4.24-8.35l-0.93,7.73l-1.23-0.15l1.24-10.26l3.28,0.39l3.29,6.49
		l0.72-6L369.56,309.14z"/>
	<path class="st0" d="M382.95,314.47l-0.07,4.22c-0.16,0.1-2.03,1.28-4.13,1.24c-2.99-0.05-5.67-1.85-5.61-5.3
		c0.07-4.11,3.47-5.41,5.65-5.37c1.62,0.03,2.43,0.62,2.58,0.7l0.33,1.46c-0.24-0.15-1.09-0.95-2.43-0.97
		c-1.76-0.03-2.97,1.5-3.01,4.17c-0.04,2.52,1.49,4.04,3.16,4.07c0.23,0,0.43-0.01,0.63-0.04l0.07-4.21L382.95,314.47z"/>
	<path class="st0" d="M398.13,308.7c-0.54,0.1-0.99,0.46-0.89,0.99c0.1,0.53,0.66,0.75,1.05,0.87c0.41,0.12,1.02,0.32,2.13,0.67
		c1.04,0.33,2.46,0.86,2.79,2.69c0.39,2.18-1.21,3.7-3.52,4.12c-2.13,0.39-3.76-0.69-4.08-0.86l0.64-1.27
		c0.6,0.28,1.91,0.95,2.91,0.77c0.74-0.13,1.47-0.58,1.31-1.46c-0.15-0.81-1.12-1.04-1.47-1.15c-0.41-0.13-1.52-0.46-2.05-0.62
		c-0.54-0.17-1.91-0.63-2.23-2.37c-0.31-1.72,0.98-3.15,3.03-3.52c1.52-0.28,2.66,0.23,3.05,0.4l-0.5,1.16
		C399.88,308.9,398.97,308.55,398.13,308.7z"/>
	<path class="st0" d="M417.25,307.95c0.96,3.12-0.66,5.79-3.81,6.75c-3.15,0.97-5.99-0.33-6.95-3.44c-0.96-3.12,0.66-5.79,3.81-6.75
		C413.45,303.54,416.29,304.83,417.25,307.95z M413.71,307.95c-0.77-2.52-1.96-3.03-3.18-2.65c-1.21,0.37-1.83,1.71-1.14,3.98
		l0.6,1.97c0.77,2.52,1.97,3.06,3.19,2.69c1.21-0.37,1.9-1.49,1.13-4.01L413.71,307.95z"/>
	<path class="st0" d="M431.04,301.87c1.37,2.96,0.11,5.82-2.88,7.2s-5.98,0.47-7.35-2.49c-1.37-2.96-0.11-5.82,2.88-7.2
		C426.69,298.01,429.68,298.91,431.04,301.87z M427.53,302.34c-1.1-2.39-2.35-2.74-3.5-2.21c-1.15,0.53-1.59,1.94-0.6,4.1l0.86,1.87
		c1.1,2.39,2.36,2.77,3.52,2.24c1.15-0.53,1.69-1.73,0.58-4.13L427.53,302.34z"/>
	<path class="st0" d="M439.27,290.87l5.46,8.78l-1.82,1.13l-8.53-3.86l4.11,6.61l-1.06,0.66l-5.46-8.78l2.8-1.74l6.63,3l-3.19-5.14
		L439.27,290.87z"/>
</g>
<path class="st0" d="M368.35,211.97c-0.19-0.25-0.46-0.41-0.82-0.49c-0.17-0.04-0.35-0.06-0.54-0.06c-0.71-0.01-1.43-0.02-2.13-0.02
	l-0.19,0c-0.02,0-0.03,0-0.05,0.01c-0.03,0.26-0.03,0.52-0.03,0.77c0,0.23,0,0.47-0.02,0.71c-0.02,0.27-0.02,0.63-0.01,0.92
	c0,0.1,0,0.19,0,0.28c0.13,0.01,0.26,0,0.4-0.01c0.13-0.01,0.26-0.01,0.39-0.01c0.43,0.01,0.94,0.02,1.46,0.01
	c0.19,0,0.39-0.02,0.58-0.05c0.07-0.01,0.13-0.01,0.2-0.02c0.02,0,0.06-0.02,0.09-0.03l0.02-0.01c0.33-0.13,0.58-0.4,0.74-0.73
	C368.67,212.78,368.64,212.35,368.35,211.97z"/>
<path class="st0" d="M379.23,175.84c-0.26,0.11-0.5,0.27-0.72,0.46c-0.2,0.19-0.39,0.38-0.58,0.58l-0.53,0.61
	c-0.35,0.4-0.72,0.74-1.16,1.01c-0.11,0.07-0.22,0.13-0.33,0.19l-0.17,0.09l-0.19,0.11c-0.25,0.15-0.5,0.34-0.68,0.59
	c-0.19,0.25-0.33,0.54-0.38,0.85c-0.06,0.31-0.03,0.61,0.03,0.9c0.03,0.14,0.07,0.29,0.1,0.39c0.02,0.11,0.03,0.24,0.04,0.36
	c0.01,0.25-0.02,0.51-0.08,0.75c-0.1,0.5-0.36,0.97-0.76,1.34c0.24-0.13,0.46-0.31,0.64-0.52c0.18-0.22,0.32-0.46,0.42-0.73
	c0.1-0.27,0.16-0.55,0.19-0.83c0.01-0.14,0.02-0.29,0-0.44c-0.02-0.17-0.05-0.28-0.06-0.4c-0.03-0.25-0.03-0.48,0.03-0.71
	c0.05-0.22,0.15-0.42,0.29-0.6c0.14-0.18,0.32-0.34,0.52-0.47l0.16-0.1l0.18-0.11c0.12-0.07,0.23-0.15,0.35-0.23
	c0.46-0.32,0.87-0.74,1.2-1.17c0.33-0.43,0.65-0.85,1.01-1.24c0.17-0.18,0.37-0.34,0.6-0.46c0.23-0.11,0.48-0.2,0.73-0.25
	c0.52-0.1,1.06-0.08,1.59,0.02c-0.51-0.17-1.06-0.24-1.61-0.19C379.77,175.67,379.5,175.74,379.23,175.84z"/>
<path class="st0" d="M427.08,156.69c1.9-2.05,1.68-4.45-1.02-6.96l-5.89,6.35C422.9,158.62,425.32,158.58,427.08,156.69z"/>
<path class="st0" d="M368.12,183.92c-1.24,0.32-1.99,1.53-2.96,2.53c-0.58,0.61-1.38,0.69-1.64,0.82c-0.16,0.08-0.23,0.27-0.15,0.43
	c0.41,0.85,0.92,1.38,1.45,1.71c0.83,0.51,1.85,0.6,2.77,0.31c1.27-0.41,2.22-1.2,2.78-1.81c0.41-0.46,0.68-1.02,0.75-1.63
	C371.33,184.25,369.22,183.64,368.12,183.92z"/>
<path class="st0" d="M380.18,213.77c-0.04-0.1-0.08-0.21-0.12-0.31c-0.06-0.17-0.5-1.67-0.56-1.79c-0.07,0.14-0.86,2.39-0.97,2.66
	c-0.03,0.07-0.05,0.12-0.06,0.16c0.04,0,0.09,0.01,0.17,0.01c0.4,0,0.99,0.01,1.39,0.01l0.39,0c0.03,0,0.05,0,0.08,0
	c-0.02-0.05-0.04-0.09-0.06-0.14C380.34,214.17,380.26,213.97,380.18,213.77z"/>
<path class="st0" d="M315.42,177.21c2.09,2.03,4.13,4.18,6.36,6.34l2.62-5.53l-8.98-0.84C315.38,177.26,315.46,177.11,315.42,177.21
	z"/>
<path class="st0" d="M317.34,214.4c-0.26-0.01-0.53-0.02-0.79-0.02l-0.13,0c-0.47-0.01-0.93-0.02-1.4-0.02l-0.18,0
	c-0.03,0-0.04,0-0.05,0c0,0.17,0,0.44-0.01,0.62c0,0.38-0.01,0.83-0.01,1.24c0.03,0,0.05,0.01,0.07,0.01c0.36,0,0.72,0.01,1.09,0.01
	c0.49,0,1,0.01,1.49,0.01c0,0,0.01,0,0.01,0c0.34,0,0.58-0.16,0.75-0.47c0.15-0.27,0.13-0.55-0.05-0.81
	C317.97,214.69,317.7,214.42,317.34,214.4z"/>
<path class="st0" d="M314.9,212.94c0.28,0.01,0.57,0.01,0.84,0.01h0.01c0.21,0,0.42,0,0.63,0c0.23,0,0.47,0,0.7,0c0,0,0,0,0.01,0
	c0.27,0,0.49-0.15,0.69-0.37c0.22-0.24,0.19-0.62,0.07-0.88c-0.08-0.16-0.2-0.26-0.37-0.29c-0.13-0.02-0.28-0.04-0.43-0.05
	c-0.08-0.01-0.16-0.01-0.24,0c-0.04,0-0.09,0-0.13,0l-0.63-0.01c-0.33,0-0.66-0.01-0.99-0.01l-0.03,0c-0.06,0-0.12,0-0.17,0
	c0,0,0,0,0,0.01c0,0.01,0,0.02,0,0.02c0,0.01,0,0.02,0,0.03l-0.04,1.51C314.85,212.93,314.88,212.94,314.9,212.94z"/>
<path class="st0" d="M442.14,211.58c-0.07-0.03-0.14-0.06-0.21-0.08c-0.08-0.03-0.16-0.06-0.24-0.1c-0.24-0.1-0.5-0.15-0.84-0.16
	c-0.02,0-0.04,0-0.06,0c-0.47,0-0.94,0.11-1.44,0.33c-0.04,0.02-0.07,0.03-0.09,0.05c-0.3,0.2-0.54,0.41-0.72,0.67
	c-0.31,0.43-0.47,0.91-0.49,1.42c-0.01,0.35,0.07,0.7,0.23,1.07c0.26,0.58,0.7,1.09,1.33,1.36c0.37,0.16,0.78,0.23,1.35,0.23l0.01,0
	c0.47,0.03,0.99-0.18,1.43-0.46c0.68-0.43,1.03-1.01,1.13-1.72c0.06-0.47,0.03-0.84-0.09-1.18
	C443.18,212.31,442.75,211.84,442.14,211.58z"/>
<path class="st1" d="M362.69,192.76c-0.48-0.54-1.53-1.38-2.64-0.69c-1.41,0.89-2.32-0.52-1.7-1.18c0.62-0.67,1.38-0.57,2.36-1.17
	s1.11-1.66,0.95-2.28c-0.15-0.62,0.77-1.23,1.57-1.54c0.8-0.32,2.44-1.14,2.27-2.97c0,0-17.16,8.22-16.63,15.16
	c0,0.04,0.05,0.07,0.08,0.05c4.55-1.95,11.22-4.68,13.63-5.07C362.74,193.05,362.79,192.88,362.69,192.76z"/>
<path class="st1" d="M363.23,193.74c0.03-0.22-0.18-0.39-0.39-0.33c-3.08,0.89-11.56,4.23-13.24,4.89c-0.05,0.02-0.03,0.1,0.02,0.09
	c5.16-0.4,11.37-2.84,12.73-3.67C362.87,194.4,363.19,194.07,363.23,193.74z"/>
<path class="st1" d="M390.99,165.49c-3.18-1.47-6.65-0.1-8.61,1.28c-0.46,0.33-0.83,0.78-1.04,1.3c-1.37,3.46-3.77,5.32-4.94,5.83
	c-1.24,0.55-3.18,2.06-4.79,4.24c-2.74,3.36-5.84,4.66-5.84,4.66s0.03,0.69-0.07,1.21c-0.18,1.25-2.04,2.04-2.82,2.45
	c-0.78,0.41-0.99,0.73-0.87,1.21c0.02,0.07,0.04,0.25,0.05,0.32c0.1,0.75-0.27,1.49-0.91,1.91c-0.58,0.39-1.33,0.72-1.88,0.88
	c-0.8,0.23-0.86,0.75-0.5,1.08c0.37,0.33,1.09-0.11,1.72-0.4c0.63-0.29,1.4,0.04,1.69,0.25c0.29,0.22,0.74,0.59,0.99,0.85
	c0.31,0.33,0.97,0.05,1.27-0.02c1.5-0.36,4.09-0.99,4.37-1.04c0.38-0.08,1.97-0.02,3.24-0.43c1.03-0.33,3.25,0.16,4.11,0.31
	c0.23,0.04,0.6-0.14,1.09-0.08c1.33,0.17,2.91,0.39,3.15,0.44c0.33,0.06,1.69,0.23,2.44,0.41c0.75,0.18,1,0.44,0.91,0.64
	c-0.92,1.09-1.65,1.06-2.36,0.96c-0.54-0.07-1.69-0.44-1.63-0.9c0.03-0.24,0.23-0.41,0.41-0.52c0.09-0.05,0.06-0.18-0.04-0.19
	c-0.66-0.08-2-0.26-2.44-0.32c-0.6-0.08-1.05,0.16-1.44,0.09c-0.39-0.06-1.48-0.27-2.27-0.36c-0.79-0.09-1.59,0.04-1.93,0.08
	c-0.35,0.03-1.08,0.26-1.93,0.32s-2.35,0.15-3.98,0.58c-1.63,0.43-2.7,0.72-2.7,0.72c0.3,0.3,0.18,0.72,0,1.05
	c-0.08,0.15,0.06,0.33,0.23,0.27c1.25-0.42,4.47-1.31,7.53-0.58c2.52,0.61,7.26,0.38,8.42,0.43c1.16,0.04,5.68,0.52,6.54,0.66
	c2.35,0.4,3.83-1.31,5.14-1.69c0.13-0.04,0.22-0.18,0.17-0.31c-0.03-0.08-0.1-0.15-0.26-0.14c-0.57,0-0.91-0.16-0.88-0.51
	c0.02-0.33,0.38-0.52,0.89-0.36c0.56,0.18,1.43-0.06,1.17-0.74c-0.05-0.14-0.2-0.23-0.35-0.22c-0.33,0.02-0.89,0.13-1.4,0.18
	c-0.69,0.07-1.36,0.67-2.09,0.85c-0.73,0.17-1.67,0.08-2.24-0.12c-0.57-0.2-1.81-0.71-3.51-0.53c0,0,2.22-0.82,3.24-0.76
	c0.62,0.04,1.28,0.19,1.8,0.39c0.7,0.26,1.5-0.25,1.81-0.92c0.28-0.61,0.33-0.94,0.14-1.74c0.81,1.18,0.26,1.57-0.04,2.32
	c-0.07,0.17,0.11,0.34,0.28,0.26c0.42-0.19,1.01-0.36,1.54-0.43c0.25-0.03,0.41-0.28,0.33-0.52c-0.4-1.2-0.04-2.13,0.29-3.05
	c-2.07-0.67-1.77-2.08-1.77-2.08c-0.6,0.25-1,0.81-1.29,1.39c-0.24,0.49-0.37,1.01-0.46,1.54c-0.29,1.84-1.57,1.72-2.1,1.75
	c-0.14,0.01-0.34-0.03-0.56-0.11c-1.05-0.37-1.79-1.3-2.01-2.38c-0.44-2.17-2.08-3.13-3.13-3.47c-0.16-0.05-0.27,0.16-0.13,0.25
	c4.12,2.9,1.07,6.35-1.3,5.78c1.26,1.04,3.7,0.4,4.29-0.36c-0.17,1.89-2.76,1.53-3.06,1.49c-0.68-0.09-2.05-0.2-2.05-0.2l-7.17-0.58
	c-0.26-0.02-0.42-0.3-0.31-0.54c0.47-1.01,1.52-3.23,1.8-3.59c0.37-0.47,1.22-0.5,1.42-0.1c1.49,2.96,3.93,3,3.93,3
	c-4.52-2.45-2.33-7.49-0.69-8.62c3.54-2.59,9.01-1.16,10.58-0.08c1.48,1.02,2.82,3.49,2.93,5.18c0.01,0.11,0.12,0.19,0.23,0.14
	c0,0,0,0,0,0c0.31-0.13,0.6-0.32,0.88-0.53c0.28-0.22,0.52-0.48,0.76-0.76l0.16-0.22l0.18-0.24c0.13-0.17,0.29-0.32,0.46-0.45
	c0.34-0.26,0.71-0.42,1.1-0.54c0.38-0.12,0.77-0.18,1.17-0.2c0.06,0,0.11,0.04,0.11,0.1c0,0.05-0.04,0.1-0.09,0.11l-0.01,0
	c-0.72,0.13-1.46,0.42-1.96,0.9c-0.12,0.12-0.24,0.25-0.31,0.4l-0.06,0.11l-0.07,0.13l-0.15,0.26c-0.22,0.34-0.45,0.68-0.74,0.98
	c-0.27,0.28-0.57,0.54-0.92,0.75c1.08,0.44,2.59-0.44,2.98-1.07c0.5-0.8,0.64-0.8,1.72-1.27c1.08-0.47,1.47-0.94,2.16-2.04
	s1.22-1.43,1.22-1.43s0.28-0.28,0.56-1.1C401.55,172.31,393.89,166.74,390.99,165.49z M370.37,187.92
	c-0.55,0.62-1.51,1.41-2.78,1.81c-0.93,0.3-1.95,0.21-2.77-0.31c-0.53-0.33-1.05-0.86-1.45-1.71c-0.08-0.16-0.01-0.35,0.15-0.43
	c0.26-0.13,1.06-0.22,1.64-0.82c0.97-1,1.71-2.21,2.96-2.53c1.09-0.28,3.2,0.33,3,2.36C371.06,186.89,370.78,187.46,370.37,187.92z
	 M380.07,175.82c-0.26,0.05-0.5,0.13-0.73,0.25c-0.23,0.12-0.43,0.28-0.6,0.46c-0.36,0.39-0.67,0.81-1.01,1.24
	c-0.33,0.43-0.73,0.85-1.2,1.17c-0.12,0.08-0.23,0.16-0.35,0.23l-0.18,0.11l-0.16,0.1c-0.21,0.13-0.38,0.29-0.52,0.47
	c-0.14,0.18-0.23,0.38-0.29,0.6c-0.05,0.22-0.05,0.46-0.03,0.71c0.01,0.13,0.04,0.24,0.06,0.4c0.01,0.15,0.01,0.3,0,0.44
	c-0.03,0.29-0.09,0.57-0.19,0.83c-0.1,0.26-0.25,0.51-0.42,0.73c-0.18,0.21-0.4,0.39-0.64,0.52c0.4-0.37,0.66-0.84,0.76-1.34
	c0.06-0.25,0.08-0.5,0.08-0.75c-0.01-0.12-0.02-0.25-0.04-0.36c-0.02-0.1-0.07-0.25-0.1-0.39c-0.06-0.28-0.09-0.59-0.03-0.9
	c0.05-0.31,0.19-0.6,0.38-0.85c0.18-0.25,0.43-0.44,0.68-0.59l0.19-0.11l0.17-0.09c0.12-0.06,0.22-0.13,0.33-0.19
	c0.44-0.27,0.81-0.61,1.16-1.01l0.53-0.61c0.19-0.2,0.38-0.39,0.58-0.58c0.22-0.19,0.46-0.35,0.72-0.46c0.26-0.1,0.54-0.18,0.81-0.2
	c0.55-0.04,1.1,0.02,1.61,0.19C381.13,175.73,380.58,175.72,380.07,175.82z"/>
<path class="st1" d="M371.61,177.7c1.03-1.9,3.62-3.73,4.29-4.07c2.88-1.14,4.99-5.71,4.99-5.71c-1.62,0.3-2.97,1.73-3.68,2.75
	s-1.81,1.95-3.56,3.66C371.89,176.05,371.7,176.77,371.61,177.7z"/>
<path class="st1" d="M398.88,182.46c-0.37,0.52-1,1.29-1.94,1.76c-0.51,0.25-1.1,0.51-1.27,0.76c1.07,0.03,1.18,0.25,1.45,0.54
	c0.27,0.29,2.33-0.4,2.48-2.03c0.07-1.21,0.19-1.9,0.55-2.71C400.15,180.77,399.45,181.41,398.88,182.46z"/>
<path class="st1" d="M310.61,174.29l14.77,14.66l0.59-1.25c-0.74-0.74-3.11-3.12-3.11-3.12c1.01-2.12,2-4.22,3.02-6.37l4.38,0.44
	l2.29-4.83l-20.94-1.63L310.61,174.29z M315.42,177.17l8.98,0.84l-2.62,5.53c-2.23-2.16-4.26-4.31-6.36-6.34
	C315.46,177.11,315.38,177.26,315.42,177.17z"/>
<path class="st1" d="M336.9,142.96l-1.33,1.08l8.36,10.31c1.76,2.18,1.98,4.29,0.16,5.76c-2,1.62-3.83,0.82-5.6-1.35l-8.36-10.31
	l-3.59,2.91l8.04,9.91c2.75,3.39,6.16,3.83,9.56,1.08c3.67-2.97,3.55-6.08,0.78-9.49L336.9,142.96z"/>
<path class="st1" d="M368.12,151.23c4.65-0.93,7.87-4.67,6.56-11.21l-0.39-1.95c-2.7,0.54-5.15,1.01-7.71,1.56l-2.26,0.45l0.35,1.75
	l5.28-1.05c0.96,4.8,0.97,8.38-2.07,8.98c-2.79,0.56-4.86-3.03-5.76-7.55c-0.98-4.9-0.64-8.4,2.58-9.04c2.5-0.5,4.06,1.86,4.22,2.04
	c0.43-0.69,1.02-1.62,1.58-2.51c-1.16-0.66-3.21-1.48-6.07-0.9c-4.97,0.99-8.78,5.11-7.51,11.46
	C358.1,149.19,362.64,152.32,368.12,151.23z"/>
<path class="st1" d="M403.92,134.99l-3.73,12.74c-0.79,2.69-2.4,4.06-4.65,3.41c-2.47-0.72-2.85-2.69-2.07-5.37l3.73-12.74
	l-4.44-1.3l-3.59,12.25c-1.23,4.19,0.35,7.25,4.55,8.48c4.53,1.33,7.02-0.54,8.25-4.75l3.58-12.23L403.92,134.99z"/>
<path class="st1" d="M430.43,159.57c2.96-3.19-0.14-7.76-3.45-10.83l0,0l-3.39-3.15l-13.24,14.26l3.39,3.15l5.63-6.06
	c0.23,0.22,0.47,0.43,0.71,0.64l-2.16,9.29l3.71,3.45l2.16-10.1C426.16,161.44,428.52,161.63,430.43,159.57z M420.16,156.08
	l5.89-6.35c2.7,2.5,2.92,4.9,1.02,6.96C425.32,158.58,422.9,158.62,420.16,156.08z"/>
<polygon class="st1" points="440.95,182.07 446.16,174.5 444.38,169.95 438.03,179.27 428.57,182.97 430.25,187.28 440.05,183.45 
	450.46,185.53 449.78,183.79 "/>
<path class="st1" d="M318.7,213.62c0,0-0.01-0.01-0.01-0.01c0,0,0.01-0.01,0.01-0.01c0.56-0.3,0.89-0.87,1-1.44
	c0.08-0.39-0.01-0.79-0.21-1.17c-0.3-0.58-0.72-0.96-1.27-1.13c-0.33-0.1-0.7-0.16-1.09-0.16c-0.29,0-0.58,0-0.87,0
	c-0.35,0-0.72,0-1.07,0c-0.39-0.01-1.31-0.01-1.65,0v0h-0.4v0.59h0c0,0.03,0,0.06,0,0.08c-0.01,0.24-0.02,0.48-0.03,0.73
	c-0.02,0.62-0.02,1.24-0.02,1.84c0,0.26,0,0.51,0,0.77l0,0.2c0,0.23,0,0.46-0.01,0.69c0,0.08-0.01,0.17-0.02,0.26
	c-0.01,0.1-0.02,0.21-0.02,0.32c-0.01,0.66-0.01,1.33-0.01,1.98l0,0.2h0v0.5h0.29l0,0c0.07,0,0.15,0,0.26,0h0c0.5,0,1.39,0,1.94,0
	H316c0.22,0,0.44,0,0.65,0c0.42,0,0.84,0.01,1.27-0.04c0.47-0.05,0.9-0.22,1.29-0.54c0.28-0.22,0.49-0.52,0.63-0.88
	c0.25-0.64,0.23-1.24-0.03-1.82C319.55,213.99,318.73,213.64,318.7,213.62z M314.86,211.38c0-0.01,0-0.02,0-0.02c0,0,0,0,0-0.01
	c0.06,0,0.11,0,0.17,0l0.03,0c0.33,0,0.66,0.01,0.99,0.01l0.63,0.01c0.04,0,0.09,0,0.13,0c0.09,0,0.17,0,0.24,0
	c0.15,0.01,0.29,0.03,0.43,0.05c0.17,0.03,0.29,0.12,0.37,0.29c0.12,0.26,0.15,0.63-0.07,0.88c-0.19,0.22-0.42,0.37-0.69,0.37
	c0,0,0,0-0.01,0c-0.23,0-0.47,0-0.7,0c-0.21,0-0.42,0-0.63,0h-0.01c-0.28,0-0.56,0-0.84-0.01c-0.02,0-0.05,0-0.07-0.01l0.04-1.51
	C314.86,211.41,314.86,211.39,314.86,211.38z M318.19,215.76c-0.17,0.32-0.41,0.47-0.75,0.47c0,0-0.01,0-0.01,0
	c-0.5,0-1-0.01-1.49-0.01c-0.36,0-0.72,0-1.09-0.01c-0.02,0-0.04,0-0.07-0.01c0-0.41,0-0.85,0.01-1.24c0-0.18,0-0.45,0.01-0.62
	c0.01,0,0.02,0,0.05,0l0.18,0c0.47,0.01,0.93,0.02,1.4,0.02l0.13,0c0.26,0.01,0.53,0.01,0.79,0.02c0.36,0.02,0.62,0.29,0.8,0.55
	C318.32,215.22,318.34,215.49,318.19,215.76z"/>
<path class="st1" d="M332.11,216.29h-0.24c-0.03-0.01-0.05-0.01-0.08-0.01h-0.01c-0.07,0-0.15,0-0.23,0.01
	c-0.11,0.02-2.27,0.04-2.35,0.04c-0.52,0-1.04,0-1.66-0.01c-0.05,0-0.07,0-0.08-0.01c0-0.01-0.01-0.03-0.01-0.07
	c0-0.03,0-0.06,0-0.09l0-0.1c0-0.43,0-1.1,0.01-1.54c0-0.02,0-0.05,0-0.07c0.02,0,0.03,0,0.05,0c0.52,0,1.04,0,1.56,0l1.03,0
	c0.11,0,0.21,0,0.32,0l0,0h0.51l0.02-0.25c0.01-0.07,0.02-0.14,0.02-0.2l0-0.03c0-0.04,0-0.07,0-0.1c0,0,0,0,0-0.01c0,0,0,0,0-0.01
	c0.02-0.18-0.01-0.97-0.01-0.97l-0.47,0c-0.2,0-0.39,0-0.58,0c-0.15,0-0.29,0-0.44,0c-0.14,0-0.28,0-0.42,0l-0.14,0
	c-0.22,0-0.46,0-0.68,0c-0.08,0-0.11,0-0.19,0c-0.16,0-0.38,0-0.55-0.01c-0.02-0.1,0-1.46,0.01-1.5c0.04-0.01,0.11-0.01,0.14-0.01
	c0.12,0,0.24,0,0.34,0c0.39,0,0.78,0,1.18,0l0.82,0c0.36,0,0.73,0,1.09,0c0.16,0,0.32,0,0.49,0v0h0.56v-0.85
	c0.01-0.12,0.02-0.61,0-0.66v-0.14c0,0-0.23-0.01-0.27-0.01c-0.04,0-0.19,0-0.41,0c-0.85,0-2.83,0-3.67,0c-0.24,0-0.49,0-0.73,0
	c-0.32,0-0.64,0-0.96,0c-0.01,0-0.02,0-0.03,0c-0.04,0-0.1,0-0.16,0.01h-0.21v0.62c0,0.31,0,0.63,0,0.94c0,0.36,0,0.73,0,1.09
	c0,0.35,0,0.7,0,1.04c0,0.42,0,0.82,0,1.23c0,0.39,0,0.77,0,1.17c0,0.21,0,0.41,0,0.62c0,0.11,0,0.22,0,0.33l0,0v1.1h0.37
	c0.02,0,0.04,0,0.07,0c0.07,0,0.15,0,0.22,0c0.3,0,0.6,0,0.89,0c0.23,0,0.45,0,0.68,0c0.21,0,0.42,0,0.63-0.01
	c0.26,0,0.54-0.01,0.8-0.01c0.41,0,0.82,0,1.22,0.01c0.27,0,0.54,0,0.82,0.01c0.08,0,0.15,0,0.22,0c0.1,0,0.21,0,0.35,0h0.11
	c0,0,0.1-1.04,0.1-1.11c-0.01-0.07-0.02-0.1-0.03-0.14V216.29z"/>
<path class="st1" d="M343.51,209.7l-0.05,0.07c-0.06,0.08-0.08,0.17-0.1,0.25c-0.01,0.03-0.02,0.07-0.03,0.09
	c-0.1,0.26-0.2,0.53-0.3,0.79c-0.11,0.3-0.23,0.6-0.34,0.9c-0.08,0.21-0.17,0.43-0.25,0.64c-0.09,0.24-0.14,0.62-0.24,0.86
	l-0.05,0.12c-0.13,0.35-0.27,0.85-0.39,1.22c-0.07,0.22-0.16,0.45-0.25,0.66c-0.02,0.04-0.03,0.08-0.05,0.12
	c-0.02-0.05-0.04-0.1-0.07-0.15c-0.03-0.08-0.07-0.16-0.1-0.24c-0.05-0.12-0.1-0.23-0.16-0.35c-0.08-0.18-0.16-0.5-0.24-0.68
	c-0.21-0.5-0.49-1.19-0.77-1.87c-0.2-0.49-0.41-0.98-0.61-1.47l-0.19-0.47c-0.02-0.05-0.05-0.11-0.07-0.17
	c-0.03-0.07-0.07-0.15-0.09-0.2c0-0.01-0.01-0.02-0.01-0.03l-0.04-0.08h-2.04l0.1,0.22c0.08,0.18,0.18,0.39,0.27,0.6
	c0.06,0.14,0.13,0.29,0.19,0.41c0.09,0.19,0.17,0.39,0.26,0.58c0.1,0.24,0.21,0.48,0.31,0.71c0.14,0.32,0.27,0.63,0.41,0.95
	c0.08,0.17,0.15,0.35,0.23,0.52c0.15,0.33,0.3,0.68,0.44,1.02c0.18,0.45,0.38,0.89,0.57,1.32c0.12,0.27,0.24,0.55,0.36,0.82
	l0.14,0.32c0.04,0.1,0.08,0.2,0.12,0.31c0.01,0.02,0.02,0.04,0.03,0.06c0,0.01,0.01,0.02,0.01,0.03c0,0,0,0,0,0l0.12,0.28h1.67
	l0.17-0.42c0,0,0-0.01,0-0.01l0.12-0.3c0.06-0.15,0.12-0.31,0.18-0.47l0.01-0.03c0.09-0.23,0.18-0.45,0.26-0.68
	c0.11-0.29,0.22-0.58,0.34-0.88c0.09-0.24,0.19-0.49,0.28-0.73c0.04-0.09,0.07-0.19,0.11-0.28c0.04-0.09,0.08-0.19,0.11-0.28
	c0.06-0.16,0.12-0.31,0.17-0.47c0.13-0.35,0.26-0.72,0.42-1.06c0.03-0.06,0.05-0.12,0.07-0.18c0.01-0.03,0.02-0.06,0.03-0.09
	c0.04-0.1,0.08-0.2,0.12-0.31c0.11-0.29,0.22-0.59,0.34-0.88c0.06-0.16,0.14-0.31,0.21-0.47c0.05-0.1,0.1-0.21,0.14-0.31
	c0.03-0.06,0.04-0.13,0.02-0.19l-0.03-0.12H343.51z"/>
<path class="st1" d="M357.19,216.29h-0.24c-0.03-0.01-0.05-0.01-0.08-0.01h-0.01c-0.07,0-0.15,0-0.23,0.01
	c-0.11,0.02-2.27,0.04-2.35,0.04c-0.52,0-1.04,0-1.66-0.01c-0.05,0-0.07,0-0.08-0.01c0-0.01-0.01-0.03-0.01-0.07
	c0-0.03,0-0.06,0-0.09l0-0.1c0-0.43,0-1.1,0.01-1.54c0-0.02,0-0.05,0-0.07c0.02,0,0.03,0,0.05,0c0.52,0,1.04,0,1.56,0l1.03,0
	c0.11,0,0.21,0,0.32,0l0,0h0.51l0.02-0.25c0.01-0.07,0.02-0.14,0.02-0.2l0-0.03c0-0.04,0-0.07,0-0.1c0,0,0,0,0-0.01c0,0,0,0,0-0.01
	c0.02-0.18-0.01-0.97-0.01-0.97l-0.47,0c-0.2,0-0.39,0-0.58,0c-0.15,0-0.29,0-0.44,0c-0.14,0-0.28,0-0.42,0l-0.14,0
	c-0.22,0-0.46,0-0.68,0c-0.08,0-0.11,0-0.19,0c-0.16,0-0.38,0-0.55-0.01c-0.02-0.1,0-1.46,0.01-1.5c0.04-0.01,0.11-0.01,0.14-0.01
	c0.12,0,0.24,0,0.34,0c0.39,0,0.78,0,1.18,0l0.82,0c0.36,0,0.73,0,1.09,0c0.16,0,0.32,0,0.49,0v0h0.56v-0.85
	c0.01-0.12,0.02-0.61,0-0.66v-0.14c0,0-0.23-0.01-0.27-0.01c-0.04,0-0.19,0-0.41,0c-0.85,0-2.83,0-3.67,0c-0.24,0-0.49,0-0.73,0
	c-0.32,0-0.64,0-0.96,0c-0.01,0-0.02,0-0.03,0c-0.04,0-0.1,0-0.16,0.01h-0.21v0.62c0,0.31,0,0.63,0,0.94c0,0.36,0,0.73,0,1.09
	c0,0.35,0,0.7,0,1.04c0,0.42,0,0.82,0,1.23c0,0.39,0,0.77,0,1.17c0,0.21,0,0.41,0,0.62c0,0.11,0,0.22,0,0.33l0,0v1.1h0.37
	c0.02,0,0.04,0,0.07,0c0.07,0,0.15,0,0.22,0c0.3,0,0.6,0,0.89,0c0.23,0,0.45,0,0.68,0c0.21,0,0.42,0,0.63-0.01
	c0.26,0,0.54-0.01,0.8-0.01c0.41,0,0.82,0,1.22,0.01c0.27,0,0.54,0,0.82,0.01c0.08,0,0.15,0,0.22,0c0.1,0,0.21,0,0.35,0h0.11
	c0,0,0.1-1.04,0.1-1.11c-0.01-0.07-0.02-0.1-0.03-0.14V216.29z"/>
<path class="st1" d="M368.55,215.37c0.48-0.2,0.88-0.51,1.19-0.9c0.29-0.37,0.47-0.73,0.55-1.1c0.14-0.6,0.1-1.18-0.12-1.75
	c-0.23-0.61-0.65-1.1-1.24-1.45c-0.47-0.28-1.05-0.45-1.56-0.47h-3.03c-0.45,0-0.83,0-1.03,0h-0.01c-0.06,0-0.11,0.01-0.17,0.01
	c-0.03,0-0.06,0.01-0.1,0.01l-0.15,0.01l0.01,0.15c0.01,0.23,0,0.45-0.01,0.66c-0.01,0.23-0.02,0.47,0,0.7c0,0.04,0,0.08,0,0.12
	l0,0.02c0,0.08-0.01,0.17-0.01,0.25c-0.01,0.17-0.02,0.34-0.02,0.51c0,0.25-0.01,0.5-0.01,0.74c0,0.41-0.01,0.82-0.02,1.24
	c0,0.1-0.01,0.21-0.02,0.31c-0.01,0.16-0.02,0.32-0.02,0.48c0,0.18,0,0.36,0,0.51c0,0.23,0,0.46,0,0.69c0,0.36,0,0.73-0.01,1.09l0,0
	l-0.04,0.63h1.6l0.04-0.03c0.01-0.01,0.02-0.02,0.04-0.03l0.04-0.04l0.01-0.06c0-0.01,0-0.02,0.01-0.03
	c0.01-0.04,0.02-0.08,0.02-0.13c0.02-0.5,0.03-0.92,0.04-1.31c0-0.11,0-0.21,0-0.31c0-0.11,0-0.22,0-0.32c0-0.01,0-0.03,0-0.04
	c0.09,0,0.2,0,0.31,0c0.23,0,0.51,0,0.61,0c0.09,0.01,0.15,0.03,0.28,0.16c0.26,0.26,0.48,0.51,0.74,0.76
	c0.08,0.08,0.16,0.16,0.25,0.23c0.14,0.13,0.28,0.27,0.42,0.4c0.23,0.22,0.48,0.45,0.71,0.68c0.01,0.01,0.02,0.02,0.03,0.03
	l0.04,0.04h2.38l-0.17-0.24c-0.02-0.03-0.05-0.06-0.07-0.07c0,0-0.01-0.01-0.01-0.01l-0.15-0.13c-0.34-0.31-0.69-0.62-1.04-0.93
	c-0.04-0.04-0.09-0.08-0.13-0.12c-0.14-0.12-0.27-0.24-0.39-0.37c-0.05-0.06-0.11-0.1-0.16-0.14c-0.03-0.02-0.05-0.04-0.07-0.06
	c-0.05-0.04-0.16-0.13-0.26-0.23C368.08,215.53,368.3,215.47,368.55,215.37L368.55,215.37z M367.7,213.98l-0.02,0.01
	c-0.03,0.01-0.07,0.03-0.09,0.03c-0.07,0.01-0.13,0.01-0.2,0.02c-0.19,0.02-0.39,0.04-0.58,0.05c-0.51,0.01-1.03,0-1.46-0.01
	c-0.13,0-0.26,0-0.39,0.01c-0.14,0.01-0.27,0.01-0.4,0.01c0-0.09,0-0.19,0-0.28c-0.01-0.3-0.01-0.65,0.01-0.92
	c0.02-0.24,0.02-0.48,0.02-0.71c0-0.25,0-0.51,0.03-0.77c0.02,0,0.04-0.01,0.05-0.01l0.19,0c0.7,0,1.42,0.01,2.13,0.02
	c0.19,0,0.37,0.02,0.54,0.06c0.36,0.08,0.63,0.24,0.82,0.49c0.29,0.38,0.32,0.81,0.09,1.28
	C368.28,213.58,368.03,213.85,367.7,213.98z"/>
<path class="st1" d="M383.17,216.78c-0.04-0.11-0.09-0.21-0.14-0.32c-0.04-0.09-0.08-0.18-0.11-0.27c-0.05-0.12-0.1-0.23-0.15-0.35
	c-0.13-0.3-0.26-0.6-0.38-0.9c-0.12-0.29-0.23-0.58-0.35-0.87c-0.12-0.31-0.25-0.62-0.37-0.93c-0.17-0.41-0.34-0.82-0.5-1.22
	c-0.15-0.35-0.3-0.72-0.45-1.08c-0.1-0.23-0.19-0.48-0.27-0.71l-0.03-0.09c-0.04-0.11-0.08-0.19-0.13-0.24l-0.05-0.1l-0.32,0
	l-0.07,0c-0.26,0-0.52,0-0.79,0c-0.05,0-0.09,0.01-0.13,0.01c-0.02,0-0.04,0.01-0.07,0.01l-0.09,0.01l-0.1,0.24
	c-0.05,0.11-0.1,0.22-0.14,0.33c-0.06,0.14-0.12,0.29-0.18,0.43c-0.12,0.29-0.25,0.59-0.38,0.88c-0.14,0.31-0.28,0.62-0.42,0.93
	c-0.07,0.16-0.15,0.33-0.22,0.49l-0.01,0.03c-0.05,0.11-0.1,0.23-0.15,0.35c-0.12,0.31-0.26,0.61-0.39,0.91
	c-0.11,0.25-0.22,0.5-0.32,0.75c-0.05,0.13-0.16,0.38-0.29,0.68c-0.44,1.02-0.64,1.5-0.72,1.74l-0.13,0.35h0.29l0,0h0
	c0.51,0,0.88,0,1.11,0h0c0.05,0,0.09,0,0.13,0c0.01,0,0.03,0,0.04,0l0.26,0l0.19-0.49c0.04-0.1,0.08-0.21,0.13-0.32
	c0.06-0.15,0.13-0.31,0.2-0.47c0.07-0.16,0.14-0.33,0.2-0.48c0.03-0.07,0.05-0.08,0.13-0.08c0.16,0,0.32,0.01,0.48,0.01
	c0.17,0,0.34,0,0.51,0.01c0.13,0,0.27,0.01,0.4,0.01c0.15,0.01,0.31,0.01,0.46,0.02c0.38,0.01,0.75,0.01,1.12,0.01
	c0.06,0,0.08,0.01,0.1,0.07c0.03,0.09,0.06,0.18,0.1,0.27c0.24,0.53,0.41,0.96,0.51,1.28c0.01,0.02,0.02,0.05,0.03,0.07l0.04,0.1
	h0.38c0.14,0,0.32,0,0.5,0c0.14,0,0.27,0,0.39,0h0.62l-0.17-0.43C383.35,217.21,383.26,216.99,383.17,216.78z M380.4,214.5l-0.39,0
	c-0.39,0-0.98-0.01-1.39-0.01c-0.07,0-0.13,0-0.17-0.01c0.01-0.04,0.03-0.09,0.06-0.16c0.12-0.27,0.91-2.52,0.97-2.66
	c0.05,0.12,0.49,1.62,0.56,1.79c0.04,0.1,0.08,0.21,0.12,0.31c0.08,0.2,0.16,0.4,0.25,0.59c0.02,0.05,0.04,0.09,0.06,0.14
	C380.46,214.5,380.43,214.5,380.4,214.5z"/>
<path class="st1" d="M396.46,216.34c0-0.08,0-0.17,0-0.25c0-0.24-0.01-0.49,0-0.73c0-0.06-0.01-0.13-0.02-0.18
	c-0.01-0.05-0.02-0.11-0.01-0.14c0.03-0.17,0.03-0.33,0.03-0.48c0-0.11,0-0.2,0.01-0.3c0.01-0.12,0.01-0.24,0-0.35
	c0-0.03,0-0.06,0-0.09c0-0.09,0.01-0.2-0.04-0.31l-0.03-0.08l-0.09-0.01c-0.24-0.03-0.47-0.03-0.7-0.02c-0.1,0-0.21,0-0.31,0
	c-0.34-0.01-0.68-0.01-1.03,0c-0.14,0-0.28,0-0.43-0.01c-0.18-0.01-0.37-0.02-0.56-0.01c-0.22,0.02-0.45,0-0.69-0.01
	c-0.11-0.01-0.22-0.01-0.33-0.02l-0.12,0l-0.03,0.11c-0.01,0.03-0.01,0.05-0.02,0.07c-0.01,0.04-0.03,0.08-0.03,0.13
	c-0.01,0.3-0.02,0.54-0.02,0.87c0,0.07,0.02,0.14,0.04,0.19c0.01,0.02,0.01,0.04,0.02,0.06l0.03,0.1l0.11,0.01
	c0.1,0.01,0.19,0.01,0.29,0.02c0.21,0.01,0.42,0.02,0.62,0.04c0.14,0.01,0.27,0,0.41,0c0.16-0.01,0.3-0.01,0.45,0.01
	c0.14,0.02,0.29,0.01,0.43,0.01c0.12,0,0.33,0,0.45,0.01c0.02,0.14-0.06,0.58-0.22,0.77c-0.28,0.34-0.58,0.53-0.97,0.69
	c-0.4,0.16-0.9,0.17-1.43,0.14c-0.79-0.04-1.43-0.51-1.91-1.11c-0.39-0.49-0.46-1.06-0.46-1.58l0-0.05c0-0.11,0-0.23,0.02-0.35
	l0-0.02c0.01-0.26,0.04-0.43,0.14-0.61c0.13-0.27,0.16-0.49,0.36-0.68l0.02-0.01c0.05-0.05,0.1-0.1,0.15-0.16
	c0.29-0.35,0.79-0.61,1.3-0.7c0.4-0.07,0.84-0.09,1.19-0.05c0.63,0.08,1.15,0.28,1.54,0.66c0.04,0.04,0.07,0.08,0.11,0.12l0.03,0.04
	c0,0,0,0,0,0l0.29,0.33l0.4-0.39h0c0.11-0.11,0.17-0.18,0.29-0.31c0.04-0.04,0.07-0.08,0.11-0.11c0.1-0.1,0.2-0.21,0.3-0.34
	l0.07-0.1l-0.09-0.09c-0.03-0.03-0.06-0.06-0.09-0.09c-0.06-0.06-0.12-0.12-0.17-0.18c-0.11-0.14-0.25-0.27-0.44-0.39
	c-0.3-0.2-0.63-0.41-1.02-0.55c-0.45-0.16-0.87-0.26-1.29-0.29c-0.49-0.04-0.98,0.02-1.44,0.09c-0.58,0.09-1.14,0.31-1.71,0.68
	c-0.37,0.24-0.7,0.55-1.03,0.98c-0.49,0.62-0.76,1.37-0.83,2.21c-0.02,0.26-0.02,0.49,0.01,0.7c0.07,0.58,0.23,1.15,0.49,1.62
	c0.17,0.31,0.35,0.57,0.55,0.79c0.38,0.42,0.78,0.68,1.22,0.91c0.64,0.33,1.28,0.5,2,0.5c0.02,0,0.04,0,0.06,0
	c0.31,0,0.5-0.03,0.79-0.08c0.36-0.06,0.95-0.17,1.64-0.78c0.01-0.01,0.02-0.01,0.03-0.01c0,0,0,0.01,0,0.01
	c0.01,0.07,0.24,0.63,0.24,0.63l0.1,0.03c0.01,0,0.03,0.01,0.04,0.01c0.03,0.01,0.07,0.02,0.11,0.02c0.28,0,0.24,0.01,0.63,0.01
	h0.46l-0.01-1.11C396.46,216.61,396.46,216.48,396.46,216.34z"/>
<path class="st1" d="M408.65,216.29h-0.24c-0.03-0.01-0.05-0.01-0.08-0.01h-0.01c-0.07,0-0.15,0-0.23,0.01
	c-0.11,0.02-2.27,0.04-2.35,0.04c-0.52,0-1.04,0-1.66-0.01c-0.05,0-0.07,0-0.08-0.01c0-0.01-0.01-0.03-0.01-0.07
	c0-0.03,0-0.06,0-0.09l0-0.1c0-0.43,0-1.1,0.01-1.54c0-0.02,0-0.05,0-0.07c0.02,0,0.03,0,0.05,0c0.52,0,1.04,0,1.56,0l1.03,0
	c0.11,0,0.21,0,0.32,0l0,0h0.51l0.02-0.25c0.01-0.07,0.02-0.14,0.02-0.2l0-0.03c0-0.04,0-0.07,0-0.1c0,0,0,0,0-0.01c0,0,0,0,0-0.01
	c0.02-0.18-0.01-0.97-0.01-0.97l-0.47,0c-0.2,0-0.39,0-0.58,0c-0.15,0-0.29,0-0.44,0c-0.14,0-0.28,0-0.42,0l-0.14,0
	c-0.22,0-0.46,0-0.68,0c-0.08,0-0.11,0-0.19,0c-0.16,0-0.38,0-0.55-0.01c-0.02-0.1,0-1.46,0.01-1.5c0.04-0.01,0.11-0.01,0.14-0.01
	c0.12,0,0.24,0,0.34,0c0.39,0,0.78,0,1.18,0l0.82,0c0.36,0,0.73,0,1.09,0c0.16,0,0.32,0,0.49,0v0h0.56v-0.85
	c0.01-0.12,0.02-0.61,0-0.66v-0.14c0,0-0.23-0.01-0.27-0.01c-0.04,0-0.19,0-0.41,0c-0.85,0-2.83,0-3.67,0c-0.24,0-0.49,0-0.73,0
	c-0.32,0-0.64,0-0.96,0c-0.01,0-0.02,0-0.03,0c-0.04,0-0.1,0-0.16,0.01h-0.21v0.62c0,0.31,0,0.63,0,0.94c0,0.36,0,0.73,0,1.09
	c0,0.35,0,0.7,0,1.04c0,0.42,0,0.82,0,1.23c0,0.39,0,0.77,0,1.17c0,0.21,0,0.41,0,0.62c0,0.11,0,0.22,0,0.33l0,0v1.1h0.37
	c0.02,0,0.04,0,0.07,0c0.07,0,0.15,0,0.22,0c0.3,0,0.6,0,0.89,0c0.23,0,0.45,0,0.68,0c0.21,0,0.42,0,0.63-0.01
	c0.26,0,0.54-0.01,0.8-0.01c0.41,0,0.82,0,1.22,0.01c0.27,0,0.54,0,0.82,0.01c0.08,0,0.15,0,0.22,0c0.1,0,0.21,0,0.35,0h0.11
	c0,0,0.1-1.04,0.1-1.11c-0.01-0.07-0.02-0.1-0.03-0.14V216.29z"/>
<path class="st1" d="M429.79,210.05c-0.89-0.4-1.73-0.57-2.58-0.51c-0.28,0.02-0.56,0.07-0.83,0.11c-0.39,0.06-0.77,0.21-1.21,0.45
	c-0.37,0.2-0.71,0.47-1.02,0.78c-0.35,0.36-0.62,0.77-0.81,1.21c-0.25,0.6-0.36,1.09-0.34,1.58c0,0.18,0.02,0.37,0.04,0.54
	c0,0.04,0.01,0.09,0.01,0.13c0.04,0.44,0.17,0.87,0.4,1.3c0.58,1.08,1.45,1.8,2.59,2.12c0.51,0.15,0.91,0.22,1.28,0.24
	c0.1,0.01,0.2,0.01,0.3,0.01c0.36,0,0.72-0.04,1.07-0.11c0.74-0.16,1.4-0.49,2.01-1.01l0,0c0.12-0.1,0.25-0.21,0.32-0.38l0.04-0.08
	l-0.05-0.07c-0.18-0.25-0.38-0.45-0.59-0.65c-0.09-0.08-0.18-0.17-0.26-0.26c-0.04-0.04-0.08-0.07-0.12-0.08l-0.1-0.09l-0.16,0.13
	c-0.02,0.01-0.03,0.02-0.05,0.04c-0.04,0.04-0.08,0.07-0.12,0.11c-0.07,0.07-0.13,0.13-0.21,0.18c-0.48,0.37-1.06,0.56-1.76,0.58
	c-0.4,0.01-0.81-0.06-1.25-0.23c-0.59-0.22-0.93-0.57-1.24-1.08c-0.24-0.38-0.35-0.81-0.36-1.32c0-0.38,0.11-0.78,0.32-1.17
	c0.13-0.23,0.2-0.43,0.4-0.6c0.55-0.47,1.21-0.7,1.96-0.69c0.24,0,0.49,0.03,0.74,0.07c0.62,0.11,1.11,0.37,1.49,0.79
	c0.02,0.02,0.04,0.05,0.06,0.07c0.03,0.04,0.07,0.08,0.11,0.12c0.02,0.02,0.05,0.04,0.08,0.06l0.14,0.14l0.21-0.17c0,0,0,0,0,0
	c0.04-0.03,0.07-0.06,0.11-0.09l0.06-0.05h0c0.24-0.2,0.48-0.4,0.72-0.59c0.03-0.03,0.06-0.06,0.07-0.09
	c0.01-0.01,0.01-0.02,0.02-0.04l0.06-0.09l-0.06-0.09C430.92,210.76,430.41,210.34,429.79,210.05z"/>
<path class="st1" d="M445.21,212.85c-0.01-0.08-0.02-0.16-0.05-0.24c-0.07-0.21-0.15-0.41-0.25-0.6c-0.41-0.86-1.05-1.52-1.9-1.95
	c-0.11-0.06-0.23-0.11-0.35-0.15c-0.03-0.01-0.07-0.03-0.1-0.04c-0.53-0.22-1.07-0.29-1.53-0.33c-0.25-0.02-0.42-0.01-0.66,0.01
	c-0.22,0.02-0.49,0.07-0.75,0.13c-0.57,0.13-1.06,0.33-1.48,0.62c-0.26,0.18-0.49,0.38-0.7,0.6c-0.46,0.49-0.8,1.06-0.99,1.69
	c-0.05,0.16-0.07,0.32-0.09,0.48c-0.01,0.08-0.02,0.15-0.03,0.22c-0.08,0.45-0.03,0.88,0.05,1.29c0.11,0.63,0.4,1.25,0.86,1.84
	c0.32,0.41,0.71,0.74,1.18,1c0.22,0.12,0.46,0.24,0.71,0.33c0.56,0.19,1.13,0.28,1.73,0.28c0.35,0,0.7-0.03,1.07-0.09
	c0.59-0.1,1.09-0.38,1.45-0.61c0.2-0.13,0.36-0.25,0.5-0.38c0.26-0.24,0.55-0.54,0.77-0.9c0.22-0.36,0.39-0.73,0.5-1.1
	c0.11-0.36,0.16-0.76,0.16-1.23c0.01-0.22-0.05-0.52-0.09-0.73C445.23,212.94,445.22,212.9,445.21,212.85z M443.54,214.2
	c-0.1,0.71-0.45,1.29-1.13,1.72c-0.44,0.27-0.96,0.49-1.43,0.46l-0.01,0c-0.57,0-0.98-0.08-1.35-0.23
	c-0.64-0.27-1.07-0.78-1.33-1.36c-0.17-0.37-0.24-0.73-0.23-1.07c0.01-0.51,0.18-0.99,0.49-1.42c0.18-0.25,0.42-0.47,0.72-0.67
	c0.02-0.02,0.05-0.03,0.09-0.05c0.5-0.22,0.98-0.33,1.44-0.33c0.02,0,0.04,0,0.06,0c0.34,0.01,0.6,0.06,0.84,0.16
	c0.08,0.03,0.16,0.07,0.24,0.1c0.07,0.03,0.14,0.05,0.21,0.08c0.61,0.26,1.04,0.73,1.31,1.44
	C443.57,213.36,443.6,213.74,443.54,214.2z"/>
<rect x="450.59" y="215.91" class="st1" width="2.09" height="1.95"/>
<path class="st0" d="M800.54,205.17c-6.41-1.64-12.03-5.72-16.08-11.37c-0.25-0.35-0.76-0.35-1.02,0
	c-3.68,5.13-8.65,8.97-14.33,10.86c-1.03,0.34-2.12,0.47-3.21,0.47l-279.37,0c-0.13,0-0.25-0.01-0.38-0.02
	c-1.9-0.09-3.75-1-5.21-2.22c-1.14-0.95-2.26-2.1-3.32-3.38c-0.17-0.23-0.34-0.45-0.5-0.69v0.07c-2.63-3.39-4.77-7.73-5.51-12.53
	c-5.06-40.31-35.67-72.65-75.11-80.31c-1.58-0.31-3.17-0.67-4.68-1.23c-4.03-1.5-7.48-3.78-9.96-6.28c-1.84-1.86-2.8-4.41-2.8-7.02
	l0-111.27c0-0.89,0.1-1.78,0.37-2.62c1.85-5.81,5.74-10.88,10.95-14.62c0.35-0.25,0.35-0.76,0-1.02
	c-5.65-4.05-9.73-9.66-11.37-16.08c-0.14-0.56-0.91-0.56-1.06,0c-1.64,6.41-5.72,12.03-11.37,16.08c-0.35,0.25-0.35,0.76,0,1.02
	c5.22,3.74,9.1,8.82,10.95,14.62c0.27,0.84,0.37,1.73,0.37,2.62l0,111.27c0,2.61-0.96,5.16-2.8,7.02c-2.48,2.51-5.92,4.79-9.96,6.28
	c-1.51,0.56-3.09,0.93-4.68,1.23c-39.44,7.66-70.05,40.01-75.11,80.31c-0.75,4.86-2.93,9.25-5.61,12.66
	c-1.17,1.49-2.44,2.8-3.72,3.88c-1.54,1.29-3.52,1.94-5.53,1.94H-9c-1.09,0-2.18-0.12-3.21-0.47c-5.69-1.89-10.66-5.73-14.34-10.86
	c-0.25-0.35-0.76-0.35-1.02,0c-4.05,5.65-9.66,9.73-16.08,11.37c-0.56,0.14-0.56,0.91,0,1.06c6.41,1.64,12.03,5.72,16.08,11.37
	c0.25,0.35,0.76,0.35,1.02,0c3.68-5.13,8.65-8.97,14.33-10.86c1.03-0.34,2.12-0.47,3.21-0.47l279.37,0c2.29,0,4.49,0.87,6.14,2.45
	c1.15,1.09,2.25,2.4,3.26,3.86c0.21,0.3,0.42,0.6,0.62,0.92c2.88,4.53,4.24,9.86,4.24,15.22v7.51c0,3.04,2.46,5.5,5.5,5.5l65.53,0
	c5.7,0,11.36,1.54,16.04,4.8c3.03,2.11,5.33,4.63,6.58,7.08c0.1,0.19,0.34,0.19,0.43,0c2.4-4.73,8.74-9.69,16.63-11.54
	c1.09-0.26,2.21-0.34,3.32-0.34c9.1,0,52.69,0,68.2,0c3.04,0,5.49-2.46,5.49-5.5v-7.51c0-5.37,1.36-10.69,4.24-15.22
	c0.85-1.33,1.78-2.54,2.75-3.61c0.49-0.49,0.99-0.95,1.49-1.37c1.1-0.93,2.44-1.52,3.84-1.78c0.64-0.11,1.29-0.16,1.95-0.16v0H765.9
	c1.09,0,2.18,0.12,3.21,0.47c5.69,1.89,10.66,5.73,14.34,10.86c0.25,0.35,0.76,0.35,1.02,0c4.05-5.65,9.66-9.73,16.08-11.37
	C801.1,206.08,801.1,205.31,800.54,205.17z M377.21,170.67c0.71-1.03,2.06-2.45,3.68-2.75c0,0-2.1,4.58-4.99,5.71
	c-0.67,0.34-3.26,2.16-4.29,4.07c0.09-0.93,0.27-1.65,2.03-3.36C375.4,172.62,376.5,171.7,377.21,170.67z M364.42,131.78
	c2.86-0.57,4.91,0.24,6.07,0.9c-0.55,0.89-1.14,1.82-1.58,2.51c-0.16-0.18-1.72-2.54-4.22-2.04c-3.22,0.64-3.56,4.15-2.58,9.04
	c0.9,4.53,2.97,8.11,5.76,7.55c3.04-0.61,3.03-4.18,2.07-8.98l-5.28,1.05l-0.35-1.75l2.26-0.45c2.56-0.55,5.02-1.02,7.71-1.56
	l0.39,1.95c1.31,6.54-1.92,10.28-6.56,11.21c-5.48,1.09-10.02-2.04-11.21-7.99C355.65,136.89,359.45,132.78,364.42,131.78z
	 M319.85,216.4c-0.14,0.36-0.35,0.66-0.63,0.88c-0.4,0.32-0.82,0.49-1.29,0.54c-0.43,0.04-0.86,0.04-1.27,0.04
	c-0.21,0-0.43,0-0.65,0h-0.49c-0.55,0-1.43,0-1.94,0h0c-0.1,0-0.19,0-0.26,0l0,0h-0.29v-0.5h0l0-0.2c0-0.65,0-1.32,0.01-1.98
	c0-0.11,0.01-0.21,0.02-0.32c0.01-0.09,0.01-0.17,0.02-0.26c0.01-0.23,0.01-0.46,0.01-0.69l0-0.2c0-0.26,0-0.51,0-0.77
	c0-0.6,0-1.23,0.02-1.84c0.01-0.24,0.02-0.49,0.03-0.73c0-0.03,0-0.06,0-0.08h0v-0.59h0.4v0c0.34,0,1.26,0,1.65,0
	c0.36,0.01,0.72,0,1.07,0c0.28,0,0.58,0,0.87,0c0.39,0,0.76,0.06,1.09,0.16c0.55,0.17,0.97,0.55,1.27,1.13
	c0.2,0.39,0.29,0.79,0.21,1.17c-0.11,0.57-0.44,1.14-1,1.44c0,0-0.01,0.01-0.01,0.01c0,0,0.01,0.01,0.01,0.01
	c0.03,0.02,0.85,0.37,1.11,0.96C320.08,215.15,320.09,215.76,319.85,216.4z M332.04,217.85h-0.11c-0.14,0-0.25,0-0.35,0
	c-0.07,0-0.14,0-0.22,0c-0.27,0-0.54,0-0.82-0.01c-0.4,0-0.82-0.01-1.22-0.01c-0.27,0-0.54,0-0.8,0.01c-0.21,0-0.42,0-0.63,0.01
	c-0.23,0-0.45,0-0.68,0c-0.29,0-0.59,0-0.89,0c-0.07,0-0.15,0-0.22,0c-0.02,0-0.04,0-0.07,0h-0.37v-1.1l0,0c0-0.11,0-0.22,0-0.33
	c0-0.21,0-0.41,0-0.62c0-0.4,0-0.79,0-1.17c0-0.41,0-0.81,0-1.23c0-0.35,0-0.7,0-1.04c0-0.36,0-0.73,0-1.09c0-0.32,0-0.63,0-0.94
	v-0.62h0.21c0.06-0.02,0.12-0.02,0.16-0.01c0.01,0,0.02,0,0.03,0c0.32,0,0.64,0,0.96,0c0.24,0,0.49,0,0.73,0c0.84,0,2.82,0,3.67,0
	c0.23,0,0.38,0,0.41,0c0.04,0,0.27,0.01,0.27,0.01v0.14c0.02,0.04,0.01,0.54,0,0.66v0.85h-0.56v0c-0.17,0-0.33,0-0.49,0
	c-0.36,0-0.73,0-1.09,0l-0.82,0c-0.39,0-0.78,0-1.18,0c-0.11,0-0.23,0-0.34,0c-0.03,0-0.11,0-0.14,0.01
	c-0.01,0.03-0.03,1.39-0.01,1.5c0.17,0.01,0.38,0.01,0.55,0.01c0.08,0,0.11,0,0.19,0c0.23,0,0.46,0,0.68,0l0.14,0
	c0.14,0,0.28,0,0.42,0c0.15,0,0.29,0,0.44,0c0.19,0,0.38,0,0.58,0l0.47,0c0,0,0.04,0.8,0.01,0.97c0,0.01,0,0.01,0,0.01
	c0,0,0,0,0,0.01c0,0.03,0,0.07,0,0.1l0,0.03c0,0.06-0.01,0.13-0.02,0.2l-0.02,0.25h-0.51l0,0c-0.11,0-0.22,0-0.32,0l-1.03,0
	c-0.52,0-1.04,0-1.56,0c-0.02,0-0.03,0-0.05,0c0,0.03,0,0.05,0,0.07c0,0.44,0,1.1-0.01,1.54l0,0.1c0,0.03,0,0.06,0,0.09
	c0,0.04,0.01,0.06,0.01,0.07c0.01,0,0.03,0.01,0.08,0.01c0.62,0,1.13,0.01,1.66,0.01c0.08,0,2.23-0.02,2.35-0.04
	c0.08-0.01,0.16-0.01,0.23-0.01h0.01c0.03,0,0.06,0,0.08,0.01h0.24v0.31c0.01,0.04,0.02,0.07,0.03,0.14
	C332.14,216.81,332.04,217.85,332.04,217.85z M330.25,178.66l-4.38-0.44c-1.02,2.15-2.01,4.25-3.02,6.37c0,0,2.37,2.38,3.11,3.12
	l-0.59,1.25l-14.77-14.66l0.99-2.09l20.94,1.63L330.25,178.66z M345.4,210.01c-0.05,0.11-0.09,0.21-0.14,0.31
	c-0.07,0.15-0.14,0.31-0.21,0.47c-0.12,0.29-0.23,0.59-0.34,0.88c-0.04,0.1-0.08,0.2-0.12,0.31c-0.01,0.03-0.02,0.06-0.03,0.09
	c-0.02,0.06-0.04,0.12-0.07,0.18c-0.16,0.34-0.3,0.71-0.42,1.06c-0.06,0.15-0.11,0.31-0.17,0.47c-0.04,0.09-0.07,0.19-0.11,0.28
	c-0.04,0.09-0.08,0.19-0.11,0.28c-0.09,0.24-0.19,0.49-0.28,0.73c-0.11,0.29-0.22,0.58-0.34,0.88c-0.09,0.23-0.18,0.45-0.26,0.68
	l-0.01,0.03c-0.06,0.16-0.12,0.31-0.18,0.47l-0.12,0.3c0,0,0,0.01,0,0.01l-0.17,0.42h-1.67l-0.12-0.28c0,0,0,0,0,0
	c0-0.01-0.01-0.02-0.01-0.03c-0.01-0.02-0.02-0.04-0.03-0.06c-0.04-0.1-0.08-0.2-0.12-0.31l-0.14-0.32
	c-0.12-0.28-0.24-0.55-0.36-0.82c-0.19-0.43-0.39-0.88-0.57-1.32c-0.14-0.34-0.29-0.69-0.44-1.02c-0.08-0.17-0.16-0.35-0.23-0.52
	c-0.14-0.32-0.28-0.63-0.41-0.95c-0.1-0.24-0.21-0.48-0.31-0.71c-0.08-0.19-0.17-0.39-0.26-0.58c-0.06-0.13-0.12-0.27-0.19-0.41
	c-0.09-0.2-0.19-0.41-0.27-0.6l-0.1-0.22h2.04l0.04,0.08c0,0.01,0.01,0.02,0.01,0.03c0.02,0.05,0.05,0.13,0.09,0.2
	c0.03,0.06,0.05,0.12,0.07,0.17l0.19,0.47c0.2,0.49,0.4,0.98,0.61,1.47c0.28,0.68,0.56,1.36,0.77,1.87
	c0.08,0.18,0.16,0.51,0.24,0.68c0.05,0.12,0.1,0.23,0.16,0.35c0.03,0.08,0.07,0.16,0.1,0.24c0.02,0.05,0.04,0.1,0.07,0.15
	c0.02-0.04,0.03-0.08,0.05-0.12c0.09-0.22,0.18-0.44,0.25-0.66c0.12-0.37,0.25-0.87,0.39-1.22l0.05-0.12
	c0.09-0.24,0.14-0.62,0.24-0.86c0.08-0.21,0.17-0.43,0.25-0.64c0.12-0.3,0.23-0.6,0.34-0.9c0.1-0.26,0.2-0.53,0.3-0.79
	c0.01-0.03,0.02-0.06,0.03-0.09c0.02-0.08,0.04-0.17,0.1-0.25l0.05-0.07h1.89l0.03,0.12C345.43,209.88,345.43,209.95,345.4,210.01z
	 M344.14,162.35c-3.4,2.76-6.81,2.32-9.56-1.08l-8.04-9.91l3.59-2.91l8.36,10.31c1.76,2.18,3.6,2.97,5.6,1.35
	c1.82-1.47,1.6-3.58-0.16-5.76l-8.36-10.31l1.33-1.08l8.03,9.9C347.69,156.27,347.81,159.38,344.14,162.35z M348.87,198.1
	c-0.53-6.95,16.63-15.16,16.63-15.16c0.17,1.83-1.47,2.65-2.27,2.97c-0.8,0.32-1.72,0.92-1.57,1.54c0.15,0.63,0.02,1.68-0.95,2.28
	s-1.73,0.5-2.36,1.17c-0.62,0.67,0.29,2.07,1.7,1.18c1.11-0.7,2.15,0.15,2.64,0.69c0.1,0.11,0.04,0.29-0.11,0.32
	c-2.4,0.39-9.08,3.12-13.63,5.07C348.92,198.17,348.88,198.14,348.87,198.1z M357.12,217.85h-0.11c-0.14,0-0.25,0-0.35,0
	c-0.07,0-0.14,0-0.22,0c-0.27,0-0.54,0-0.82-0.01c-0.4,0-0.82-0.01-1.22-0.01c-0.27,0-0.54,0-0.8,0.01c-0.21,0-0.42,0-0.63,0.01
	c-0.23,0-0.45,0-0.68,0c-0.29,0-0.59,0-0.89,0c-0.07,0-0.15,0-0.22,0c-0.02,0-0.04,0-0.07,0h-0.37v-1.1l0,0c0-0.11,0-0.22,0-0.33
	c0-0.21,0-0.41,0-0.62c0-0.4,0-0.79,0-1.17c0-0.41,0-0.81,0-1.23c0-0.35,0-0.7,0-1.04c0-0.36,0-0.73,0-1.09c0-0.32,0-0.63,0-0.94
	v-0.62h0.21c0.06-0.02,0.12-0.02,0.16-0.01c0.01,0,0.02,0,0.03,0c0.32,0,0.64,0,0.96,0c0.24,0,0.49,0,0.73,0c0.84,0,2.82,0,3.67,0
	c0.23,0,0.38,0,0.41,0c0.04,0,0.27,0.01,0.27,0.01v0.14c0.02,0.04,0.01,0.54,0,0.66v0.85h-0.56v0c-0.17,0-0.33,0-0.49,0
	c-0.36,0-0.73,0-1.09,0l-0.82,0c-0.39,0-0.78,0-1.18,0c-0.11,0-0.23,0-0.34,0c-0.03,0-0.11,0-0.14,0.01
	c-0.01,0.03-0.03,1.39-0.01,1.5c0.17,0.01,0.38,0.01,0.55,0.01c0.08,0,0.11,0,0.19,0c0.23,0,0.46,0,0.68,0l0.14,0
	c0.14,0,0.28,0,0.42,0c0.15,0,0.29,0,0.44,0c0.19,0,0.38,0,0.58,0l0.47,0c0,0,0.04,0.8,0.01,0.97c0,0.01,0,0.01,0,0.01
	c0,0,0,0,0,0.01c0,0.03,0,0.07,0,0.1l0,0.03c0,0.06-0.01,0.13-0.02,0.2l-0.02,0.25h-0.51l0,0c-0.11,0-0.22,0-0.32,0l-1.03,0
	c-0.52,0-1.04,0-1.56,0c-0.02,0-0.03,0-0.05,0c0,0.03,0,0.05,0,0.07c0,0.44,0,1.1-0.01,1.54l0,0.1c0,0.03,0,0.06,0,0.09
	c0,0.04,0.01,0.06,0.01,0.07c0.01,0,0.03,0.01,0.08,0.01c0.62,0,1.13,0.01,1.66,0.01c0.08,0,2.23-0.02,2.35-0.04
	c0.08-0.01,0.16-0.01,0.23-0.01h0.01c0.03,0,0.06,0,0.08,0.01h0.24v0.31c0.01,0.04,0.02,0.07,0.03,0.14
	C357.22,216.81,357.12,217.85,357.12,217.85z M349.63,198.39c-0.05,0-0.07-0.07-0.02-0.09c1.67-0.66,10.16-4,13.24-4.89
	c0.21-0.06,0.41,0.11,0.39,0.33c-0.04,0.34-0.37,0.67-0.87,0.98C361,195.55,354.79,197.99,349.63,198.39z M368.11,215.79
	c0.02,0.02,0.05,0.04,0.07,0.06c0.05,0.04,0.11,0.08,0.16,0.14c0.12,0.13,0.25,0.25,0.39,0.37c0.04,0.04,0.09,0.08,0.13,0.12
	c0.35,0.31,0.7,0.62,1.04,0.93l0.15,0.13c0,0,0.01,0.01,0.01,0.01c0.02,0.02,0.05,0.04,0.07,0.07l0.17,0.24h-2.38l-0.04-0.04
	c-0.01-0.01-0.02-0.02-0.03-0.03c-0.24-0.23-0.48-0.46-0.71-0.68c-0.14-0.13-0.28-0.26-0.42-0.4c-0.08-0.08-0.16-0.16-0.25-0.23
	c-0.26-0.25-0.48-0.5-0.74-0.76c-0.13-0.13-0.19-0.15-0.28-0.16c-0.11,0-0.39,0-0.61,0c-0.11,0-0.22,0-0.31,0c0,0.01,0,0.03,0,0.04
	c0,0.11,0,0.22,0,0.32c0,0.1,0,0.21,0,0.31c-0.01,0.39-0.02,0.8-0.04,1.31c0,0.05-0.01,0.09-0.02,0.13c0,0.01,0,0.02-0.01,0.03
	l-0.01,0.06l-0.04,0.04c-0.01,0.01-0.02,0.02-0.04,0.03l-0.04,0.03h-1.6l0.04-0.63l0,0c0-0.36,0-0.73,0.01-1.09
	c0-0.23,0-0.46,0-0.69c0-0.15,0-0.33,0-0.51c0-0.16,0.01-0.33,0.02-0.48c0.01-0.1,0.01-0.21,0.02-0.31
	c0.01-0.41,0.02-0.83,0.02-1.24c0-0.24,0-0.49,0.01-0.74c0-0.17,0.01-0.34,0.02-0.51c0-0.08,0.01-0.17,0.01-0.25l0-0.02
	c0-0.04,0-0.08,0-0.12c-0.02-0.24-0.01-0.47,0-0.7c0.01-0.22,0.02-0.44,0.01-0.66l-0.01-0.15l0.15-0.01c0.04,0,0.07-0.01,0.1-0.01
	c0.06-0.01,0.11-0.01,0.17-0.01h0.01c0.2,0,0.58,0,1.03,0h3.03c0.5,0.01,1.09,0.19,1.56,0.47c0.59,0.35,1.01,0.84,1.24,1.45
	c0.21,0.56,0.25,1.15,0.12,1.75c-0.09,0.37-0.27,0.73-0.55,1.1c-0.31,0.4-0.71,0.7-1.19,0.9h0c-0.24,0.1-0.47,0.16-0.69,0.19
	C367.96,215.66,368.06,215.75,368.11,215.79z M382.99,217.86c-0.12,0-0.25,0-0.39,0c-0.18,0-0.36,0-0.5,0h-0.38l-0.04-0.1
	c-0.01-0.02-0.02-0.04-0.03-0.07c-0.1-0.32-0.27-0.75-0.51-1.28c-0.04-0.09-0.07-0.18-0.1-0.27c-0.02-0.06-0.04-0.07-0.1-0.07
	c-0.36,0-0.74,0-1.12-0.01c-0.15,0-0.31-0.01-0.46-0.02c-0.13-0.01-0.27-0.01-0.4-0.01c-0.17,0-0.34-0.01-0.51-0.01
	c-0.16,0-0.32,0-0.48-0.01c-0.07,0-0.1,0.02-0.13,0.08c-0.06,0.15-0.13,0.31-0.2,0.48c-0.07,0.16-0.14,0.32-0.2,0.47
	c-0.04,0.11-0.09,0.21-0.13,0.32l-0.19,0.49l-0.26,0c-0.02,0-0.03,0-0.04,0c-0.04,0-0.08,0-0.13,0h0c-0.24,0-0.61,0-1.11,0h0l0,0
	h-0.29l0.13-0.35c0.08-0.24,0.28-0.72,0.72-1.74c0.13-0.29,0.24-0.55,0.29-0.68c0.1-0.25,0.22-0.51,0.32-0.75
	c0.13-0.3,0.27-0.6,0.39-0.91c0.05-0.12,0.1-0.24,0.15-0.35l0.01-0.03c0.07-0.16,0.15-0.33,0.22-0.49c0.14-0.3,0.28-0.62,0.42-0.93
	c0.13-0.29,0.25-0.59,0.38-0.88c0.06-0.14,0.12-0.29,0.18-0.43c0.05-0.11,0.09-0.21,0.14-0.33l0.1-0.24l0.09-0.01
	c0.03,0,0.05-0.01,0.07-0.01c0.05-0.01,0.09-0.01,0.13-0.01c0.26,0,0.53,0,0.79,0l0.07,0l0.32,0l0.05,0.1
	c0.05,0.05,0.09,0.13,0.13,0.24l0.03,0.09c0.09,0.23,0.18,0.48,0.27,0.71c0.15,0.36,0.3,0.73,0.45,1.08c0.17,0.4,0.34,0.81,0.5,1.22
	c0.13,0.31,0.25,0.63,0.37,0.93c0.11,0.28,0.23,0.58,0.35,0.87c0.12,0.3,0.25,0.61,0.38,0.9c0.05,0.12,0.1,0.23,0.15,0.35
	c0.04,0.09,0.08,0.18,0.11,0.27c0.05,0.11,0.09,0.21,0.14,0.32c0.09,0.21,0.18,0.43,0.27,0.65l0.17,0.43H382.99z M396.01,217.85
	c-0.39,0-0.35,0-0.63-0.01c-0.04,0-0.08-0.01-0.11-0.02c-0.01,0-0.02-0.01-0.04-0.01l-0.1-0.03c0,0-0.23-0.56-0.24-0.63
	c0,0,0-0.01,0-0.01c-0.01,0.01-0.02,0.01-0.03,0.01c-0.7,0.61-1.29,0.72-1.64,0.78c-0.3,0.05-0.49,0.08-0.79,0.08
	c-0.02,0-0.04,0-0.06,0c-0.72,0-1.36-0.17-2-0.5c-0.44-0.23-0.84-0.5-1.22-0.91c-0.2-0.22-0.38-0.48-0.55-0.79
	c-0.26-0.47-0.43-1.04-0.49-1.62c-0.02-0.21-0.03-0.44-0.01-0.7c0.06-0.85,0.34-1.59,0.83-2.21c0.34-0.43,0.66-0.74,1.03-0.98
	c0.57-0.37,1.13-0.59,1.71-0.68c0.46-0.07,0.95-0.13,1.44-0.09c0.42,0.03,0.84,0.13,1.29,0.29c0.38,0.14,0.71,0.35,1.02,0.55
	c0.19,0.13,0.32,0.25,0.44,0.39c0.05,0.06,0.11,0.12,0.17,0.18c0.03,0.03,0.06,0.06,0.09,0.09l0.09,0.09l-0.07,0.1
	c-0.09,0.13-0.2,0.24-0.3,0.34c-0.04,0.04-0.07,0.08-0.11,0.11c-0.12,0.13-0.19,0.21-0.29,0.31h0l-0.4,0.39l-0.29-0.33c0,0,0,0,0,0
	l-0.03-0.04c-0.04-0.04-0.07-0.08-0.11-0.12c-0.39-0.38-0.92-0.58-1.54-0.66c-0.35-0.04-0.79-0.02-1.19,0.05
	c-0.51,0.09-1,0.35-1.3,0.7c-0.05,0.06-0.1,0.11-0.15,0.16l-0.02,0.01c-0.2,0.19-0.22,0.41-0.36,0.68
	c-0.09,0.19-0.13,0.35-0.14,0.61l0,0.02c-0.02,0.12-0.02,0.24-0.02,0.35l0,0.05c-0.01,0.52,0.07,1.09,0.46,1.58
	c0.48,0.6,1.12,1.06,1.91,1.11c0.53,0.03,1.03,0.01,1.43-0.14c0.4-0.15,0.69-0.35,0.97-0.69c0.15-0.19,0.24-0.63,0.22-0.77
	c-0.12-0.01-0.32-0.01-0.45-0.01c-0.14,0-0.28,0-0.43-0.01c-0.15-0.02-0.29-0.01-0.45-0.01c-0.13,0-0.27,0.01-0.41,0
	c-0.2-0.01-0.41-0.02-0.62-0.04c-0.09-0.01-0.19-0.01-0.29-0.02l-0.11-0.01l-0.03-0.1c-0.01-0.02-0.01-0.04-0.02-0.06
	c-0.02-0.06-0.04-0.12-0.04-0.19c0-0.33,0.01-0.57,0.02-0.87c0-0.05,0.02-0.09,0.03-0.13c0.01-0.02,0.01-0.04,0.02-0.07l0.03-0.11
	l0.12,0c0.11,0,0.22,0.01,0.33,0.02c0.24,0.01,0.47,0.03,0.69,0.01c0.19-0.01,0.38,0,0.56,0.01c0.15,0.01,0.29,0.02,0.43,0.01
	c0.35-0.01,0.7-0.01,1.03,0c0.1,0,0.21,0,0.31,0c0.23,0,0.46-0.01,0.7,0.02l0.09,0.01l0.03,0.08c0.05,0.12,0.05,0.23,0.04,0.31
	c0,0.03,0,0.07,0,0.09c0.01,0.11,0.01,0.23,0,0.35c-0.01,0.1-0.01,0.2-0.01,0.3c0,0.16,0.01,0.32-0.03,0.48
	c-0.01,0.03,0,0.09,0.01,0.14c0.01,0.05,0.02,0.12,0.02,0.18c-0.01,0.24,0,0.49,0,0.73c0,0.08,0,0.17,0,0.25
	c0,0.14,0,0.28-0.01,0.41l0.01,1.11H396.01z M399.6,183.48c-0.16,1.63-2.21,2.32-2.48,2.03c-0.27-0.29-0.38-0.51-1.45-0.54
	c0.17-0.25,0.76-0.51,1.27-0.76c0.94-0.47,1.57-1.24,1.94-1.76c0.58-1.04,1.27-1.68,1.27-1.68
	C399.79,181.58,399.67,182.27,399.6,183.48z M400.48,179.32c-0.28,0.83-0.56,1.1-0.56,1.1s-0.53,0.33-1.22,1.43
	s-1.08,1.57-2.16,2.04c-1.08,0.47-1.22,0.47-1.72,1.27c-0.4,0.64-1.9,1.51-2.98,1.07c0.34-0.21,0.65-0.47,0.92-0.75
	c0.29-0.3,0.53-0.64,0.74-0.98l0.15-0.26l0.07-0.13l0.06-0.11c0.08-0.15,0.19-0.27,0.31-0.4c0.5-0.48,1.24-0.77,1.96-0.9l0.01,0
	c0.05-0.01,0.09-0.06,0.09-0.11c0-0.06-0.05-0.11-0.11-0.1c-0.4,0.02-0.79,0.09-1.17,0.2c-0.38,0.12-0.76,0.28-1.1,0.54
	c-0.17,0.13-0.33,0.27-0.46,0.45l-0.18,0.24l-0.16,0.22c-0.24,0.28-0.48,0.55-0.76,0.76c-0.28,0.22-0.57,0.41-0.88,0.53c0,0,0,0,0,0
	c-0.1,0.04-0.22-0.03-0.23-0.14c-0.11-1.69-1.46-4.17-2.93-5.18c-1.57-1.08-7.04-2.51-10.58,0.08c-1.64,1.13-3.83,6.17,0.69,8.62
	c0,0-2.44-0.04-3.93-3c-0.2-0.39-1.05-0.37-1.42,0.1c-0.28,0.36-1.33,2.59-1.8,3.59c-0.11,0.24,0.05,0.52,0.31,0.54l7.17,0.58
	c0,0,1.37,0.11,2.05,0.2c0.3,0.04,2.89,0.41,3.06-1.49c-0.59,0.76-3.04,1.4-4.29,0.36c2.37,0.57,5.42-2.88,1.3-5.78
	c-0.14-0.1-0.03-0.31,0.13-0.25c1.05,0.34,2.69,1.31,3.13,3.47c0.22,1.09,0.96,2.01,2.01,2.38c0.22,0.08,0.42,0.12,0.56,0.11
	c0.54-0.03,1.81,0.09,2.1-1.75c0.09-0.53,0.22-1.06,0.46-1.54c0.28-0.58,0.69-1.14,1.29-1.39c0,0-0.3,1.41,1.77,2.08
	c-0.33,0.92-0.69,1.85-0.29,3.05c0.08,0.24-0.08,0.48-0.33,0.52c-0.53,0.07-1.13,0.24-1.54,0.43c-0.17,0.08-0.36-0.09-0.28-0.26
	c0.31-0.75,0.86-1.15,0.04-2.32c0.19,0.79,0.14,1.13-0.14,1.74c-0.31,0.68-1.12,1.18-1.81,0.92c-0.52-0.2-1.18-0.35-1.8-0.39
	c-1.02-0.06-3.24,0.76-3.24,0.76c1.7-0.18,2.94,0.33,3.51,0.53c0.57,0.2,1.51,0.29,2.24,0.12c0.73-0.17,1.39-0.78,2.09-0.85
	c0.51-0.05,1.07-0.15,1.4-0.18c0.15-0.01,0.29,0.08,0.35,0.22c0.26,0.69-0.62,0.92-1.17,0.74c-0.51-0.17-0.86,0.03-0.89,0.36
	c-0.03,0.35,0.31,0.51,0.88,0.51c0.17,0,0.24,0.06,0.26,0.14c0.04,0.13-0.04,0.27-0.17,0.31c-1.31,0.39-2.8,2.09-5.14,1.69
	c-0.86-0.14-5.38-0.62-6.54-0.66c-1.16-0.04-5.9,0.18-8.42-0.43c-3.06-0.74-6.28,0.16-7.53,0.58c-0.16,0.05-0.31-0.12-0.23-0.27
	c0.17-0.33,0.29-0.75,0-1.05c0,0,1.07-0.29,2.7-0.72c1.63-0.43,3.13-0.52,3.98-0.58s1.58-0.28,1.93-0.32
	c0.35-0.03,1.14-0.17,1.93-0.08c0.79,0.09,1.88,0.3,2.27,0.36c0.39,0.06,0.84-0.18,1.44-0.09c0.44,0.06,1.78,0.24,2.44,0.32
	c0.1,0.01,0.13,0.14,0.04,0.19c-0.18,0.11-0.38,0.28-0.41,0.52c-0.06,0.46,1.09,0.83,1.63,0.9c0.71,0.1,1.45,0.13,2.36-0.96
	c0.09-0.2-0.16-0.46-0.91-0.64c-0.75-0.18-2.11-0.35-2.44-0.41c-0.24-0.05-1.82-0.27-3.15-0.44c-0.49-0.06-0.86,0.12-1.09,0.08
	c-0.86-0.15-3.07-0.65-4.11-0.31c-1.27,0.41-2.86,0.35-3.24,0.43c-0.27,0.06-2.87,0.68-4.37,1.04c-0.3,0.07-0.96,0.35-1.27,0.02
	c-0.25-0.26-0.7-0.63-0.99-0.85c-0.29-0.22-1.05-0.55-1.69-0.25c-0.63,0.29-1.36,0.73-1.72,0.4c-0.37-0.33-0.3-0.85,0.5-1.08
	c0.55-0.16,1.3-0.49,1.88-0.88c0.63-0.42,1.01-1.15,0.91-1.91c-0.01-0.07-0.03-0.25-0.05-0.32c-0.12-0.47,0.09-0.8,0.87-1.21
	c0.78-0.41,2.64-1.2,2.82-2.45c0.1-0.52,0.07-1.21,0.07-1.21s3.09-1.3,5.84-4.66c1.61-2.18,3.55-3.69,4.79-4.24
	c1.17-0.52,3.57-2.37,4.94-5.83c0.21-0.53,0.57-0.98,1.04-1.3c1.95-1.38,5.43-2.75,8.61-1.28
	C393.89,166.74,401.55,172.31,400.48,179.32z M393.73,152.45c-4.2-1.23-5.78-4.29-4.55-8.48l3.59-12.25l4.44,1.3l-3.73,12.74
	c-0.79,2.69-0.4,4.65,2.07,5.37c2.24,0.66,3.86-0.72,4.65-3.41l3.73-12.74l1.64,0.48l-3.58,12.23
	C400.75,151.91,398.26,153.78,393.73,152.45z M408.58,217.85h-0.11c-0.14,0-0.25,0-0.35,0c-0.07,0-0.14,0-0.22,0
	c-0.27,0-0.54,0-0.82-0.01c-0.4,0-0.82-0.01-1.22-0.01c-0.27,0-0.54,0-0.8,0.01c-0.21,0-0.42,0-0.63,0.01c-0.23,0-0.45,0-0.68,0
	c-0.29,0-0.59,0-0.89,0c-0.07,0-0.15,0-0.22,0c-0.02,0-0.04,0-0.07,0h-0.37v-1.1l0,0c0-0.11,0-0.22,0-0.33c0-0.21,0-0.41,0-0.62
	c0-0.4,0-0.79,0-1.17c0-0.41,0-0.81,0-1.23c0-0.35,0-0.7,0-1.04c0-0.36,0-0.73,0-1.09c0-0.32,0-0.63,0-0.94v-0.62h0.21
	c0.06-0.02,0.12-0.02,0.16-0.01c0.01,0,0.02,0,0.03,0c0.32,0,0.64,0,0.96,0c0.24,0,0.49,0,0.73,0c0.84,0,2.82,0,3.67,0
	c0.23,0,0.38,0,0.41,0c0.04,0,0.27,0.01,0.27,0.01v0.14c0.02,0.04,0.01,0.54,0,0.66v0.85h-0.56v0c-0.17,0-0.33,0-0.49,0
	c-0.36,0-0.73,0-1.09,0l-0.82,0c-0.39,0-0.78,0-1.18,0c-0.11,0-0.23,0-0.34,0c-0.03,0-0.11,0-0.14,0.01
	c-0.01,0.03-0.03,1.39-0.01,1.5c0.17,0.01,0.38,0.01,0.55,0.01c0.08,0,0.11,0,0.19,0c0.23,0,0.46,0,0.68,0l0.14,0
	c0.14,0,0.28,0,0.42,0c0.15,0,0.29,0,0.44,0c0.19,0,0.38,0,0.58,0l0.47,0c0,0,0.04,0.8,0.01,0.97c0,0.01,0,0.01,0,0.01
	c0,0,0,0,0,0.01c0,0.03,0,0.07,0,0.1l0,0.03c0,0.06-0.01,0.13-0.02,0.2l-0.02,0.25h-0.51l0,0c-0.11,0-0.22,0-0.32,0l-1.03,0
	c-0.52,0-1.04,0-1.56,0c-0.02,0-0.03,0-0.05,0c0,0.03,0,0.05,0,0.07c0,0.44,0,1.1-0.01,1.54l0,0.1c0,0.03,0,0.06,0,0.09
	c0,0.04,0.01,0.06,0.01,0.07c0.01,0,0.03,0.01,0.08,0.01c0.62,0,1.13,0.01,1.66,0.01c0.08,0,2.23-0.02,2.35-0.04
	c0.08-0.01,0.16-0.01,0.23-0.01h0.01c0.03,0,0.06,0,0.08,0.01h0.24v0.31c0.01,0.04,0.02,0.07,0.03,0.14
	C408.69,216.81,408.58,217.85,408.58,217.85z M417.92,166.87l2.16-9.29c-0.24-0.21-0.47-0.42-0.71-0.64l-5.63,6.06l-3.39-3.15
	l13.24-14.26l3.39,3.15l0,0c3.3,3.07,6.41,7.64,3.45,10.83c-1.91,2.06-4.27,1.87-6.64,0.64l-2.16,10.1L417.92,166.87z M431.3,211.48
	c-0.01,0.01-0.02,0.03-0.02,0.04c-0.02,0.03-0.04,0.06-0.07,0.09c-0.23,0.19-0.47,0.39-0.72,0.59h0l-0.06,0.05
	c-0.04,0.03-0.07,0.06-0.11,0.09c0,0,0,0,0,0l-0.21,0.17l-0.14-0.14c-0.03-0.02-0.05-0.04-0.08-0.06c-0.04-0.04-0.07-0.08-0.11-0.12
	c-0.02-0.02-0.04-0.05-0.06-0.07c-0.38-0.42-0.87-0.68-1.49-0.79c-0.25-0.04-0.5-0.07-0.74-0.07c-0.75-0.01-1.41,0.22-1.96,0.69
	c-0.2,0.17-0.27,0.37-0.4,0.6c-0.22,0.39-0.33,0.79-0.32,1.17c0,0.5,0.12,0.93,0.36,1.32c0.31,0.5,0.66,0.86,1.24,1.08
	c0.44,0.16,0.84,0.24,1.25,0.23c0.7-0.02,1.28-0.21,1.76-0.58c0.07-0.05,0.14-0.12,0.21-0.18c0.04-0.04,0.08-0.07,0.12-0.11
	c0.02-0.01,0.03-0.03,0.05-0.04l0.16-0.13l0.1,0.09c0.04,0.02,0.09,0.04,0.12,0.08c0.08,0.09,0.17,0.18,0.26,0.26
	c0.2,0.2,0.41,0.4,0.59,0.65l0.05,0.07l-0.04,0.08c-0.08,0.17-0.21,0.28-0.32,0.38l0,0c-0.61,0.52-1.27,0.85-2.01,1.01
	c-0.35,0.07-0.71,0.11-1.07,0.11c-0.1,0-0.2,0-0.3-0.01c-0.38-0.02-0.77-0.1-1.28-0.24c-1.14-0.33-2.01-1.04-2.59-2.12
	c-0.23-0.43-0.36-0.86-0.4-1.3c0-0.04-0.01-0.09-0.01-0.13c-0.02-0.18-0.03-0.36-0.04-0.54c-0.01-0.49,0.09-0.98,0.34-1.58
	c0.18-0.44,0.45-0.85,0.81-1.21c0.31-0.32,0.65-0.58,1.02-0.78c0.44-0.24,0.82-0.38,1.21-0.45c0.27-0.05,0.55-0.09,0.83-0.11
	c0.85-0.06,1.69,0.1,2.58,0.51c0.62,0.28,1.13,0.7,1.51,1.25l0.06,0.09L431.3,211.48z M445.17,214.94c-0.11,0.37-0.28,0.74-0.5,1.1
	c-0.22,0.36-0.51,0.66-0.77,0.9c-0.14,0.13-0.31,0.26-0.5,0.38c-0.37,0.23-0.86,0.51-1.45,0.61c-0.37,0.06-0.72,0.09-1.07,0.09
	c-0.6,0-1.17-0.09-1.73-0.28c-0.26-0.09-0.5-0.21-0.71-0.33c-0.46-0.25-0.86-0.59-1.18-1c-0.46-0.59-0.75-1.21-0.86-1.84
	c-0.07-0.4-0.13-0.84-0.05-1.29c0.01-0.07,0.02-0.15,0.03-0.22c0.02-0.16,0.05-0.32,0.09-0.48c0.19-0.63,0.53-1.2,0.99-1.69
	c0.21-0.22,0.44-0.42,0.7-0.6c0.43-0.3,0.91-0.5,1.48-0.62c0.26-0.06,0.52-0.11,0.75-0.13c0.24-0.02,0.41-0.03,0.66-0.01
	c0.46,0.04,1.01,0.11,1.53,0.33c0.03,0.01,0.07,0.03,0.1,0.04c0.11,0.05,0.23,0.1,0.35,0.15c0.85,0.43,1.49,1.09,1.9,1.95
	c0.09,0.19,0.17,0.4,0.25,0.6c0.03,0.08,0.04,0.16,0.05,0.24c0.01,0.04,0.01,0.08,0.02,0.12c0.05,0.22,0.1,0.52,0.09,0.73
	C445.33,214.18,445.28,214.58,445.17,214.94z M440.05,183.45l-9.8,3.82l-1.68-4.31l9.46-3.69l6.35-9.32l1.78,4.55l-5.2,7.57
	l8.83,1.73l0.68,1.73L440.05,183.45z M452.68,217.86h-2.09v-1.95h2.09V217.86z"/>
</svg>
