<?xml version="1.0" encoding="utf-8"?>
<!-- Generator: Adobe Illustrator 26.5.2, SVG Export Plug-In . SVG Version: 6.00 Build 0)  -->
<svg version="1.1" id="Layer_1" xmlns="http://www.w3.org/2000/svg" xmlns:xlink="http://www.w3.org/1999/xlink" x="0px" y="0px"
	 viewBox="0 0 137.27 84.33" style="enable-background:new 0 0 137.27 84.33;" xml:space="preserve">
<style type="text/css">
	.st0{fill:#003B4A;}
</style>
<g>
	<path class="st0" d="M51.53,58.34c-0.45-0.45-1.35-1.26-2.34-0.63c-1.26,0.81-2.07-0.45-1.53-1.08c0.54-0.63,1.26-0.54,2.16-1.08
		s0.99-1.53,0.9-2.07c-0.09-0.54,0.72-1.08,1.44-1.35c0.72-0.27,2.16-0.99,2.07-2.7c0,0-15.48,7.38-14.94,13.68
		c0,0,0,0.09,0.09,0.09c4.05-1.71,10.08-4.23,12.24-4.59C51.62,58.61,51.62,58.43,51.53,58.34z"/>
	<path class="st0" d="M52.07,59.15c0-0.18-0.18-0.36-0.36-0.27c-2.79,0.81-10.44,3.78-11.88,4.41v0.09
		c4.68-0.36,10.26-2.52,11.43-3.33C51.71,59.78,51.98,59.51,52.07,59.15z"/>
	<path class="st0" d="M77,33.77c-2.88-1.35-5.94-0.09-7.74,1.17c-0.45,0.27-0.72,0.72-0.9,1.17c-1.26,3.15-3.42,4.77-4.41,5.22
		c-1.08,0.54-2.88,1.89-4.32,3.78c-2.43,3.06-5.22,4.23-5.22,4.23s0,0.63-0.09,1.08c-0.18,1.08-1.8,1.8-2.52,2.16
		c-0.72,0.36-0.9,0.63-0.81,1.08c0,0.09,0,0.18,0,0.27c0.09,0.72-0.27,1.35-0.81,1.71c-0.54,0.36-1.17,0.63-1.71,0.81
		c-0.72,0.18-0.81,0.72-0.45,0.99c0.36,0.27,0.99-0.09,1.53-0.36c0.54-0.27,1.26,0,1.53,0.18c0.27,0.18,0.63,0.54,0.9,0.81
		c0.27,0.27,0.9,0.09,1.17,0c1.35-0.36,3.69-0.9,3.96-0.9c0.36-0.09,1.8,0,2.88-0.36c0.9-0.27,2.88,0.18,3.69,0.27
		c0.18,0,0.54-0.09,0.99-0.09c1.17,0.18,2.61,0.36,2.79,0.36c0.27,0.09,1.53,0.18,2.16,0.36c0.72,0.18,0.9,0.36,0.81,0.54
		c-0.81,0.99-1.53,0.99-2.16,0.9c-0.45-0.09-1.53-0.36-1.44-0.81c0-0.18,0.18-0.36,0.36-0.45c0.09-0.09,0.09-0.18,0-0.18
		c-0.63-0.09-1.8-0.27-2.16-0.27c-0.54-0.09-0.9,0.18-1.26,0.09c-0.36-0.09-1.35-0.27-2.07-0.36c-0.72-0.09-1.44,0-1.71,0.09
		c-0.36,0-0.99,0.27-1.71,0.27s-2.16,0.09-3.6,0.54c-1.44,0.36-2.43,0.63-2.43,0.63c0.27,0.27,0.18,0.63,0,0.99
		c-0.09,0.09,0.09,0.27,0.18,0.27c1.08-0.36,4.05-1.17,6.75-0.54c2.25,0.54,6.57,0.36,7.56,0.36c1.08,0,5.13,0.45,5.85,0.63
		c2.07,0.36,3.42-1.17,4.59-1.53c0.09,0,0.18-0.18,0.18-0.27c0-0.09-0.09-0.09-0.27-0.09c-0.54,0-0.81-0.18-0.81-0.45
		c0-0.27,0.36-0.45,0.81-0.36c0.54,0.18,1.26-0.09,1.08-0.63c0-0.09-0.18-0.18-0.36-0.18c-0.27,0-0.81,0.09-1.26,0.18
		c-0.63,0.09-1.26,0.63-1.89,0.81c-0.63,0.18-1.53,0.09-1.98-0.09c-0.45-0.18-1.62-0.63-3.15-0.45c0,0,1.98-0.72,2.88-0.72
		c0.54,0,1.17,0.18,1.62,0.36c0.63,0.27,1.35-0.18,1.62-0.81c0.27-0.54,0.27-0.81,0.09-1.53c0.72,1.08,0.27,1.44,0,2.07
		c-0.09,0.18,0.09,0.27,0.27,0.27c0.36-0.18,0.9-0.36,1.35-0.36c0.18,0,0.36-0.27,0.27-0.45c-0.36-1.08,0-1.89,0.27-2.79
		c-1.89-0.63-1.62-1.89-1.62-1.89c-0.54,0.18-0.9,0.72-1.17,1.26c-0.18,0.45-0.36,0.9-0.45,1.35c-0.27,1.62-1.44,1.53-1.89,1.62
		c-0.09,0-0.27,0-0.54-0.09c-0.9-0.36-1.62-1.17-1.8-2.16c-0.36-1.98-1.89-2.79-2.79-3.15c-0.18-0.09-0.27,0.18-0.09,0.18
		c3.69,2.61,0.99,5.76-1.17,5.22c1.17,0.9,3.33,0.36,3.87-0.36c-0.18,1.71-2.52,1.35-2.79,1.35c-0.63-0.09-1.8-0.18-1.8-0.18
		L59.18,56c-0.27,0-0.36-0.27-0.27-0.45c0.45-0.9,1.35-2.88,1.62-3.24c0.36-0.45,1.08-0.45,1.26-0.09c1.35,2.7,3.51,2.7,3.51,2.7
		c-4.05-2.16-2.07-6.75-0.63-7.74c3.15-2.34,8.1-1.08,9.54-0.09c1.35,0.9,2.52,3.15,2.61,4.68c0,0.09,0.09,0.18,0.18,0.09l0,0
		c0.27-0.09,0.54-0.27,0.81-0.45c0.27-0.18,0.45-0.45,0.72-0.72l0.18-0.18l0.18-0.18c0.09-0.18,0.27-0.27,0.45-0.36
		c0.27-0.27,0.63-0.36,0.99-0.45c0.36-0.09,0.72-0.18,1.08-0.18c0.09,0,0.09,0,0.09,0.09c0,0.09,0,0.09-0.09,0.09l0,0
		c-0.63,0.09-1.35,0.36-1.8,0.81c-0.09,0.09-0.18,0.18-0.27,0.36l-0.09,0.09l-0.09,0.09l-0.09,0.27c-0.18,0.27-0.45,0.63-0.63,0.9
		c-0.27,0.27-0.54,0.45-0.81,0.72c0.99,0.36,2.34-0.36,2.7-0.99c0.45-0.72,0.54-0.72,1.53-1.17c0.99-0.45,1.35-0.81,1.98-1.8
		c0.63-0.99,1.08-1.26,1.08-1.26s0.27-0.27,0.54-0.99C86.54,39.89,79.61,34.85,77,33.77z M58.46,53.93
		c-0.45,0.54-1.35,1.26-2.52,1.62c-0.81,0.27-1.8,0.18-2.52-0.27c-0.45-0.27-0.9-0.81-1.35-1.53c-0.09-0.18,0-0.36,0.09-0.36
		c0.27-0.09,0.99-0.18,1.44-0.72c0.9-0.9,1.53-1.98,2.7-2.25c0.99-0.27,2.88,0.27,2.7,2.16C59.09,53.03,58.82,53.57,58.46,53.93z
		 M67.19,43.04c-0.27,0.09-0.45,0.09-0.63,0.18c-0.18,0.09-0.36,0.27-0.54,0.45c-0.36,0.36-0.63,0.72-0.9,1.08
		c-0.27,0.36-0.63,0.81-1.08,1.08c-0.09,0.09-0.18,0.18-0.27,0.18l-0.18,0.09l-0.18,0.09c-0.18,0.09-0.36,0.27-0.45,0.45
		c-0.09,0.18-0.18,0.36-0.27,0.54c0,0.18,0,0.45,0,0.63c0,0.09,0,0.18,0.09,0.36c0,0.09,0,0.27,0,0.36c0,0.27-0.09,0.54-0.18,0.72
		c-0.09,0.27-0.18,0.45-0.36,0.63s-0.36,0.36-0.54,0.45c0.36-0.36,0.63-0.72,0.72-1.17c0.09-0.18,0.09-0.45,0.09-0.72
		c0-0.09,0-0.18,0-0.36c0-0.09-0.09-0.18-0.09-0.36c-0.09-0.27-0.09-0.54,0-0.81c0-0.27,0.18-0.54,0.36-0.81
		c0.18-0.18,0.36-0.36,0.63-0.54l0.18-0.09l0.18-0.09c0.09-0.09,0.18-0.09,0.27-0.18c0.36-0.27,0.72-0.54,1.08-0.9l0.45-0.54
		c0.18-0.18,0.36-0.36,0.54-0.54c0.18-0.18,0.45-0.36,0.63-0.45c0.27-0.09,0.45-0.18,0.72-0.18c0.45,0,0.99,0,1.44,0.18
		C68.18,42.95,67.64,42.95,67.19,43.04z"/>
	<path class="st0" d="M59.63,44.75c0.9-1.71,3.24-3.33,3.87-3.69c2.61-0.99,4.5-5.13,4.5-5.13c-1.44,0.27-2.7,1.53-3.33,2.52
		c-0.63,0.9-1.62,1.71-3.24,3.33C59.81,43.31,59.72,43.94,59.63,44.75z"/>
	<path class="st0" d="M84.11,49.07c-0.36,0.45-0.9,1.17-1.71,1.62c-0.45,0.18-0.99,0.45-1.17,0.72c0.99,0,1.08,0.18,1.35,0.45
		s2.07-0.36,2.25-1.8c0.09-1.08,0.18-1.71,0.45-2.43C85.28,47.54,84.65,48.08,84.11,49.07z"/>
	<path class="st0" d="M4.73,41.69l13.32,13.23l0.54-1.08c-0.63-0.63-2.79-2.79-2.79-2.79c0.9-1.89,1.8-3.78,2.7-5.76l3.96,0.36
		l2.07-4.32L5.72,39.89L4.73,41.69z M9.05,44.3l8.1,0.72l-2.34,4.95C12.74,48.08,10.94,46.1,9.05,44.3
		C9.05,44.21,8.96,44.39,9.05,44.3z"/>
	<path class="st0" d="M28.4,13.52l-1.17,0.99l7.56,9.27c1.62,1.98,1.8,3.87,0.18,5.22c-1.8,1.44-3.42,0.72-5.04-1.26l-7.56-9.27
		l-3.24,2.61l7.2,8.91c2.52,3.06,5.58,3.42,8.64,0.99c3.33-2.7,3.15-5.49,0.72-8.55L28.4,13.52z"/>
	<path class="st0" d="M56.48,20.9c4.14-0.81,7.11-4.23,5.94-10.08l-0.36-1.71c-2.43,0.45-4.59,0.9-6.93,1.44l-2.07,0.36l0.36,1.62
		l4.77-0.99c0.9,4.32,0.9,7.56-1.89,8.1c-2.52,0.54-4.41-2.7-5.22-6.84c-0.9-4.41-0.54-7.56,2.34-8.1c2.25-0.45,3.69,1.71,3.78,1.8
		c0.36-0.63,0.9-1.44,1.44-2.25c-1.08-0.63-2.88-1.35-5.49-0.81c-4.5,0.9-7.92,4.59-6.75,10.35C47.48,19.1,51.53,21.89,56.48,20.9z"
		/>
	<path class="st0" d="M88.7,6.32l-3.33,11.43c-0.72,2.43-2.16,3.69-4.14,3.06c-2.25-0.63-2.61-2.43-1.89-4.86l3.33-11.43l-3.96-1.17
		l-3.24,10.98c-1.08,3.78,0.27,6.48,4.05,7.65c4.05,1.17,6.3-0.45,7.38-4.32l3.24-10.98L88.7,6.32z"/>
	<path class="st0" d="M112.55,28.46c2.7-2.88-0.09-7.02-3.15-9.72l0,0l-3.06-2.79L94.46,28.82l3.06,2.79l5.04-5.49
		c0.18,0.18,0.45,0.36,0.63,0.54l-1.98,8.37l3.33,3.06l1.98-9.09C108.68,30.08,110.84,30.26,112.55,28.46z M103.28,25.31l5.31-5.76
		c2.43,2.25,2.61,4.41,0.9,6.3C107.96,27.56,105.8,27.56,103.28,25.31z"/>
	<polygon class="st0" points="122,48.71 126.68,41.87 125.06,37.73 119.39,46.19 110.84,49.52 112.37,53.39 121.19,49.88 
		130.55,51.77 129.92,50.24 	"/>
	<path class="st0" d="M12.02,77.06L12.02,77.06L12.02,77.06c0.54-0.27,0.81-0.81,0.9-1.35c0.09-0.36,0-0.72-0.18-1.08
		c-0.27-0.54-0.63-0.9-1.17-0.99c-0.27-0.09-0.63-0.18-0.99-0.18c-0.27,0-0.54,0-0.81,0c-0.36,0-0.63,0-0.99,0s-1.17,0-1.44,0l0,0
		H6.98V74l0,0v0.09c0,0.18,0,0.45,0,0.63c0,0.54,0,1.08,0,1.62c0,0.27,0,0.45,0,0.72v0.18c0,0.18,0,0.45,0,0.63
		c0,0.09,0,0.18,0,0.27c0,0.09,0,0.18,0,0.27c0,0.63,0,1.17,0,1.8v0.18l0,0v0.45h0.27l0,0c0.09,0,0.09,0,0.27,0l0,0
		c0.45,0,1.26,0,1.71,0h0.45c0.18,0,0.36,0,0.54,0c0.36,0,0.72,0,1.17,0c0.45-0.09,0.81-0.18,1.17-0.45
		c0.27-0.18,0.45-0.45,0.54-0.81c0.18-0.54,0.18-1.08,0-1.62C12.74,77.42,12.02,77.06,12.02,77.06z M8.51,75.08L8.51,75.08
		L8.51,75.08c0.09,0,0.09,0,0.18,0l0,0c0.27,0,0.63,0,0.9,0h0.54h0.09c0.09,0,0.18,0,0.18,0c0.09,0,0.27,0,0.36,0.09
		c0.18,0,0.27,0.09,0.36,0.27c0.09,0.27,0.09,0.54-0.09,0.81c-0.18,0.18-0.36,0.36-0.63,0.36l0,0c-0.18,0-0.45,0-0.63,0
		c-0.18,0-0.36,0-0.54,0l0,0c-0.27,0-0.54,0-0.72,0c0,0,0,0-0.09,0L8.51,75.08L8.51,75.08z M11.48,79.04
		c-0.18,0.27-0.36,0.45-0.72,0.45l0,0c-0.45,0-0.9,0-1.35,0c-0.36,0-0.63,0-0.99,0c0,0,0,0-0.09,0c0-0.36,0-0.81,0-1.08
		c0-0.18,0-0.36,0-0.54l0,0h0.18c0.45,0,0.81,0,1.26,0h0.09c0.27,0,0.45,0,0.72,0c0.36,0,0.54,0.27,0.72,0.54
		C11.66,78.5,11.66,78.77,11.48,79.04z"/>
	<path class="st0" d="M24.08,79.49H23.9c0,0,0,0-0.09,0l0,0c-0.09,0-0.09,0-0.18,0c-0.09,0-2.07,0-2.16,0c-0.45,0-0.9,0-1.53,0
		h-0.09c0,0,0,0,0-0.09v-0.09v-0.09c0-0.36,0-0.99,0-1.35v-0.09l0,0c0.45,0,0.9,0,1.44,0h0.9c0.09,0,0.18,0,0.27,0l0,0h0.45V77.6
		c0-0.09,0-0.09,0-0.18l0,0v-0.09l0,0l0,0c0-0.18,0-0.9,0-0.9h-0.45c-0.18,0-0.36,0-0.54,0c-0.09,0-0.27,0-0.36,0s-0.27,0-0.36,0
		h-0.09c-0.18,0-0.45,0-0.63,0c-0.09,0-0.09,0-0.18,0c-0.18,0-0.36,0-0.45,0c0-0.09,0-1.35,0-1.35h0.09c0.09,0,0.18,0,0.27,0
		c0.36,0,0.72,0,1.08,0h0.72c0.36,0,0.63,0,0.99,0c0.18,0,0.27,0,0.45,0l0,0h0.54v-0.81c0-0.09,0-0.54,0-0.63v-0.09
		c0,0-0.18,0-0.27,0c0,0-0.18,0-0.36,0c-0.81,0-2.52,0-3.33,0c-0.18,0-0.45,0-0.63,0c-0.27,0-0.54,0-0.9,0l0,0c0,0-0.09,0-0.18,0
		h-0.18v0.54c0,0.27,0,0.54,0,0.81c0,0.36,0,0.63,0,0.99c0,0.36,0,0.63,0,0.9c0,0.36,0,0.72,0,1.08s0,0.72,0,1.08
		c0,0.18,0,0.36,0,0.54c0,0.09,0,0.18,0,0.27l0,0v0.99h0.36c0,0,0,0,0.09,0s0.09,0,0.18,0c0.27,0,0.54,0,0.81,0
		c0.18,0,0.45,0,0.63,0s0.36,0,0.54,0c0.27,0,0.45,0,0.72,0c0.36,0,0.72,0,1.08,0c0.27,0,0.45,0,0.72,0c0.09,0,0.09,0,0.18,0
		s0.18,0,0.36,0h0.09c0,0,0.09-0.9,0.09-0.99s0-0.09,0-0.09L24.08,79.49L24.08,79.49z"/>
	<path class="st0" d="M34.34,73.55L34.34,73.55c-0.09,0.18-0.09,0.18-0.09,0.27v0.09c-0.09,0.27-0.18,0.45-0.27,0.72
		c-0.09,0.27-0.18,0.54-0.27,0.81c-0.09,0.18-0.18,0.36-0.18,0.54c-0.09,0.18-0.09,0.54-0.18,0.81v0.09
		c-0.09,0.36-0.27,0.81-0.36,1.08c-0.09,0.18-0.18,0.36-0.18,0.63v0.09c0-0.09,0-0.09-0.09-0.09c0-0.09-0.09-0.18-0.09-0.18
		c0-0.09-0.09-0.18-0.18-0.36c-0.09-0.18-0.18-0.45-0.18-0.63c-0.18-0.45-0.45-1.08-0.72-1.71c-0.18-0.45-0.36-0.9-0.54-1.35
		l-0.18-0.45c0-0.09,0-0.09-0.09-0.18c0-0.09-0.09-0.09-0.09-0.18l0,0v-0.09h-1.8l0.09,0.18c0.09,0.18,0.18,0.36,0.27,0.54
		c0.09,0.09,0.09,0.27,0.18,0.36c0.09,0.18,0.18,0.36,0.27,0.54c0.09,0.18,0.18,0.45,0.27,0.63c0.09,0.27,0.27,0.54,0.36,0.81
		c0.09,0.18,0.09,0.36,0.18,0.45c0.09,0.27,0.27,0.63,0.36,0.9c0.18,0.36,0.36,0.81,0.54,1.17c0.09,0.27,0.18,0.54,0.36,0.72
		l0.09,0.27c0,0.09,0.09,0.18,0.09,0.27c0,0,0,0,0,0.09l0,0l0,0L32,80.66h1.53l0.18-0.36l0,0l0.09-0.27
		c0.09-0.09,0.09-0.27,0.18-0.45l0,0c0.09-0.18,0.18-0.36,0.27-0.63c0.09-0.27,0.18-0.54,0.27-0.81c0.09-0.18,0.18-0.45,0.27-0.63
		c0-0.09,0.09-0.18,0.09-0.27s0.09-0.18,0.09-0.27c0.09-0.18,0.09-0.27,0.18-0.45c0.09-0.36,0.27-0.63,0.36-0.99
		c0-0.09,0-0.09,0.09-0.18v-0.09c0-0.09,0.09-0.18,0.09-0.27c0.09-0.27,0.18-0.54,0.27-0.81c0.09-0.18,0.09-0.27,0.18-0.45
		c0-0.09,0.09-0.18,0.09-0.27s0-0.09,0-0.18v-0.09L34.34,73.55L34.34,73.55z"/>
	<path class="st0" d="M46.58,79.49H46.4c0,0,0,0-0.09,0l0,0c-0.09,0-0.09,0-0.18,0s-2.07,0-2.16,0c-0.45,0-0.9,0-1.53,0h-0.09
		c0,0,0,0,0-0.09v-0.09v-0.09c0-0.36,0-0.99,0-1.35v-0.09l0,0c0.45,0,0.9,0,1.44,0h0.9c0.09,0,0.18,0,0.27,0l0,0h0.45V77.6
		c0-0.09,0-0.09,0-0.18l0,0v-0.09l0,0l0,0c0-0.18,0-0.9,0-0.9h-0.45c-0.18,0-0.36,0-0.54,0c-0.09,0-0.27,0-0.36,0
		c-0.09,0-0.27,0-0.36,0h-0.09c-0.18,0-0.45,0-0.63,0c-0.09,0-0.09,0-0.18,0c-0.18,0-0.36,0-0.45,0c0-0.09,0-1.35,0-1.35h0.09
		c0.09,0,0.18,0,0.27,0c0.36,0,0.72,0,1.08,0h0.72c0.36,0,0.63,0,0.99,0c0.18,0,0.27,0,0.45,0l0,0h0.54v-0.81c0-0.09,0-0.54,0-0.63
		v-0.09c0,0-0.18,0-0.27,0c0,0-0.18,0-0.36,0c-0.81,0-2.52,0-3.33,0c-0.18,0-0.45,0-0.63,0c-0.27,0-0.54,0-0.9,0l0,0
		c0,0-0.09,0-0.18,0l0,0v0.54c0,0.27,0,0.54,0,0.81c0,0.36,0,0.63,0,0.99c0,0.36,0,0.63,0,0.9c0,0.36,0,0.72,0,1.08s0,0.72,0,1.08
		c0,0.18,0,0.36,0,0.54c0,0.09,0,0.18,0,0.27l0,0v0.99h0.36c0,0,0,0,0.09,0c0.09,0,0.09,0,0.18,0c0.27,0,0.54,0,0.81,0
		c0.18,0,0.45,0,0.63,0s0.36,0,0.54,0c0.27,0,0.45,0,0.72,0c0.36,0,0.72,0,1.08,0c0.27,0,0.45,0,0.72,0c0.09,0,0.09,0,0.18,0
		c0.09,0,0.18,0,0.36,0h0.09c0,0,0.09-0.9,0.09-0.99s0-0.09,0-0.09L46.58,79.49L46.58,79.49z"/>
	<path class="st0" d="M56.84,78.68c0.45-0.18,0.81-0.45,1.08-0.81c0.27-0.36,0.45-0.63,0.45-0.99c0.09-0.54,0.09-1.08-0.09-1.62
		c-0.18-0.54-0.54-0.99-1.08-1.26c-0.45-0.27-0.9-0.36-1.44-0.45h-2.7c-0.45,0-0.72,0-0.9,0l0,0c-0.09,0-0.09,0-0.18,0h-0.09H51.8
		v0.09c0,0.18,0,0.36,0,0.63c0,0.18,0,0.45,0,0.63v0.09l0,0c0,0.09,0,0.18,0,0.18c0,0.18,0,0.27,0,0.45c0,0.18,0,0.45,0,0.63
		c0,0.36,0,0.72,0,1.08c0,0.09,0,0.18,0,0.27c0,0.18,0,0.27,0,0.45c0,0.18,0,0.36,0,0.45c0,0.18,0,0.45,0,0.63c0,0.36,0,0.63,0,0.99
		l0,0v0.54h1.44l0,0l0,0l0,0v-0.09l0,0v-0.09c0-0.45,0-0.81,0-1.17c0-0.09,0-0.18,0-0.27s0-0.18,0-0.27l0,0c0.09,0,0.18,0,0.27,0
		c0.18,0,0.45,0,0.54,0c0.09,0,0.09,0,0.27,0.18c0.27,0.27,0.45,0.45,0.63,0.72c0.09,0.09,0.18,0.18,0.18,0.18
		c0.09,0.09,0.27,0.27,0.36,0.36c0.18,0.18,0.45,0.36,0.63,0.63l0,0l0,0h2.16l-0.18-0.18c0,0,0-0.09-0.09-0.09l0,0l-0.09-0.09
		c-0.27-0.27-0.63-0.54-0.9-0.81l-0.09-0.09c-0.09-0.09-0.27-0.18-0.36-0.36c0-0.09-0.09-0.09-0.18-0.09c0,0,0,0-0.09-0.09
		c0,0-0.18-0.09-0.27-0.18C56.39,78.77,56.66,78.77,56.84,78.68L56.84,78.68z M56.12,77.42L56.12,77.42h-0.09c-0.09,0-0.09,0-0.18,0
		c-0.18,0-0.36,0-0.54,0.09c-0.45,0-0.9,0-1.35,0c-0.09,0-0.27,0-0.36,0c-0.09,0-0.27,0-0.36,0c0-0.09,0-0.18,0-0.27
		c0-0.27,0-0.54,0-0.81c0-0.18,0-0.45,0-0.63s0-0.45,0-0.72l0,0h0.18c0.63,0,1.26,0,1.89,0c0.18,0,0.36,0,0.45,0.09
		c0.36,0.09,0.54,0.18,0.72,0.45c0.27,0.36,0.27,0.72,0.09,1.17C56.57,77.06,56.39,77.33,56.12,77.42z"/>
	<path class="st0" d="M69.98,79.94c0-0.09-0.09-0.18-0.09-0.27s-0.09-0.18-0.09-0.27s-0.09-0.18-0.18-0.36
		c-0.09-0.27-0.27-0.54-0.36-0.81c-0.09-0.27-0.18-0.54-0.27-0.81c-0.09-0.27-0.18-0.54-0.36-0.81c-0.18-0.36-0.27-0.72-0.45-1.08
		c-0.18-0.36-0.27-0.63-0.45-0.99c-0.09-0.18-0.18-0.45-0.27-0.63v-0.09c0-0.09-0.09-0.18-0.09-0.18v-0.09H67.1h-0.09
		c-0.27,0-0.45,0-0.72,0H66.2c0,0,0,0-0.09,0h-0.09l-0.09,0.18c0,0.09-0.09,0.18-0.09,0.27c-0.09,0.09-0.09,0.27-0.18,0.36
		c-0.09,0.27-0.18,0.54-0.36,0.81c-0.09,0.27-0.27,0.54-0.36,0.81c-0.09,0.18-0.18,0.27-0.18,0.45l0,0c0,0.09-0.09,0.18-0.09,0.36
		c-0.09,0.27-0.27,0.54-0.36,0.81c-0.09,0.18-0.18,0.45-0.27,0.72c0,0.09-0.18,0.36-0.27,0.63c-0.36,0.9-0.54,1.35-0.63,1.53
		l-0.09,0.36h0.27l0,0l0,0c0.45,0,0.81,0,0.99,0l0,0h0.09l0,0h0.27l0.18-0.45c0-0.09,0.09-0.18,0.09-0.27
		c0.09-0.09,0.09-0.27,0.18-0.45c0.09-0.18,0.09-0.27,0.18-0.45c0-0.09,0-0.09,0.09-0.09c0.18,0,0.27,0,0.45,0c0.18,0,0.27,0,0.45,0
		c0.09,0,0.27,0,0.36,0c0.09,0,0.27,0,0.45,0c0.36,0,0.72,0,0.99,0c0.09,0,0.09,0,0.09,0.09s0.09,0.18,0.09,0.27
		c0.18,0.45,0.36,0.9,0.45,1.17v0.09v0.09h0.36c0.09,0,0.27,0,0.45,0c0.09,0,0.27,0,0.36,0h0.54l-0.18-0.36
		C70.16,80.3,70.07,80.12,69.98,79.94z M67.55,77.87h-0.36c-0.36,0-0.9,0-1.26,0c-0.09,0-0.09,0-0.18,0c0,0,0-0.09,0.09-0.18
		c0.09-0.27,0.81-2.25,0.9-2.43c0,0.09,0.45,1.44,0.54,1.62c0,0.09,0.09,0.18,0.09,0.27c0.09,0.18,0.18,0.36,0.18,0.54
		C67.55,77.78,67.55,77.78,67.55,77.87L67.55,77.87z"/>
	<path class="st0" d="M81.95,79.49c0-0.09,0-0.18,0-0.18c0-0.18,0-0.45,0-0.63c0-0.09,0-0.09,0-0.18c0-0.09,0-0.09,0-0.09
		c0-0.18,0-0.27,0-0.45c0-0.09,0-0.18,0-0.27s0-0.18,0-0.36v-0.09c0-0.09,0-0.18,0-0.27v-0.09h-0.09c-0.18,0-0.45,0-0.63,0
		c-0.09,0-0.18,0-0.27,0c-0.27,0-0.63,0-0.9,0c-0.09,0-0.27,0-0.36,0c-0.18,0-0.36,0-0.54,0c-0.18,0-0.45,0-0.63,0
		c-0.09,0-0.18,0-0.27,0h-0.09v0.09v0.09v0.09c0,0.27,0,0.45,0,0.81c0,0.09,0,0.09,0,0.18c0,0,0,0,0,0.09v0.09h0.09
		c0.09,0,0.18,0,0.27,0c0.18,0,0.36,0,0.54,0c0.09,0,0.27,0,0.36,0c0.18,0,0.27,0,0.45,0c0.09,0,0.27,0,0.36,0c0.09,0,0.27,0,0.45,0
		c0,0.09-0.09,0.54-0.18,0.72c-0.27,0.27-0.54,0.45-0.9,0.63c-0.36,0.18-0.81,0.18-1.26,0.09c-0.72,0-1.26-0.45-1.71-0.99
		c-0.36-0.45-0.45-0.99-0.45-1.44v-0.09c0-0.09,0-0.18,0-0.36l0,0c0-0.27,0-0.36,0.09-0.54c0.09-0.27,0.18-0.45,0.36-0.63l0,0
		c0-0.09,0.09-0.09,0.09-0.18c0.27-0.36,0.72-0.54,1.17-0.63c0.36-0.09,0.72-0.09,1.08-0.09c0.54,0.09,1.08,0.27,1.35,0.63
		l0.09,0.09l0,0l0,0l0.27,0.27l0.36-0.36l0,0c0.09-0.09,0.18-0.18,0.27-0.27l0.09-0.09c0.09-0.09,0.18-0.18,0.27-0.27l0.09-0.09
		l-0.09-0.09l-0.09-0.09c-0.09-0.09-0.09-0.09-0.18-0.18c-0.09-0.09-0.18-0.27-0.36-0.36c-0.27-0.18-0.54-0.36-0.9-0.54
		c-0.45-0.18-0.81-0.27-1.17-0.27c-0.45,0-0.9,0-1.26,0.09c-0.54,0.09-0.99,0.27-1.53,0.63c-0.36,0.18-0.63,0.54-0.9,0.9
		c-0.45,0.54-0.72,1.26-0.72,1.98c0,0.27,0,0.45,0,0.63c0.09,0.54,0.18,0.99,0.45,1.44c0.18,0.27,0.27,0.54,0.45,0.72
		c0.36,0.36,0.72,0.63,1.08,0.81c0.54,0.27,1.17,0.45,1.8,0.45c0,0,0,0,0.09,0c0.27,0,0.45,0,0.72-0.09
		c0.36-0.09,0.9-0.18,1.44-0.72l0,0l0,0c0,0.09,0.18,0.54,0.18,0.54h0.09l0,0h0.09c0.27,0,0.18,0,0.54,0h0.45L81.95,79.49
		C81.95,79.76,81.95,79.67,81.95,79.49z"/>
	<path class="st0" d="M92.93,79.49h-0.18c0,0,0,0-0.09,0l0,0c-0.09,0-0.09,0-0.18,0c-0.09,0-2.07,0-2.16,0c-0.45,0-0.9,0-1.53,0
		H88.7c0,0,0,0,0-0.09v-0.09v-0.09c0-0.36,0-0.99,0-1.35v-0.09l0,0c0.45,0,0.9,0,1.44,0h0.9c0.09,0,0.18,0,0.27,0l0,0h0.45V77.6
		c0-0.09,0-0.09,0-0.18l0,0v-0.09l0,0l0,0c0-0.18,0-0.9,0-0.9h-0.45c-0.18,0-0.36,0-0.54,0c-0.18,0-0.27,0-0.36,0
		c-0.09,0-0.27,0-0.36,0h-0.09c-0.18,0-0.45,0-0.63,0c-0.09,0-0.09,0-0.18,0c-0.18,0-0.36,0-0.45,0c0-0.09,0-1.35,0-1.35h0.09
		c0.09,0,0.18,0,0.27,0c0.36,0,0.72,0,1.08,0h0.72c0.36,0,0.63,0,0.99,0c0.18,0,0.27,0,0.45,0l0,0h0.54v-0.81c0-0.09,0-0.54,0-0.63
		v-0.09c0,0-0.18,0-0.27,0c0,0-0.18,0-0.36,0c-0.72,0-2.52,0-3.33,0c-0.18,0-0.45,0-0.63,0c-0.27,0-0.54,0-0.9,0l0,0
		c0,0-0.09,0-0.18,0h-0.18v0.54c0,0.27,0,0.54,0,0.81c0,0.36,0,0.63,0,0.99c0,0.36,0,0.63,0,0.9c0,0.36,0,0.72,0,1.08s0,0.72,0,1.08
		c0,0.18,0,0.36,0,0.54c0,0.09,0,0.18,0,0.27l0,0v0.99h0.36c0,0,0,0,0.09,0c0.09,0,0.18,0,0.18,0c0.27,0,0.54,0,0.81,0
		c0.18,0,0.45,0,0.63,0c0.18,0,0.36,0,0.54,0c0.27,0,0.45,0,0.72,0c0.36,0,0.72,0,1.08,0c0.27,0,0.45,0,0.72,0c0.09,0,0.18,0,0.18,0
		c0.09,0,0.18,0,0.27,0h0.09c0,0,0.09-0.9,0.09-0.99s0-0.09,0-0.09L92.93,79.49L92.93,79.49z"/>
	<path class="st0" d="M111.92,73.91c-0.81-0.36-1.53-0.54-2.34-0.45c-0.27,0-0.54,0.09-0.72,0.09c-0.36,0.09-0.72,0.18-1.08,0.36
		c-0.36,0.18-0.63,0.45-0.9,0.72c-0.36,0.36-0.54,0.72-0.72,1.08c-0.18,0.54-0.36,0.99-0.27,1.44c0,0.18,0,0.36,0,0.45v0.09
		c0,0.36,0.18,0.81,0.36,1.17c0.54,0.99,1.35,1.62,2.34,1.89c0.45,0.09,0.81,0.18,1.17,0.18c0.09,0,0.18,0,0.27,0
		c0.36,0,0.63,0,0.99-0.09c0.63-0.18,1.26-0.45,1.8-0.9l0,0c0.09-0.09,0.18-0.18,0.27-0.36v-0.09V79.4
		c-0.18-0.18-0.36-0.36-0.54-0.54c-0.09-0.09-0.18-0.18-0.27-0.27l-0.09-0.09l-0.09-0.09l-0.18,0.09l0,0l-0.09,0.09
		c-0.09,0.09-0.09,0.09-0.18,0.18c-0.45,0.36-0.99,0.54-1.62,0.54c-0.36,0-0.72-0.09-1.08-0.18c-0.54-0.18-0.81-0.54-1.08-0.99
		c-0.18-0.36-0.36-0.72-0.36-1.17c0-0.36,0.09-0.72,0.27-1.08c0.09-0.18,0.18-0.36,0.36-0.54c0.45-0.45,1.08-0.63,1.8-0.63
		c0.18,0,0.45,0,0.63,0.09c0.54,0.09,0.99,0.36,1.35,0.72c0,0,0,0.09,0.09,0.09l0.09,0.09c0,0,0,0,0.09,0.09l0.09,0.09l0.18-0.18
		l0,0l0.09-0.09l0.09-0.09l0,0c0.18-0.18,0.45-0.36,0.63-0.54l0.09-0.09l0,0l0.09-0.09l-0.09-0.09
		C113,74.54,112.55,74.09,111.92,73.91z"/>
	<path class="st0" d="M125.87,76.43c0-0.09,0-0.18,0-0.18c-0.09-0.18-0.18-0.36-0.18-0.54c-0.36-0.81-0.9-1.35-1.71-1.71
		c-0.09-0.09-0.18-0.09-0.27-0.09h-0.09c-0.45-0.18-0.99-0.27-1.35-0.27c-0.18,0-0.36,0-0.63,0c-0.18,0-0.45,0.09-0.72,0.09
		c-0.54,0.09-0.99,0.27-1.35,0.54c-0.27,0.18-0.45,0.36-0.63,0.54c-0.45,0.45-0.72,0.99-0.9,1.53c0,0.18-0.09,0.27-0.09,0.45
		c0,0.09,0,0.09,0,0.18c-0.09,0.36,0,0.81,0,1.17c0.09,0.54,0.36,1.08,0.81,1.62c0.27,0.36,0.63,0.63,1.08,0.9
		c0.18,0.09,0.45,0.18,0.63,0.27c0.54,0.18,0.99,0.27,1.53,0.27c0.27,0,0.63,0,0.99-0.09c0.54-0.09,0.99-0.36,1.35-0.54
		c0.18-0.09,0.36-0.18,0.45-0.36c0.27-0.18,0.45-0.45,0.72-0.81c0.18-0.36,0.36-0.63,0.45-0.99c0.09-0.36,0.18-0.72,0.18-1.08
		c0-0.18,0-0.45-0.09-0.63C125.87,76.43,125.87,76.43,125.87,76.43z M124.34,77.6c-0.09,0.63-0.45,1.17-0.99,1.53
		c-0.36,0.27-0.9,0.45-1.26,0.45l0,0c-0.54,0-0.9-0.09-1.26-0.18c-0.54-0.27-0.99-0.72-1.17-1.26c-0.18-0.36-0.18-0.63-0.18-0.99
		c0-0.45,0.18-0.9,0.45-1.26c0.18-0.18,0.36-0.45,0.63-0.63c0,0,0,0,0.09-0.09c0.45-0.18,0.9-0.27,1.26-0.27c0,0,0,0,0.09,0
		c0.27,0,0.54,0.09,0.72,0.18c0.09,0,0.18,0.09,0.18,0.09c0.09,0,0.09,0.09,0.18,0.09c0.54,0.27,0.9,0.63,1.17,1.26
		C124.34,76.88,124.43,77.15,124.34,77.6z"/>
	<rect x="130.64" y="79.13" class="st0" width="1.89" height="1.71"/>
</g>
</svg>
