<?xml version="1.0" encoding="utf-8"?>
<!-- Generator: Adobe Illustrator 26.5.2, SVG Export Plug-In . SVG Version: 6.00 Build 0)  -->
<svg version="1.1" id="Layer_1" xmlns="http://www.w3.org/2000/svg" xmlns:xlink="http://www.w3.org/1999/xlink" x="0px" y="0px"
	 viewBox="0 0 460 18" style="enable-background:new 0 0 460 18;" xml:space="preserve">
<style type="text/css">
	.st0{fill:none;}
	.st1{clip-path:url(#SVGID_00000058563195099398111290000005602892170232188064_);}
	.st2{fill:none;stroke:#D6EDEA;stroke-width:3;stroke-miterlimit:10;}
</style>
<rect id="techhire-assets-techhire-wavy" x="0.1" y="-0.5" class="st0" width="460" height="18"/>
<g>
	<g>
		<defs>
			<rect id="SVGID_1_" x="0.1" y="-0.5" width="460" height="18"/>
		</defs>
		<clipPath id="SVGID_00000109008078055959147890000017300690132242199476_">
			<use xlink:href="#SVGID_1_"  style="overflow:visible;"/>
		</clipPath>
		<g style="clip-path:url(#SVGID_00000109008078055959147890000017300690132242199476_);">
			<path class="st2" d="M0.1,2.4c3.3,0,6.6,0.9,9.4,2.8c3.1,2.1,6.6,4.4,9.7,6.5c5.7,3.8,13.1,3.8,18.8,0c3.1-2.1,6.6-4.4,9.7-6.5
				c3-2,6.4-2.9,9.8-2.8h0.1c3.3,0,6.6,0.9,9.4,2.8c3.1,2.1,6.6,4.4,9.7,6.5c5.7,3.8,13.1,3.8,18.8,0c3.1-2.1,6.6-4.4,9.8-6.5
				c3-2,6.4-2.9,9.8-2.8l0,0c3.3,0,6.6,0.9,9.4,2.8c3.1,2.1,6.6,4.4,9.7,6.5c5.7,3.8,13.1,3.8,18.8,0c3.1-2.1,6.6-4.4,9.7-6.5
				c3-2,6.4-2.9,9.8-2.8h0.1c3.3,0,6.6,0.9,9.4,2.8c3.1,2.1,6.6,4.4,9.8,6.5c5.7,3.8,13.1,3.8,18.8,0c3.1-2.1,6.6-4.4,9.7-6.5
				c3-2,6.4-2.9,9.8-2.8l0,0c3.3,0,6.6,0.9,9.4,2.8c3.1,2.1,6.6,4.4,9.7,6.5c5.7,3.8,13.1,3.8,18.8,0c3.1-2.1,6.6-4.4,9.7-6.5
				c3-2,6.4-2.9,9.8-2.8h0.1c3.3,0,6.6,0.9,9.4,2.8c3.1,2.1,6.6,4.4,9.8,6.5c5.7,3.8,13.1,3.8,18.8,0c3.1-2.1,6.6-4.4,9.7-6.5
				c3-2,6.4-2.9,9.8-2.8l0,0c3.3,0,6.6,0.9,9.4,2.8c3.1,2.1,6.6,4.4,9.8,6.5c5.7,3.8,13.1,3.8,18.8,0c3.1-2.1,6.6-4.4,9.7-6.5
				c3-2,6.4-2.9,9.8-2.8h0.1c3.3,0,6.6,0.9,9.4,2.8c3.1,2.1,6.6,4.4,9.7,6.5c5.7,3.8,13.1,3.8,18.8,0c3.1-2.1,6.6-4.4,9.8-6.5
				c3-2,6.4-2.9,9.8-2.8"/>
		</g>
	</g>
</g>
</svg>
